<svg  viewBox="0 0 45 45" fill="none" xmlns="http://www.w3.org/2000/svg">
<rect width="45" height="45" rx="22.5" fill="#040F16"/>
<path d="M29.8907 14.7781H26.6188V16.1562V16.6437C26.6188 17.1312 26.4313 17.5718 26.0844 17.9187C25.7375 18.2656 25.2969 18.4531 24.8094 18.4531H21.1813C20.6938 18.4531 20.2532 18.2656 19.9063 17.9281C19.5594 17.5812 19.3719 17.1406 19.3719 16.6531V16.1562V14.7781H16.1188C15.9313 14.7781 15.7719 14.8437 15.6313 14.9843C15.5 15.125 15.425 15.2843 15.425 15.4718V33.3781C15.425 33.5656 15.4907 33.7249 15.6313 33.8656C15.7625 33.9968 15.9313 34.0718 16.1188 34.0718H20.7219C20.7032 33.9968 20.6938 33.9124 20.6938 33.8281V32.7031V30.6968C20.6938 30.3875 20.8063 30.1156 21.0407 29.8812C21.2657 29.6562 21.5375 29.5343 21.8563 29.5343H24.1719C24.4813 29.5343 24.7532 29.6468 24.9875 29.8812C25.2125 30.1156 25.3344 30.3781 25.3344 30.6968V32.7031V33.8375C25.3344 33.9218 25.325 34.0062 25.3063 34.0812H29.9094C30.0969 34.0812 30.2563 34.0156 30.3969 33.8749C30.5282 33.7437 30.6032 33.5749 30.6032 33.3874V15.4812C30.6032 15.2937 30.5375 15.1343 30.3969 14.9937C30.2375 14.8437 30.0782 14.7781 29.8907 14.7781ZM28.7282 27.7812C28.6438 27.8656 28.55 27.9031 28.4375 27.9031H27.5938C27.4813 27.9031 27.3782 27.8656 27.3032 27.7812C27.2188 27.6968 27.1813 27.6031 27.1813 27.4906V26.6562C27.1813 26.5437 27.2188 26.4499 27.3032 26.3656C27.3875 26.2812 27.4813 26.2437 27.5938 26.2437H28.4282C28.5407 26.2437 28.6344 26.2812 28.7188 26.3656C28.8032 26.4499 28.8407 26.5437 28.8407 26.6562V27.4906C28.85 27.6031 28.8125 27.7062 28.7282 27.7812ZM28.85 30.0031V30.8375C28.85 30.9499 28.8125 31.0531 28.7282 31.1281C28.6438 31.2125 28.55 31.25 28.4375 31.25H27.5938C27.4813 31.25 27.3782 31.2125 27.3032 31.1281C27.2188 31.0437 27.1813 30.9499 27.1813 30.8375V30.0031C27.1813 29.8906 27.2188 29.7968 27.3032 29.7125C27.3875 29.6281 27.4813 29.5906 27.5938 29.5906H28.4282C28.5407 29.5906 28.6344 29.6281 28.7188 29.7125C28.8125 29.7874 28.85 29.8906 28.85 30.0031ZM28.7282 24.4437C28.6438 24.5281 28.55 24.5656 28.4375 24.5656H27.5938C27.4813 24.5656 27.3782 24.5281 27.3032 24.4437C27.2188 24.3593 27.1813 24.2656 27.1813 24.1531V23.3187C27.1813 23.2062 27.2188 23.1031 27.3032 23.0281C27.3875 22.9437 27.4813 22.9062 27.5938 22.9062H28.4282C28.5407 22.9062 28.6344 22.9437 28.7188 23.0281C28.8032 23.1125 28.8407 23.2062 28.8407 23.3187V24.1531C28.85 24.2656 28.8125 24.3593 28.7282 24.4437ZM28.7282 21.1062C28.6438 21.1906 28.55 21.2281 28.4375 21.2281H27.5938C27.4813 21.2281 27.3782 21.1906 27.3032 21.1062C27.2188 21.0218 27.1813 20.9281 27.1813 20.8156V19.9812C27.1813 19.8687 27.2188 19.775 27.3032 19.6906C27.3875 19.6062 27.4813 19.5687 27.5938 19.5687H28.4282C28.5407 19.5687 28.6344 19.6062 28.7188 19.6906C28.8032 19.775 28.8407 19.8687 28.8407 19.9812V20.8156C28.85 20.9187 28.8125 21.0218 28.7282 21.1062ZM28.7282 17.7593C28.6438 17.8437 28.55 17.8812 28.4375 17.8812H27.5938C27.4813 17.8812 27.3782 17.8437 27.3032 17.7593C27.2188 17.675 27.1813 17.5812 27.1813 17.4687V16.625C27.1813 16.5125 27.2188 16.4187 27.3032 16.3343C27.3875 16.25 27.4813 16.2125 27.5938 16.2125H28.4282C28.5407 16.2125 28.6344 16.25 28.7188 16.3343C28.8032 16.4187 28.8407 16.5125 28.8407 16.625V17.4687C28.85 17.5812 28.8125 17.675 28.7282 17.7593ZM23.8344 19.9718C23.8344 19.8593 23.8719 19.7656 23.9563 19.6812C24.0407 19.5968 24.1344 19.5593 24.2469 19.5593H25.0813C25.1938 19.5593 25.2875 19.5968 25.3719 19.6812C25.4563 19.7656 25.4938 19.8593 25.4938 19.9718V20.8062C25.4938 20.9187 25.4563 21.0218 25.3719 21.0968C25.2875 21.1812 25.1938 21.2187 25.0813 21.2187H24.2469C24.1344 21.2187 24.0407 21.1812 23.9563 21.0968C23.8719 21.0125 23.8344 20.9187 23.8344 20.8062V19.9718ZM23.8344 23.3187C23.8344 23.2062 23.8719 23.1031 23.9563 23.0281C24.0407 22.9437 24.1344 22.9062 24.2469 22.9062H25.0813C25.1938 22.9062 25.2875 22.9437 25.3719 23.0281C25.4563 23.1125 25.4938 23.2062 25.4938 23.3187V24.1531C25.4938 24.2656 25.4563 24.3687 25.3719 24.4437C25.2875 24.5281 25.1938 24.5656 25.0813 24.5656H24.2469C24.1344 24.5656 24.0407 24.5281 23.9563 24.4437C23.8719 24.3593 23.8344 24.2656 23.8344 24.1531V23.3187ZM18.6969 27.7812C18.6125 27.8656 18.5188 27.9031 18.4063 27.9031H17.5719C17.4594 27.9031 17.3563 27.8656 17.2813 27.7812C17.1969 27.6968 17.1594 27.6031 17.1594 27.4906V26.6562C17.1594 26.5437 17.1969 26.4499 17.2813 26.3656C17.3657 26.2812 17.4594 26.2437 17.5719 26.2437H18.4063C18.5188 26.2437 18.6125 26.2812 18.6969 26.3656C18.7813 26.4499 18.8188 26.5437 18.8188 26.6562V27.4906C18.8188 27.6031 18.7813 27.7062 18.6969 27.7812ZM18.8188 30.0031V30.8375C18.8188 30.9499 18.7813 31.0531 18.6969 31.1281C18.6125 31.2125 18.5188 31.25 18.4063 31.25H17.5719C17.4594 31.25 17.3563 31.2125 17.2813 31.1281C17.1969 31.0437 17.1594 30.9499 17.1594 30.8375V30.0031C17.1594 29.8906 17.1969 29.7968 17.2813 29.7125C17.3657 29.6281 17.4594 29.5906 17.5719 29.5906H18.4063C18.5188 29.5906 18.6125 29.6281 18.6969 29.7125C18.7813 29.7874 18.8188 29.8906 18.8188 30.0031ZM18.6969 24.4437C18.6125 24.5281 18.5188 24.5656 18.4063 24.5656H17.5719C17.4594 24.5656 17.3563 24.5281 17.2813 24.4437C17.1969 24.3593 17.1594 24.2656 17.1594 24.1531V23.3187C17.1594 23.2062 17.1969 23.1031 17.2813 23.0281C17.3657 22.9437 17.4594 22.9062 17.5719 22.9062H18.4063C18.5188 22.9062 18.6125 22.9437 18.6969 23.0281C18.7813 23.1125 18.8188 23.2062 18.8188 23.3187V24.1531C18.8188 24.2656 18.7813 24.3593 18.6969 24.4437ZM18.6969 21.1062C18.6125 21.1906 18.5188 21.2281 18.4063 21.2281H17.5719C17.4594 21.2281 17.3563 21.1906 17.2813 21.1062C17.1969 21.0218 17.1594 20.9281 17.1594 20.8156V19.9812C17.1594 19.8687 17.1969 19.775 17.2813 19.6906C17.3657 19.6062 17.4594 19.5687 17.5719 19.5687H18.4063C18.5188 19.5687 18.6125 19.6062 18.6969 19.6906C18.7813 19.775 18.8188 19.8687 18.8188 19.9812V20.8156C18.8188 20.9187 18.7813 21.0218 18.6969 21.1062ZM18.6969 17.7593C18.6125 17.8437 18.5188 17.8812 18.4063 17.8812H17.5719C17.4594 17.8812 17.3563 17.8437 17.2813 17.7593C17.1969 17.675 17.1594 17.5812 17.1594 17.4687V16.625C17.1594 16.5125 17.1969 16.4187 17.2813 16.3343C17.3657 16.25 17.4594 16.2125 17.5719 16.2125H18.4063C18.5188 16.2125 18.6125 16.25 18.6969 16.3343C18.7813 16.4187 18.8188 16.5125 18.8188 16.625V17.4687C18.8188 17.5812 18.7813 17.675 18.6969 17.7593ZM22.1657 27.4906C22.1657 27.6031 22.1282 27.7062 22.0438 27.7812C21.9594 27.8656 21.8657 27.9031 21.7532 27.9031H20.9188C20.8063 27.9031 20.7125 27.8656 20.6282 27.7812C20.5438 27.6968 20.5063 27.6031 20.5063 27.4906V26.6562C20.5063 26.5437 20.5438 26.4499 20.6282 26.3656C20.7125 26.2812 20.8063 26.2437 20.9188 26.2437H21.7532C21.8657 26.2437 21.9594 26.2812 22.0438 26.3656C22.1282 26.4499 22.1657 26.5437 22.1657 26.6562V27.4906ZM22.1657 24.1531C22.1657 24.2656 22.1282 24.3687 22.0438 24.4437C21.9594 24.5281 21.8657 24.5656 21.7532 24.5656H20.9188C20.8063 24.5656 20.7125 24.5281 20.6282 24.4437C20.5438 24.3593 20.5063 24.2656 20.5063 24.1531V23.3187C20.5063 23.2062 20.5438 23.1031 20.6282 23.0281C20.7125 22.9437 20.8063 22.9062 20.9188 22.9062H21.7532C21.8657 22.9062 21.9594 22.9437 22.0438 23.0281C22.1282 23.1125 22.1657 23.2062 22.1657 23.3187V24.1531ZM22.1657 20.8062C22.1657 20.9187 22.1282 21.0218 22.0438 21.0968C21.9594 21.1812 21.8657 21.2187 21.7532 21.2187H20.9188C20.8063 21.2187 20.7125 21.1812 20.6282 21.0968C20.5438 21.0125 20.5063 20.9187 20.5063 20.8062V19.9718C20.5063 19.8593 20.5438 19.7656 20.6282 19.6812C20.7125 19.5968 20.8063 19.5593 20.9188 19.5593H21.7532C21.8657 19.5593 21.9594 19.5968 22.0438 19.6812C22.1282 19.7656 22.1657 19.8593 22.1657 19.9718V20.8062ZM25.0907 27.9124H24.2563C24.1438 27.9124 24.05 27.875 23.9657 27.7906C23.8813 27.7062 23.8438 27.6124 23.8438 27.4999V26.6562C23.8438 26.5437 23.8813 26.4499 23.9657 26.3656C24.05 26.2812 24.1438 26.2437 24.2563 26.2437H25.0907C25.2032 26.2437 25.2969 26.2812 25.3813 26.3656C25.4657 26.4499 25.5032 26.5437 25.5032 26.6562V27.4906C25.5032 27.6031 25.4657 27.7062 25.3813 27.7812C25.3063 27.8656 25.2032 27.9124 25.0907 27.9124Z" fill="#FDF7FA"/>
<path d="M20.4969 17.4781C20.6938 17.6469 20.9281 17.7313 21.1906 17.7313H22.0625H23.9375H24.8094C25.0719 17.7313 25.3062 17.6469 25.5031 17.4781C25.5312 17.4594 25.55 17.4406 25.5781 17.4125C25.7937 17.1969 25.8969 16.9437 25.8969 16.6438V16.1562V14.7781V13.025C25.8969 12.725 25.7937 12.4719 25.5781 12.2562C25.3625 12.0406 25.1094 11.9375 24.8094 11.9375H21.1812C20.8812 11.9375 20.6281 12.0406 20.4125 12.2562C20.1969 12.4719 20.0938 12.725 20.0938 13.025V14.7781V16.1562V16.6438C20.0938 16.9437 20.1969 17.1969 20.4125 17.4125C20.4406 17.4406 20.4688 17.4594 20.4969 17.4781ZM21.0688 14.7781V13.1469C21.0688 13.0812 21.0969 13.025 21.1437 12.9781C21.1906 12.9313 21.2469 12.9031 21.3125 12.9031H21.8C21.8656 12.9031 21.9219 12.9313 21.9687 12.9781C22.0156 13.025 22.0438 13.0812 22.0438 13.1469V14.3562H23.975V13.1469C23.975 13.0812 24.0031 13.025 24.05 12.9781C24.0969 12.9313 24.1531 12.9031 24.2187 12.9031H24.7062C24.7719 12.9031 24.8281 12.9313 24.875 12.9781C24.9219 13.025 24.95 13.0812 24.95 13.1469V14.7875V16.1562V16.2125V16.5219C24.95 16.5875 24.9219 16.6438 24.875 16.6906C24.8281 16.7375 24.7719 16.7656 24.7062 16.7656H24.2187C24.1531 16.7656 24.0969 16.7375 24.05 16.6906C24.0031 16.6438 23.975 16.5875 23.975 16.5219V16.325V16.1562V15.3125H22.0438V16.1562V16.3344V16.5312C22.0438 16.5969 22.0156 16.6531 21.9687 16.7C21.9219 16.7469 21.8656 16.775 21.8 16.775H21.3125C21.2469 16.775 21.1906 16.7469 21.1437 16.7C21.0969 16.6531 21.0688 16.5969 21.0688 16.5312V16.2219V16.1562V14.7781Z" fill="#FDF7FA"/>
</svg>
