<svg width="14" height="8" viewBox="0 0 14 8" fill="none" xmlns="http://www.w3.org/2000/svg">
<path d="M1.18038 0.516935C1.11359 0.453819 1.03502 0.404477 0.949163 0.371726C0.863303 0.338974 0.771833 0.323454 0.679976 0.326052C0.588118 0.328651 0.497672 0.349317 0.413801 0.38687C0.32993 0.424423 0.254278 0.478128 0.191162 0.544918C0.128046 0.611709 0.078704 0.690277 0.0459524 0.776137C0.0132007 0.861997 -0.00231897 0.953466 0.000279547 1.04532C0.00287807 1.13718 0.0235438 1.22763 0.0610969 1.3115C0.09865 1.39537 0.152355 1.47102 0.219145 1.53414L6.51545 7.48065C6.64534 7.60345 6.81732 7.67187 6.99607 7.67187C7.17482 7.67187 7.34679 7.60345 7.47669 7.48065L13.7737 1.53414C13.8419 1.47144 13.8971 1.3958 13.9358 1.31162C13.9746 1.22744 13.9963 1.1364 13.9996 1.04378C14.0029 0.951155 13.9877 0.858803 13.955 0.772084C13.9223 0.685365 13.8727 0.606008 13.8091 0.538624C13.7454 0.471239 13.669 0.417169 13.5843 0.379554C13.4996 0.34194 13.4083 0.321531 13.3156 0.319514C13.223 0.317496 13.1308 0.333908 13.0446 0.367799C12.9583 0.40169 12.8797 0.452384 12.8132 0.516934L6.99607 6.01011L1.18038 0.516935Z" fill="#FDF7FA"/>
</svg>
