<svg width="40" height="40" viewBox="0 0 40 40" fill="none" xmlns="http://www.w3.org/2000/svg">
<rect width="40" height="40" rx="10" fill="#CECECE"/>
<path d="M15.7491 10.5C15.7491 10.3011 15.6701 10.1103 15.5295 9.96967C15.3888 9.82902 15.198 9.75 14.9991 9.75C14.8002 9.75 14.6094 9.82902 14.4688 9.96967C14.3281 10.1103 14.2491 10.3011 14.2491 10.5V12.08C12.8091 12.195 11.8651 12.477 11.1711 13.172C10.4761 13.866 10.1941 14.811 10.0781 16.25H29.9201C29.8041 14.81 29.5221 13.866 28.8271 13.172C28.1331 12.477 27.1881 12.195 25.7491 12.079V10.5C25.7491 10.3011 25.6701 10.1103 25.5295 9.96967C25.3888 9.82902 25.198 9.75 24.9991 9.75C24.8002 9.75 24.6094 9.82902 24.4688 9.96967C24.3281 10.1103 24.2491 10.3011 24.2491 10.5V12.013C23.5841 12 22.8381 12 21.9991 12H17.9991C17.1601 12 16.4141 12 15.7491 12.013V10.5Z" fill="#767676"/>
<path fill-rule="evenodd" clip-rule="evenodd" d="M10 20C10 19.161 10 18.415 10.013 17.75H29.987C30 18.415 30 19.161 30 20V22C30 25.771 30 27.657 28.828 28.828C27.656 29.999 25.771 30 22 30H18C14.229 30 12.343 30 11.172 28.828C10.001 27.656 10 25.771 10 22V20ZM25 22C25.2652 22 25.5196 21.8946 25.7071 21.7071C25.8946 21.5196 26 21.2652 26 21C26 20.7348 25.8946 20.4804 25.7071 20.2929C25.5196 20.1054 25.2652 20 25 20C24.7348 20 24.4804 20.1054 24.2929 20.2929C24.1054 20.4804 24 20.7348 24 21C24 21.2652 24.1054 21.5196 24.2929 21.7071C24.4804 21.8946 24.7348 22 25 22ZM25 26C25.2652 26 25.5196 25.8946 25.7071 25.7071C25.8946 25.5196 26 25.2652 26 25C26 24.7348 25.8946 24.4804 25.7071 24.2929C25.5196 24.1054 25.2652 24 25 24C24.7348 24 24.4804 24.1054 24.2929 24.2929C24.1054 24.4804 24 24.7348 24 25C24 25.2652 24.1054 25.5196 24.2929 25.7071C24.4804 25.8946 24.7348 26 25 26ZM21 21C21 21.2652 20.8946 21.5196 20.7071 21.7071C20.5196 21.8946 20.2652 22 20 22C19.7348 22 19.4804 21.8946 19.2929 21.7071C19.1054 21.5196 19 21.2652 19 21C19 20.7348 19.1054 20.4804 19.2929 20.2929C19.4804 20.1054 19.7348 20 20 20C20.2652 20 20.5196 20.1054 20.7071 20.2929C20.8946 20.4804 21 20.7348 21 21ZM21 25C21 25.2652 20.8946 25.5196 20.7071 25.7071C20.5196 25.8946 20.2652 26 20 26C19.7348 26 19.4804 25.8946 19.2929 25.7071C19.1054 25.5196 19 25.2652 19 25C19 24.7348 19.1054 24.4804 19.2929 24.2929C19.4804 24.1054 19.7348 24 20 24C20.2652 24 20.5196 24.1054 20.7071 24.2929C20.8946 24.4804 21 24.7348 21 25ZM15 22C15.2652 22 15.5196 21.8946 15.7071 21.7071C15.8946 21.5196 16 21.2652 16 21C16 20.7348 15.8946 20.4804 15.7071 20.2929C15.5196 20.1054 15.2652 20 15 20C14.7348 20 14.4804 20.1054 14.2929 20.2929C14.1054 20.4804 14 20.7348 14 21C14 21.2652 14.1054 21.5196 14.2929 21.7071C14.4804 21.8946 14.7348 22 15 22ZM15 26C15.2652 26 15.5196 25.8946 15.7071 25.7071C15.8946 25.5196 16 25.2652 16 25C16 24.7348 15.8946 24.4804 15.7071 24.2929C15.5196 24.1054 15.2652 24 15 24C14.7348 24 14.4804 24.1054 14.2929 24.2929C14.1054 24.4804 14 24.7348 14 25C14 25.2652 14.1054 25.5196 14.2929 25.7071C14.4804 25.8946 14.7348 26 15 26Z" fill="#767676"/>
</svg>
