<svg width="16" height="16" viewBox="0 0 16 16" fill="none" xmlns="http://www.w3.org/2000/svg">
<path d="M5.16739 1.66406C5.16739 1.53145 5.11471 1.40428 5.02094 1.31051C4.92717 1.21674 4.79999 1.16406 4.66739 1.16406C4.53478 1.16406 4.4076 1.21674 4.31383 1.31051C4.22006 1.40428 4.16739 1.53145 4.16739 1.66406V2.7174C3.20739 2.79406 2.57805 2.98206 2.11539 3.4454C1.65205 3.90806 1.46405 4.53806 1.38672 5.4974H14.6147C14.5374 4.5374 14.3494 3.90806 13.8861 3.4454C13.4234 2.98206 12.7934 2.79406 11.8341 2.71673V1.66406C11.8341 1.53145 11.7814 1.40428 11.6876 1.31051C11.5938 1.21674 11.4667 1.16406 11.3341 1.16406C11.2014 1.16406 11.0743 1.21674 10.9805 1.31051C10.8867 1.40428 10.8341 1.53145 10.8341 1.66406V2.67273C10.3907 2.66406 9.89338 2.66406 9.33405 2.66406H6.66739C6.10805 2.66406 5.61072 2.66406 5.16739 2.67273V1.66406Z" fill="#040F16"/>
<path fill-rule="evenodd" clip-rule="evenodd" d="M1.33203 8C1.33203 7.44067 1.33203 6.94333 1.3407 6.5H14.6567C14.6654 6.94333 14.6654 7.44067 14.6654 8V9.33333C14.6654 11.8473 14.6654 13.1047 13.884 13.8853C13.1027 14.666 11.846 14.6667 9.33203 14.6667H6.66536C4.15136 14.6667 2.89403 14.6667 2.11336 13.8853C1.3327 13.104 1.33203 11.8473 1.33203 9.33333V8ZM11.332 9.33333C11.5088 9.33333 11.6784 9.2631 11.8034 9.13807C11.9285 9.01305 11.9987 8.84348 11.9987 8.66667C11.9987 8.48986 11.9285 8.32029 11.8034 8.19526C11.6784 8.07024 11.5088 8 11.332 8C11.1552 8 10.9857 8.07024 10.8606 8.19526C10.7356 8.32029 10.6654 8.48986 10.6654 8.66667C10.6654 8.84348 10.7356 9.01305 10.8606 9.13807C10.9857 9.2631 11.1552 9.33333 11.332 9.33333ZM11.332 12C11.5088 12 11.6784 11.9298 11.8034 11.8047C11.9285 11.6797 11.9987 11.5101 11.9987 11.3333C11.9987 11.1565 11.9285 10.987 11.8034 10.8619C11.6784 10.7369 11.5088 10.6667 11.332 10.6667C11.1552 10.6667 10.9857 10.7369 10.8606 10.8619C10.7356 10.987 10.6654 11.1565 10.6654 11.3333C10.6654 11.5101 10.7356 11.6797 10.8606 11.8047C10.9857 11.9298 11.1552 12 11.332 12ZM8.66536 8.66667C8.66536 8.84348 8.59513 9.01305 8.4701 9.13807C8.34508 9.2631 8.17551 9.33333 7.9987 9.33333C7.82189 9.33333 7.65232 9.2631 7.52729 9.13807C7.40227 9.01305 7.33203 8.84348 7.33203 8.66667C7.33203 8.48986 7.40227 8.32029 7.52729 8.19526C7.65232 8.07024 7.82189 8 7.9987 8C8.17551 8 8.34508 8.07024 8.4701 8.19526C8.59513 8.32029 8.66536 8.48986 8.66536 8.66667ZM8.66536 11.3333C8.66536 11.5101 8.59513 11.6797 8.4701 11.8047C8.34508 11.9298 8.17551 12 7.9987 12C7.82189 12 7.65232 11.9298 7.52729 11.8047C7.40227 11.6797 7.33203 11.5101 7.33203 11.3333C7.33203 11.1565 7.40227 10.987 7.52729 10.8619C7.65232 10.7369 7.82189 10.6667 7.9987 10.6667C8.17551 10.6667 8.34508 10.7369 8.4701 10.8619C8.59513 10.987 8.66536 11.1565 8.66536 11.3333ZM4.66536 9.33333C4.84218 9.33333 5.01174 9.2631 5.13677 9.13807C5.26179 9.01305 5.33203 8.84348 5.33203 8.66667C5.33203 8.48986 5.26179 8.32029 5.13677 8.19526C5.01174 8.07024 4.84218 8 4.66536 8C4.48855 8 4.31898 8.07024 4.19396 8.19526C4.06894 8.32029 3.9987 8.48986 3.9987 8.66667C3.9987 8.84348 4.06894 9.01305 4.19396 9.13807C4.31898 9.2631 4.48855 9.33333 4.66536 9.33333ZM4.66536 12C4.84218 12 5.01174 11.9298 5.13677 11.8047C5.26179 11.6797 5.33203 11.5101 5.33203 11.3333C5.33203 11.1565 5.26179 10.987 5.13677 10.8619C5.01174 10.7369 4.84218 10.6667 4.66536 10.6667C4.48855 10.6667 4.31898 10.7369 4.19396 10.8619C4.06894 10.987 3.9987 11.1565 3.9987 11.3333C3.9987 11.5101 4.06894 11.6797 4.19396 11.8047C4.31898 11.9298 4.48855 12 4.66536 12Z" fill="#040F16"/>
</svg>
