<svg width="34" height="34" viewBox="0 0 34 34" fill="none" xmlns="http://www.w3.org/2000/svg">
<rect width="34" height="34" rx="17" fill="#FDF7FA"/>
<path d="M10.7383 12.1805V22.2972C10.7382 22.6136 10.8004 22.9269 10.9214 23.2193C11.0425 23.5116 11.2199 23.7772 11.4437 24.001C11.6674 24.2247 11.933 24.4022 12.2254 24.5232C12.5177 24.6442 12.831 24.7065 13.1474 24.7064H20.8558C21.4945 24.7064 22.1071 24.4526 22.5587 24.001C23.0104 23.5493 23.2641 22.9368 23.2641 22.298V12.1797" stroke="#040F16" stroke-width="1.2" stroke-linecap="round" stroke-linejoin="round"/>
<path d="M14.1108 15.0707L14.4099 15.6582C14.6092 16.0604 14.9169 16.3989 15.2982 16.6355C15.6796 16.8721 16.1195 16.9975 16.5683 16.9974H17.4349C17.8838 16.9975 18.3237 16.8721 18.705 16.6355C19.0864 16.3989 19.394 16.0604 19.5933 15.6582L19.8924 15.0707M23.2649 12.1799L20.6533 9.56824C20.4714 9.38846 20.2257 9.28807 19.9699 9.28907H14.0333C13.7773 9.28785 13.5312 9.38825 13.3491 9.56824L10.7383 12.1807L23.2649 12.1799Z" stroke="#040F16" stroke-width="1.2" stroke-linecap="round" stroke-linejoin="round"/>
</svg>
