<svg viewBox="0 0 45 45" fill="none" xmlns="http://www.w3.org/2000/svg">
<rect width="45" height="45" rx="22.5" fill="#040F16"/>
<path fill-rule="evenodd" clip-rule="evenodd" d="M25.25 13.5C25.25 13.4337 25.2237 13.3701 25.1768 13.3232C25.1299 13.2763 25.0663 13.25 25 13.25H18C17.2707 13.25 16.5712 13.5397 16.0555 14.0555C15.5397 14.5712 15.25 15.2707 15.25 16V30C15.25 30.7293 15.5397 31.4288 16.0555 31.9445C16.5712 32.4603 17.2707 32.75 18 32.75H28C28.7293 32.75 29.4288 32.4603 29.9445 31.9445C30.4603 31.4288 30.75 30.7293 30.75 30V20.147C30.75 20.0807 30.7237 20.0171 30.6768 19.9702C30.6299 19.9233 30.5663 19.897 30.5 19.897H26C25.8011 19.897 25.6103 19.818 25.4697 19.6773C25.329 19.5367 25.25 19.3459 25.25 19.147V13.5ZM26 23.25C26.1989 23.25 26.3897 23.329 26.5303 23.4697C26.671 23.6103 26.75 23.8011 26.75 24C26.75 24.1989 26.671 24.3897 26.5303 24.5303C26.3897 24.671 26.1989 24.75 26 24.75H20C19.8011 24.75 19.6103 24.671 19.4697 24.5303C19.329 24.3897 19.25 24.1989 19.25 24C19.25 23.8011 19.329 23.6103 19.4697 23.4697C19.6103 23.329 19.8011 23.25 20 23.25H26ZM26 27.25C26.1989 27.25 26.3897 27.329 26.5303 27.4697C26.671 27.6103 26.75 27.8011 26.75 28C26.75 28.1989 26.671 28.3897 26.5303 28.5303C26.3897 28.671 26.1989 28.75 26 28.75H20C19.8011 28.75 19.6103 28.671 19.4697 28.5303C19.329 28.3897 19.25 28.1989 19.25 28C19.25 27.8011 19.329 27.6103 19.4697 27.4697C19.6103 27.329 19.8011 27.25 20 27.25H26Z" fill="#FDF7FA"/>
<path d="M26.75 13.824C26.75 13.64 26.943 13.523 27.086 13.638C27.2073 13.736 27.315 13.85 27.409 13.98L30.422 18.177C30.49 18.273 30.416 18.397 30.298 18.397H27C26.9337 18.397 26.8701 18.3706 26.8232 18.3237C26.7763 18.2768 26.75 18.2133 26.75 18.147V13.824Z" fill="#FDF7FA"/>
</svg>
