<svg width="16" height="16" viewBox="0 0 16 16" fill="none" xmlns="http://www.w3.org/2000/svg">
<g clip-path="url(#clip0_368_869)">
<path d="M8.0013 15.3307C12.0513 15.3307 15.3346 12.0474 15.3346 7.9974C15.3346 3.9474 12.0513 0.664062 8.0013 0.664062M8.0013 15.3307C3.9513 15.3307 0.667969 12.0474 0.667969 7.9974C0.667969 3.9474 3.9513 0.664062 8.0013 0.664062M8.0013 15.3307C10.0013 15.3307 10.668 11.9974 10.668 7.9974C10.668 3.9974 10.0013 0.664062 8.0013 0.664062M8.0013 15.3307C6.0013 15.3307 5.33464 11.9974 5.33464 7.9974C5.33464 3.9974 6.0013 0.664062 8.0013 0.664062M1.33464 10.6641H14.668M1.33464 5.33073H14.668" stroke="currentColor" stroke-width="1.2"/>
</g>
<defs>
<clipPath id="clip0_368_869">
<rect width="16" height="16" fill="white"/>
</clipPath>
</defs>
</svg>
