<svg width="36" height="36" viewBox="0 0 36 36" fill="none" xmlns="http://www.w3.org/2000/svg">
<g filter="url(#filter0_b_104_703)">
<rect width="36" height="36" rx="18" fill="#040F16" fill-opacity="0.06"/>
<rect x="0.65" y="0.65" width="34.7" height="34.7" rx="17.35" stroke="url(#paint0_linear_104_703)" stroke-width="1.3"/>
<path d="M24 12H12C11.175 12 10.5075 12.675 10.5075 13.5L10.5 22.5C10.5 23.325 11.175 24 12 24H24C24.825 24 25.5 23.325 25.5 22.5V13.5C25.5 12.675 24.825 12 24 12ZM23.7 15.1875L18.3975 18.5025C18.1575 18.6525 17.8425 18.6525 17.6025 18.5025L12.3 15.1875C12.2248 15.1453 12.1589 15.0882 12.1064 15.0198C12.0539 14.9514 12.0158 14.8731 11.9944 14.7895C11.9731 14.706 11.9689 14.619 11.9821 14.5337C11.9954 14.4485 12.0258 14.3669 12.0715 14.2937C12.1172 14.2206 12.1772 14.1575 12.248 14.1082C12.3188 14.059 12.3989 14.0246 12.4834 14.0072C12.5678 13.9898 12.655 13.9897 12.7395 14.007C12.824 14.0242 12.9041 14.0584 12.975 14.1075L18 17.25L23.025 14.1075C23.0959 14.0584 23.176 14.0242 23.2605 14.007C23.345 13.9897 23.4322 13.9898 23.5166 14.0072C23.6011 14.0246 23.6812 14.059 23.752 14.1082C23.8228 14.1575 23.8828 14.2206 23.9285 14.2937C23.9742 14.3669 24.0046 14.4485 24.0179 14.5337C24.0311 14.619 24.0269 14.706 24.0056 14.7895C23.9842 14.8731 23.9461 14.9514 23.8936 15.0198C23.8411 15.0882 23.7752 15.1453 23.7 15.1875Z" fill="#040F16" fill-opacity="0.32"/>
</g>
<defs>
<filter id="filter0_b_104_703" x="-16" y="-16" width="68" height="68" filterUnits="userSpaceOnUse" color-interpolation-filters="sRGB">
<feFlood flood-opacity="0" result="BackgroundImageFix"/>
<feGaussianBlur in="BackgroundImageFix" stdDeviation="8"/>
<feComposite in2="SourceAlpha" operator="in" result="effect1_backgroundBlur_104_703"/>
<feBlend mode="normal" in="SourceGraphic" in2="effect1_backgroundBlur_104_703" result="shape"/>
</filter>
<linearGradient id="paint0_linear_104_703" x1="18" y1="0" x2="18" y2="36" gradientUnits="userSpaceOnUse">
<stop stop-color="#040F16" stop-opacity="0.24"/>
<stop offset="1" stop-color="#040F16" stop-opacity="0.02"/>
</linearGradient>
</defs>
</svg>
