<svg  viewBox="0 0 71 70" fill="none" xmlns="http://www.w3.org/2000/svg">
<circle cx="35.5" cy="35" r="35" fill="#945600" fill-opacity="0.2"/>
<path d="M26.8244 43.0068C27.0557 43.0068 27.2971 42.9869 27.5285 42.9569C29.0975 42.7371 30.4452 41.7981 31.5516 40.1797C34.3275 45.2047 35.2931 49.1608 35.3132 49.2308C35.4138 49.6604 35.7959 49.9801 36.2485 50H36.2988C36.7313 50 37.1135 49.7303 37.2542 49.3207C37.9985 47.3426 38.9842 45.4645 40.181 43.7262C41.3578 45.9541 42.8563 46.7033 43.9728 46.9131C44.2544 46.963 44.536 46.993 44.8277 46.993C46.447 46.993 48.1769 46.1639 49.6051 44.6853C52.2403 41.938 53.2158 34.4253 51.4356 30.5891C51.2043 30.0896 50.6009 29.8698 50.0979 30.1095C50.0376 30.1395 49.9772 30.1795 49.9169 30.2194C48.0964 31.5781 46.447 31.9977 44.707 32.4372C43.1983 32.8168 41.6595 33.2165 40.0905 34.2355C38.3204 35.4043 37.2643 37.0927 37.2643 38.771C37.2643 39.6802 37.5761 40.9189 38.8232 42.1577C37.9281 43.3965 37.1335 44.7052 36.4596 46.0738C35.5142 43.4165 34.3174 40.859 32.8992 38.4114C35.2426 37.2226 36.6709 35.6441 37.1134 33.716C37.7973 30.7789 35.997 28.1115 34.8705 26.7928C32.9796 24.575 30.2942 23.9356 27.4479 23.2563C24.9334 22.6569 22.3285 22.0375 20.1962 20.2393C19.9649 20.0395 19.6531 19.9595 19.3514 20.0195C19.0496 20.0794 18.7982 20.2692 18.6574 20.529C15.8714 25.7539 17.2996 35.7041 20.3973 39.3306C22.3991 41.7081 24.7022 43.0068 26.8244 43.0068ZM41.2069 35.9038C42.4843 35.0646 43.8018 34.7249 45.2099 34.3653C46.6683 33.9956 48.2875 33.576 50.0074 32.557C50.9428 36.0835 49.8968 41.4883 48.1467 43.3064C47.2114 44.2755 45.7329 45.2145 44.355 44.9548C42.947 44.6851 42.0719 43.1966 41.5892 41.9978C41.5791 41.9877 41.5691 41.9678 41.559 41.9578C42.7157 40.629 44.1036 39.4103 45.7632 38.591C46.266 38.3513 46.4672 37.7519 46.2258 37.2524C45.9845 36.7529 45.381 36.553 44.8781 36.7928C44.8781 36.7928 44.868 36.7928 44.868 36.8028C42.9671 37.7419 41.3981 39.1106 40.0906 40.5991C39.6279 40.0896 39.2759 39.4801 39.2759 38.7809C39.2758 37.772 40 36.693 41.2069 35.9038ZM19.9449 22.5769C22.1978 24.0854 24.7123 24.6849 26.9753 25.2243C29.6003 25.8437 31.8633 26.3832 33.3418 28.1015C34.8505 29.8698 35.5143 31.7579 35.1623 33.2864C34.8505 34.6451 33.7341 35.7939 31.8633 36.7131C29.6506 33.2065 26.9552 30.0296 23.8574 27.2723C23.455 26.8928 22.8114 26.9127 22.4392 27.3223C22.0571 27.7219 22.0771 28.3612 22.4895 28.7309C22.4996 28.7409 22.5096 28.7508 22.5297 28.7609C25.9393 31.7879 28.5141 35.1246 30.425 38.2116C29.5299 39.87 28.4738 40.809 27.2568 40.9789C25.6677 41.2087 23.6863 40.1098 21.9363 38.0718C19.4622 35.1845 18.215 27.3222 19.9449 22.5769Z" fill="#945600"/>
</svg>
