<svg width="45" height="45" viewBox="0 0 45 45" fill="none" xmlns="http://www.w3.org/2000/svg">
<rect y="6.10352e-05" width="45" height="45" rx="22.5" fill="#040F16"/>
<path d="M13.2 23.1C13.2 22.4323 13.596 21.8273 14.2076 21.56L20.1586 18.9552L19.9375 15.3956C19.9037 14.8487 20.0884 14.3107 20.451 13.8999C20.8136 13.4891 21.3244 13.2389 21.8713 13.2044L22 13.2C22.548 13.2003 23.0736 13.4181 23.4611 13.8057C23.8487 14.1932 24.0666 14.7188 24.0668 15.2669L24.0625 15.3956L23.8403 18.9552L29.7913 21.5589C30.091 21.6899 30.346 21.9055 30.5251 22.1792C30.7043 22.4529 30.7998 22.7729 30.8 23.1C30.8 23.3576 30.6976 23.6046 30.5155 23.7868C30.3333 23.969 30.0863 24.0713 29.8287 24.0713L29.7682 24.0691L23.5686 23.2958L23.3992 25.9996L25.9072 27.2536C26.0551 27.3275 26.1796 27.4412 26.2666 27.5818C26.3537 27.7225 26.3998 27.8846 26.4 28.05C26.4 28.1959 26.342 28.3358 26.2389 28.4389C26.1357 28.542 25.9958 28.6 25.85 28.6L23.2364 28.6L23.1649 29.7682C23.1475 30.0478 23.0241 30.3102 22.8199 30.5019C22.6157 30.6936 22.3461 30.8002 22.066 30.8L21.9318 30.8C21.6518 30.8 21.3825 30.6932 21.1785 30.5015C20.9745 30.3098 20.8513 30.0476 20.834 29.7682L20.7625 28.6L18.15 28.6C18.0041 28.6 17.8642 28.542 17.761 28.4389C17.6579 28.3358 17.6 28.1959 17.6 28.05C17.6 27.8847 17.646 27.7227 17.7328 27.582C17.8196 27.4414 17.9439 27.3277 18.0917 27.2536L20.5997 26.0007L20.4303 23.2958L14.2923 24.0636C14.1556 24.0807 14.0168 24.0686 13.8851 24.0281C13.7535 23.9875 13.632 23.9194 13.5287 23.8282C13.4254 23.7371 13.3426 23.625 13.286 23.4995C13.2293 23.3739 13.2 23.2377 13.2 23.1Z" fill="white"/>
</svg>
