<svg width="45" height="45" viewBox="0 0 45 45" fill="none" xmlns="http://www.w3.org/2000/svg">
<rect width="45" height="45" rx="22.5" fill="#040F16"/>
<g clip-path="url(#clip0_124_2361)">
<path fill-rule="evenodd" clip-rule="evenodd" d="M29.4786 20.657H22.3257H20.4659L20.6164 21.3748C23.4001 21.5579 25.4521 22.7327 26.4595 23.8767C26.8469 24.3162 27.1181 24.7864 27.2597 25.2449C27.4668 25.9158 27.4162 26.5691 27.0913 27.1433C27.0496 27.218 27.0034 27.2898 26.9542 27.3601C27.0153 27.489 27.0615 27.6179 27.0988 27.7424C27.1107 27.7761 27.1226 27.8113 27.1316 27.8464H27.133C27.1807 28.012 27.2046 28.1731 27.2046 28.3328C27.2046 28.3884 27.2016 28.3708 27.1986 28.4192L27.2001 28.4587H27.2046C27.2046 28.4163 27.2046 28.4324 27.2046 28.4587C27.2046 28.4998 27.2031 28.5422 27.2001 28.5847H29.4697L31.3398 20.6599H29.4786V20.657ZM14.4754 30.0876C18.0354 30.0818 21.594 30.0774 25.1541 30.0876C25.3657 30.0891 25.54 30.259 25.54 30.467C25.54 31.0325 25.2986 32.1399 23.9977 32.1399C21.2095 32.1399 18.4214 32.1399 15.6332 32.1399C14.3323 32.1399 14.0909 31.0339 14.0909 30.467C14.0894 30.2576 14.2638 30.0876 14.4754 30.0876ZM22.4479 24.2561C22.7757 24.2561 23.041 24.5168 23.041 24.8391C23.041 25.1614 22.7757 25.4221 22.4479 25.4221C22.12 25.4221 21.8548 25.1614 21.8548 24.8391C21.8548 24.5168 22.12 24.2561 22.4479 24.2561ZM17.2754 24.2971C17.6033 24.2971 17.8685 24.5579 17.8685 24.8801C17.8685 25.2024 17.6033 25.4631 17.2754 25.4631C16.9476 25.4631 16.6823 25.2024 16.6823 24.8801C16.6823 24.5579 16.9476 24.2971 17.2754 24.2971ZM19.8401 23.7405C20.1679 23.7405 20.4331 24.0012 20.4331 24.3235C20.4331 24.6458 20.1679 24.9065 19.8401 24.9065C19.5122 24.9065 19.247 24.6458 19.247 24.3235C19.2484 24.0012 19.5137 23.7405 19.8401 23.7405ZM24.6504 26.7566H15.1042C14.4977 26.7566 14 26.2688 14 25.6726C14 24.1287 17.1309 23.0066 19.7581 22.9802C24.9305 22.929 27.2508 26.7566 24.6504 26.7566ZM25.5147 28.2434C25.5311 28.2712 25.54 28.2991 25.54 28.3313C25.54 28.3503 25.5385 28.3723 25.5385 28.3943C25.54 28.4163 25.54 28.4368 25.54 28.4573C25.54 28.488 25.5311 28.5173 25.5147 28.5452C25.4268 28.9216 25.0751 29.4138 23.9977 29.4138C21.2095 29.4138 18.4214 29.4138 15.6332 29.4138C14.5544 29.4138 14.2042 28.9216 14.1162 28.5452C14.0998 28.5173 14.0909 28.4895 14.0909 28.4573C14.0909 28.4382 14.0924 28.4163 14.0924 28.3943C14.0909 28.3723 14.0909 28.3518 14.0909 28.3313C14.0909 28.3005 14.0998 28.2712 14.1162 28.2434C14.2042 27.8669 14.5544 27.3748 15.6332 27.3748H19.9652L21.5627 28.9963L23.1498 27.3748H23.9992C25.0766 27.3762 25.4268 27.8684 25.5147 28.2434ZM27.1986 28.4573C27.2016 28.5847 27.2031 28.5042 27.2031 28.4573H27.1986ZM20.4793 17.405H25.16L25.6697 15.1785C25.8172 14.6409 26.2464 14.3406 27.0034 14.1384C27.6457 14.1384 28.2879 14.1384 28.9287 14.1384C29.2223 14.1956 29.3922 14.3962 29.4369 14.7419C29.4369 14.9368 29.4369 15.1301 29.4369 15.325C29.34 15.6428 29.1448 15.7717 28.8438 15.8245H27.2374L26.8961 17.405H31.3249C31.6975 17.405 32 17.7039 32 18.0686V18.823C32 19.1892 31.696 19.4866 31.3249 19.4866H20.4793C20.1068 19.4866 19.8043 19.1877 19.8043 18.823V18.0686C19.8043 17.7039 20.1083 17.405 20.4793 17.405ZM26.8723 31.9934H27.6785H28.1434C28.6858 31.8792 29.0628 31.6272 29.2223 31.0984L29.3445 29.8416H27.1017C27.1688 30.0393 27.2046 30.2488 27.2046 30.467C27.2046 30.8713 27.1286 31.4382 26.8723 31.9934Z" fill="#FDF7FA"/>
</g>
<defs>
<clipPath id="clip0_124_2361">
<rect width="18" height="18" fill="white" transform="translate(14 14.1384)"/>
</clipPath>
</defs>
</svg>
 