<svg width="16" height="15" viewBox="0 0 16 15" fill="none" xmlns="http://www.w3.org/2000/svg">
<path d="M9.80064 3.09084C9.92656 2.5853 10.6451 2.5853 10.771 3.09084L11.3526 5.42603C11.3973 5.60552 11.5375 5.74566 11.717 5.79037L14.0521 6.37199C14.5577 6.49791 14.5577 7.21643 14.0521 7.34235L11.717 7.92397C11.5375 7.96868 11.3973 8.10882 11.3526 8.28831L10.771 10.6235C10.6451 11.129 9.92656 11.129 9.80064 10.6235L9.21902 8.28831C9.17431 8.10882 9.03417 7.96868 8.85468 7.92397L6.51949 7.34235C6.01395 7.21643 6.01395 6.49791 6.51949 6.37199L8.85468 5.79037C9.03417 5.74566 9.17431 5.60552 9.21902 5.42603L9.80064 3.09084Z" fill="#767676"/>
<path d="M3.22911 1.94796C3.35502 1.44242 4.07355 1.44242 4.19946 1.94796L4.38228 2.68196C4.42698 2.86144 4.56713 3.00159 4.74661 3.04629L5.48061 3.22911C5.98616 3.35502 5.98616 4.07355 5.48061 4.19946L4.74661 4.38228C4.56713 4.42698 4.42698 4.56713 4.38228 4.74661L4.19946 5.48061C4.07355 5.98616 3.35502 5.98616 3.22911 5.48061L3.04629 4.74661C3.00159 4.56713 2.86144 4.42698 2.68196 4.38228L1.94796 4.19946C1.44242 4.07355 1.44242 3.35502 1.94796 3.22911L2.68196 3.04629C2.86144 3.00159 3.00159 2.86144 3.04629 2.68196L3.22911 1.94796Z" fill="#767676"/>
<path d="M3.22911 8.80507C3.35502 8.29953 4.07355 8.29953 4.19946 8.80508L4.38228 9.53907C4.42698 9.71856 4.56713 9.8587 4.74661 9.90341L5.48061 10.0862C5.98616 10.2121 5.98616 10.9307 5.48061 11.0566L4.74661 11.2394C4.56713 11.2841 4.42698 11.4242 4.38228 11.6037L4.19946 12.3377C4.07355 12.8433 3.35502 12.8433 3.22911 12.3377L3.04629 11.6037C3.00159 11.4242 2.86144 11.2841 2.68196 11.2394L1.94796 11.0566C1.44242 10.9307 1.44242 10.2121 1.94796 10.0862L2.68196 9.90341C2.86144 9.8587 3.00159 9.71856 3.04629 9.53907L3.22911 8.80507Z" fill="#767676"/>
</svg>
