<svg  viewBox="0 0 45 45" fill="none" xmlns="http://www.w3.org/2000/svg">
<rect width="45" height="45" rx="22.5" fill="#040F16"/>
<path d="M27.5834 29.4167H29.4167V22.0833H23.9167V29.4167H25.75V23.9167H27.5834V29.4167ZM14.75 29.4167V15.6667C14.75 15.4236 14.8466 15.1904 15.0185 15.0185C15.1904 14.8466 15.4236 14.75 15.6667 14.75H28.5C28.7432 14.75 28.9763 14.8466 29.1482 15.0185C29.3201 15.1904 29.4167 15.4236 29.4167 15.6667V20.25H31.25V29.4167H32.1667V31.25H13.8334V29.4167H14.75ZM18.4167 22.0833V23.9167H20.25V22.0833H18.4167ZM18.4167 25.75V27.5833H20.25V25.75H18.4167ZM18.4167 18.4167V20.25H20.25V18.4167H18.4167Z" fill="#FDF7FA"/>
</svg>
