<svg width="30" height="31" viewBox="0 0 30 31" fill="none" xmlns="http://www.w3.org/2000/svg">
<path d="M14.1141 22.6348L7.86408 16.3848C7.75028 16.2659 7.66107 16.1257 7.60158 15.9723C7.47656 15.668 7.47656 15.3266 7.60158 15.0223C7.66107 14.8689 7.75028 14.7287 7.86408 14.6098L14.1141 8.3598C14.2306 8.24325 14.369 8.1508 14.5213 8.08773C14.6735 8.02465 14.8368 7.99219 15.0016 7.99219C15.3345 7.99219 15.6537 8.12442 15.8891 8.3598C16.1245 8.59518 16.2567 8.91442 16.2567 9.2473C16.2567 9.58018 16.1245 9.89942 15.8891 10.1348L11.7641 14.2473L21.2516 14.2473C21.5831 14.2473 21.901 14.379 22.1355 14.6134C22.3699 14.8478 22.5016 15.1658 22.5016 15.4973C22.5016 15.8288 22.3699 16.1468 22.1355 16.3812C21.901 16.6156 21.5831 16.7473 21.2516 16.7473L11.7641 16.7473L15.8891 20.8598C16.0062 20.976 16.0992 21.1143 16.1627 21.2666C16.2262 21.4189 16.2588 21.5823 16.2588 21.7473C16.2588 21.9123 16.2262 22.0757 16.1627 22.228C16.0992 22.3803 16.0062 22.5186 15.8891 22.6348C15.7729 22.752 15.6346 22.845 15.4823 22.9084C15.33 22.9719 15.1666 23.0045 15.0016 23.0045C14.8366 23.0045 14.6732 22.9719 14.5209 22.9084C14.3685 22.845 14.2303 22.752 14.1141 22.6348Z" fill="currentColor"/>
</svg>
