<svg  viewBox="0 0 18 18" fill="none" xmlns="http://www.w3.org/2000/svg">
<path d="M9.53233 13.2856L13.2823 9.53557C13.3506 9.46424 13.4041 9.38013 13.4398 9.28807C13.5148 9.10547 13.5148 8.90067 13.4398 8.71807C13.4041 8.62601 13.3506 8.5419 13.2823 8.47057L9.53233 4.72057C9.4624 4.65064 9.37939 4.59517 9.28802 4.55732C9.19665 4.51948 9.09873 4.5 8.99983 4.5C8.80011 4.5 8.60856 4.57934 8.46733 4.72057C8.32611 4.8618 8.24677 5.05334 8.24677 5.25307C8.24677 5.45279 8.32611 5.64434 8.46733 5.78557L10.9423 8.25307L5.24983 8.25307C5.05092 8.25307 4.86015 8.33209 4.7195 8.47274C4.57885 8.61339 4.49983 8.80416 4.49983 9.00307C4.49983 9.20198 4.57885 9.39275 4.7195 9.5334C4.86015 9.67405 5.05092 9.75307 5.24983 9.75307L10.9423 9.75307L8.46733 12.2206C8.39704 12.2903 8.34124 12.3732 8.30316 12.4646C8.26509 12.556 8.24548 12.6541 8.24548 12.7531C8.24548 12.8521 8.26509 12.9501 8.30316 13.0415C8.34124 13.1329 8.39704 13.2158 8.46733 13.2856C8.53706 13.3559 8.62001 13.4117 8.7114 13.4497C8.8028 13.4878 8.90082 13.5074 8.99983 13.5074C9.09884 13.5074 9.19687 13.4878 9.28827 13.4497C9.37966 13.4117 9.46261 13.3559 9.53233 13.2856Z" fill="currentColor"/>
</svg>
