<svg width="71" height="70" viewBox="0 0 71 70" fill="none" xmlns="http://www.w3.org/2000/svg">
<circle cx="35.1667" cy="35" r="35" fill="#945600" fill-opacity="0.2"/>
<g clip-path="url(#clip0_104_793)">
<path d="M41.1863 40.8775C41.4026 39.7712 41.0563 38.635 40.2601 37.8387L32.1613 29.74C31.3651 28.9425 30.2276 28.5975 29.1238 28.8138C28.0188 29.0312 27.0976 29.7787 26.6601 30.8187L20.2251 46.1012C19.7801 47.1575 20.0163 48.3638 20.8263 49.1738C21.3651 49.7125 22.0788 49.9975 22.8063 49.9975C23.1738 49.9975 23.5451 49.9237 23.9001 49.775L39.1838 43.3413C40.2226 42.9038 40.9713 41.9825 41.1876 40.8775H41.1863ZM22.9288 47.47C22.8051 47.5238 22.6913 47.5012 22.5938 47.405C22.4963 47.3088 22.4751 47.195 22.5288 47.0688L26.8688 36.76L33.2388 43.1287L22.9288 47.47ZM38.7338 40.3962C38.7063 40.5337 38.6026 40.8725 38.2126 41.0363L35.7263 42.0825L27.9163 34.2737L28.9638 31.7863C29.1276 31.3975 29.4663 31.2925 29.6038 31.2662C29.6451 31.2575 29.7051 31.25 29.7763 31.25C29.9463 31.25 30.1838 31.2963 30.3938 31.5063L38.4926 39.605C38.7913 39.9037 38.7601 40.2575 38.7338 40.3962ZM37.1551 20.4712C37.5863 19.935 38.3626 19.8462 38.9001 20.2688C39.0038 20.3512 41.4626 22.3325 41.2476 25.705C41.1638 27.0263 40.6576 28.3038 39.7451 29.5063C39.5001 29.83 39.1263 30.0013 38.7488 30.0013C38.4863 30.0013 38.2201 29.9187 37.9938 29.7475C37.4438 29.33 37.3363 28.5462 37.7538 27.9962C38.3638 27.1925 38.6988 26.3688 38.7513 25.5475C38.8813 23.5088 37.4038 22.2787 37.3413 22.2275C36.8101 21.7925 36.7238 21.0075 37.1538 20.4737L37.1551 20.4712ZM49.4713 37.2712C49.2526 37.425 49.0013 37.5 48.7526 37.5C48.3638 37.5 47.9826 37.32 47.7388 36.9837C47.7013 36.935 47.1638 36.25 46.2513 36.25C45.8226 36.25 45.4426 36.3725 45.1226 36.6138C44.5713 37.0312 43.7876 36.92 43.3713 36.37C42.9551 35.82 43.0651 35.035 43.6163 34.62C44.3701 34.0513 45.2813 33.7513 46.2513 33.7513C48.0413 33.7513 49.3063 34.87 49.7726 35.5312C50.1701 36.095 50.0351 36.875 49.4713 37.2738V37.2712ZM46.2513 21.875C46.2513 20.84 47.0913 20 48.1263 20C49.1613 20 50.0013 20.84 50.0013 21.875C50.0013 22.91 49.1613 23.75 48.1263 23.75C47.0913 23.75 46.2513 22.91 46.2513 21.875ZM43.7513 28.125C43.7513 27.09 44.5913 26.25 45.6263 26.25C46.6613 26.25 47.5013 27.09 47.5013 28.125C47.5013 29.16 46.6613 30 45.6263 30C44.5913 30 43.7513 29.16 43.7513 28.125ZM30.0001 23.125C30.0001 22.09 30.8401 21.25 31.8751 21.25C32.9101 21.25 33.7501 22.09 33.7501 23.125C33.7501 24.16 32.9101 25 31.8751 25C30.8401 25 30.0001 24.16 30.0001 23.125ZM48.7501 43.125C48.7501 44.16 47.9101 45 46.8751 45C45.8401 45 45.0001 44.16 45.0001 43.125C45.0001 42.09 45.8401 41.25 46.8751 41.25C47.9101 41.25 48.7501 42.09 48.7501 43.125ZM21.2501 24.375C21.2501 23.34 22.0901 22.5 23.1251 22.5C24.1601 22.5 25.0001 23.34 25.0001 24.375C25.0001 25.41 24.1601 26.25 23.1251 26.25C22.0901 26.25 21.2501 25.41 21.2501 24.375ZM42.5001 48.125C42.5001 49.16 41.6601 50 40.6251 50C39.5901 50 38.7501 49.16 38.7501 48.125C38.7501 47.09 39.5901 46.25 40.6251 46.25C41.6601 46.25 42.5001 47.09 42.5001 48.125Z" fill="#945600"/>
</g>
<defs>
<clipPath id="clip0_104_793">
<rect width="30" height="30" fill="white" transform="translate(20 20)"/>
</clipPath>
</defs>
</svg>
