<svg width="16" height="16" viewBox="0 0 16 16" fill="none" xmlns="http://www.w3.org/2000/svg">
<path d="M5.83203 6.66667C5.83203 6.09203 6.0603 5.54093 6.46663 5.1346C6.87296 4.72827 7.42406 4.5 7.9987 4.5C8.57333 4.5 9.12443 4.72827 9.53076 5.1346C9.93709 5.54093 10.1654 6.09203 10.1654 6.66667C10.1654 7.2413 9.93709 7.7924 9.53076 8.19873C9.12443 8.60506 8.57333 8.83333 7.9987 8.83333C7.42406 8.83333 6.87296 8.60506 6.46663 8.19873C6.0603 7.7924 5.83203 7.2413 5.83203 6.66667Z" fill="#080705"/>
<path fill-rule="evenodd" clip-rule="evenodd" d="M2.51556 5.918C2.62645 4.57783 3.23704 3.32831 4.2262 2.41732C5.21536 1.50633 6.51082 1.00044 7.85556 1H8.14356C9.48831 1.00044 10.7838 1.50633 11.7729 2.41732C12.7621 3.32831 13.3727 4.57783 13.4836 5.918C13.6066 7.41427 13.1447 8.89997 12.1949 10.0627L8.99956 13.9707C8.87845 14.1189 8.7259 14.2384 8.55295 14.3204C8.38 14.4024 8.19098 14.445 7.99956 14.445C7.80814 14.445 7.61912 14.4024 7.44617 14.3204C7.27322 14.2384 7.12067 14.1189 6.99956 13.9707L3.80489 10.0627C2.85487 8.90006 2.39269 7.41436 2.51556 5.918ZM7.99956 3.5C7.15971 3.5 6.35426 3.83363 5.76039 4.4275C5.16652 5.02136 4.83289 5.82681 4.83289 6.66667C4.83289 7.50652 5.16652 8.31197 5.76039 8.90584C6.35426 9.4997 7.15971 9.83333 7.99956 9.83333C8.83941 9.83333 9.64487 9.4997 10.2387 8.90584C10.8326 8.31197 11.1662 7.50652 11.1662 6.66667C11.1662 5.82681 10.8326 5.02136 10.2387 4.4275C9.64487 3.83363 8.83941 3.5 7.99956 3.5Z" fill="#080705"/>
</svg>
