<svg width="22" height="22" viewBox="0 0 22 22" fill="none" xmlns="http://www.w3.org/2000/svg">
<path d="M16.4463 15.3531C17.8905 13.9081 18.7017 11.9488 18.7017 9.90588C18.7017 7.86295 17.8905 5.90363 16.4463 4.45868C15.7312 3.74359 14.8824 3.17634 13.9481 2.78933C13.0138 2.40232 12.0125 2.20313 11.0013 2.20312C9.99001 2.20313 8.98867 2.40232 8.05441 2.78933C7.12016 3.17634 6.27128 3.74359 5.55626 4.45868C4.11206 5.90363 3.30078 7.86295 3.30078 9.90588C3.30078 11.9488 4.11206 13.9081 5.55626 15.3531L7.22936 17.002L9.47666 19.1855L9.62296 19.3153C10.4755 20.0061 11.724 19.9621 12.527 19.1855L15.2055 16.5785L16.4463 15.3531ZM11.0013 13.2026C10.126 13.2026 9.28668 12.8549 8.66781 12.236C8.04894 11.6172 7.70126 10.7778 7.70126 9.90258C7.70126 9.02737 8.04894 8.188 8.66781 7.56913C9.28668 6.95026 10.126 6.60258 11.0013 6.60258C11.8765 6.60258 12.7158 6.95026 13.3347 7.56913C13.9536 8.188 14.3013 9.02737 14.3013 9.90258C14.3013 10.7778 13.9536 11.6172 13.3347 12.236C12.7158 12.8549 11.8765 13.2026 11.0013 13.2026Z" fill="#ABABAB"/>
</svg>
