<svg width="24" height="24" viewBox="0 0 24 24" fill="none" xmlns="http://www.w3.org/2000/svg">
<path d="M4 16.0015V10.2445C3.99987 10.2189 4.0063 10.1937 4.01869 10.1712C4.03107 10.1488 4.049 10.1299 4.07076 10.1164C4.09253 10.1028 4.11739 10.0951 4.14299 10.0939C4.16859 10.0927 4.19407 10.0981 4.217 10.1095L10.658 13.3305C11.0747 13.5389 11.5341 13.6474 12 13.6474C12.4659 13.6474 12.9253 13.5389 13.342 13.3305L19.782 10.1105C19.8049 10.0989 19.8304 10.0933 19.856 10.0944C19.8817 10.0954 19.9067 10.103 19.9286 10.1165C19.9504 10.1299 19.9685 10.1487 19.981 10.1712C19.9935 10.1936 20.0001 10.2189 20 10.2445V16.0015C20 16.532 19.7893 17.0407 19.4142 17.4158C19.0391 17.7908 18.5304 18.0015 18 18.0015H6C5.46957 18.0015 4.96086 17.7908 4.58579 17.4158C4.21072 17.0407 4 16.532 4 16.0015Z" fill="#ABABAB"/>
<path d="M4 8V8.907C4.00004 8.93484 4.00782 8.96212 4.02248 8.98578C4.03714 9.00945 4.05809 9.02857 4.083 9.041L10.658 12.329C11.0747 12.5374 11.5341 12.6459 12 12.6459C12.4659 12.6459 12.9253 12.5374 13.342 12.329L19.917 9.041C19.9419 9.02857 19.9629 9.00945 19.9775 8.98578C19.9922 8.96212 20 8.93484 20 8.907V8C20 7.46957 19.7893 6.96086 19.4142 6.58579C19.0391 6.21071 18.5304 6 18 6H6C5.46957 6 4.96086 6.21071 4.58579 6.58579C4.21071 6.96086 4 7.46957 4 8Z" fill="white" fill-opacity="0.25"/>
</svg>
