<svg width="18" height="18" viewBox="0 0 18 18" fill="none" xmlns="http://www.w3.org/2000/svg">
<path d="M8.06215 2.53451C8.38431 1.66389 9.61569 1.66389 9.93785 2.53451L11.2712 6.13794C11.3725 6.41166 11.5883 6.62747 11.8621 6.72876L15.4655 8.06215C16.3361 8.38431 16.3361 9.61569 15.4655 9.93785L11.8621 11.2712C11.5883 11.3725 11.3725 11.5883 11.2712 11.8621L9.93785 15.4655C9.61569 16.3361 8.38431 16.3361 8.06215 15.4655L6.72876 11.8621C6.62747 11.5883 6.41166 11.3725 6.13794 11.2712L2.53451 9.93785C1.66389 9.61569 1.66389 8.38431 2.53451 8.06215L6.13794 6.72876C6.41166 6.62747 6.62747 6.41166 6.72876 6.13794L8.06215 2.53451Z" fill="#14591D"/>
</svg>
