<svg width="20" height="20" viewBox="0 0 20 20" fill="none" xmlns="http://www.w3.org/2000/svg">
<path d="M10.8572 1.66406C11.7951 1.66561 12.2703 1.67057 12.681 1.6828L12.8427 1.68809C13.0296 1.69473 13.2139 1.70306 13.4362 1.71348C14.3229 1.75445 14.9278 1.89473 15.4591 2.10098C16.0083 2.31278 16.4722 2.5989 16.9354 3.06209C17.3979 3.52528 17.6841 3.99056 17.8966 4.53848C18.1021 5.06903 18.2424 5.67459 18.2841 6.5614C18.294 6.78361 18.302 6.96795 18.3086 7.15482L18.3138 7.31655C18.326 7.72718 18.3316 8.2025 18.3333 9.14033L18.334 9.76175C18.3341 9.83766 18.3341 9.916 18.3341 9.99683L18.334 10.2319L18.3335 10.8533C18.3319 11.7912 18.327 12.2664 18.3147 12.6771L18.3094 12.8388C18.3028 13.0257 18.2945 13.21 18.2841 13.4322C18.2431 14.319 18.1021 14.9239 17.8966 15.4552C17.6847 16.0044 17.3979 16.4683 16.9354 16.9315C16.4722 17.394 16.0062 17.6802 15.4591 17.8927C14.9278 18.0982 14.3229 18.2385 13.4362 18.2802C13.2139 18.2901 13.0296 18.2981 12.8427 18.3047L12.681 18.3099C12.2703 18.3221 11.7951 18.3277 10.8572 18.3294L10.2358 18.3301C10.1599 18.3302 10.0816 18.3302 10.0007 18.3302L9.76565 18.3301L9.14424 18.3296C8.2064 18.328 7.73109 18.3231 7.32046 18.3108L7.15873 18.3055C6.97185 18.2989 6.78752 18.2906 6.5653 18.2802C5.67849 18.2392 5.07433 18.0982 4.54239 17.8927C3.99377 17.6808 3.52919 17.394 3.06599 16.9315C2.6028 16.4683 2.31739 16.0023 2.10489 15.4552C1.89864 14.9239 1.75905 14.319 1.71739 13.4322C1.70749 13.21 1.69941 13.0257 1.69287 12.8388L1.68763 12.6771C1.67544 12.2664 1.66988 11.7912 1.66808 10.8533L1.66797 9.14033C1.66952 8.2025 1.67448 7.72718 1.6867 7.31655L1.69199 7.15482C1.69864 6.96795 1.70697 6.78361 1.71739 6.5614C1.75835 5.6739 1.89864 5.06973 2.10489 4.53848C2.31669 3.98986 2.6028 3.52528 3.06599 3.06209C3.52919 2.5989 3.99447 2.31348 4.54239 2.10098C5.07364 1.89473 5.6778 1.75515 6.5653 1.71348C6.78752 1.70358 6.97185 1.6955 7.15873 1.68896L7.32046 1.68372C7.73109 1.67153 8.2064 1.66597 9.14424 1.66417L10.8572 1.66406ZM10.0007 5.83015C7.6983 5.83015 5.83405 7.69642 5.83405 9.99683C5.83405 12.2992 7.70033 14.1635 10.0007 14.1635C12.3032 14.1635 14.1674 12.2972 14.1674 9.99683C14.1674 7.6944 12.3011 5.83015 10.0007 5.83015ZM10.0007 7.49681C11.3815 7.49681 12.5007 8.61566 12.5007 9.99683C12.5007 11.3776 11.3818 12.4968 10.0007 12.4968C8.61999 12.4968 7.50072 11.3779 7.50072 9.99683C7.50072 8.61608 8.61957 7.49681 10.0007 7.49681ZM14.3757 4.58015C13.8013 4.58015 13.3341 5.04673 13.3341 5.6211C13.3341 6.19547 13.8007 6.66278 14.3757 6.66278C14.9501 6.66278 15.4174 6.1962 15.4174 5.6211C15.4174 5.04673 14.9493 4.57942 14.3757 4.58015Z" fill="#FDF7FA"/>
</svg>
