<svg width="20" height="20" viewBox="0 0 20 20" fill="none" xmlns="http://www.w3.org/2000/svg">
<path d="M6.98596 2.06952C7.42355 1.93758 7.89312 1.9595 8.3165 2.13162C8.73989 2.30375 9.09156 2.61569 9.31296 3.01552L9.38696 3.16452L10.049 4.63552C10.2495 5.08208 10.3145 5.57769 10.2359 6.06086C10.1573 6.54403 9.93865 6.9935 9.60696 7.35352L9.47396 7.48552L8.43096 8.45852C8.24296 8.63652 8.38396 9.32552 9.06396 10.5035C9.67596 11.5635 10.174 12.0585 10.419 12.0855H10.462L10.515 12.0755L12.565 11.4485C12.8405 11.364 13.1345 11.3607 13.4119 11.4389C13.6892 11.5171 13.9382 11.6735 14.129 11.8895L14.22 12.0045L15.577 13.8845C15.8429 14.253 15.9754 14.7011 15.9527 15.155C15.93 15.6088 15.7534 16.0414 15.452 16.3815L15.33 16.5075L14.788 17.0215C14.3013 17.4824 13.6924 17.7939 13.0339 17.9189C12.3753 18.0439 11.6947 17.9771 11.073 17.7265C9.13796 16.9465 7.37996 15.1645 5.78296 12.3985C4.18296 9.62552 3.51796 7.20852 3.81496 5.13852C3.90484 4.51278 4.1625 3.92307 4.5606 3.43201C4.95869 2.94095 5.48235 2.56688 6.07596 2.34952L6.26896 2.28552L6.98596 2.06952Z" fill="#ABABAB"/>
</svg>
