<svg width="60" height="60" viewBox="0 0 60 60" fill="none" xmlns="http://www.w3.org/2000/svg">
<rect width="60" height="60" rx="10" fill="#14591D" fill-opacity="0.05"/>
<path fill-rule="evenodd" clip-rule="evenodd" d="M18.75 26.25C19.4404 26.25 20 26.8096 20 27.5V32.5C20 33.1904 19.4404 33.75 18.75 33.75C18.0596 33.75 17.5 33.1904 17.5 32.5L17.5 27.5C17.5 26.8096 18.0596 26.25 18.75 26.25Z" fill="#14591D"/>
<path fill-rule="evenodd" clip-rule="evenodd" d="M24.375 21.25C25.0654 21.25 25.625 21.8096 25.625 22.5L25.625 37.5C25.625 38.1904 25.0654 38.75 24.375 38.75C23.6846 38.75 23.125 38.1904 23.125 37.5L23.125 22.5C23.125 21.8096 23.6846 21.25 24.375 21.25Z" fill="#14591D"/>
<path fill-rule="evenodd" clip-rule="evenodd" d="M30 17.5C30.6904 17.5 31.25 18.0596 31.25 18.75V41.25C31.25 41.9404 30.6904 42.5 30 42.5C29.3096 42.5 28.75 41.9404 28.75 41.25V18.75C28.75 18.0596 29.3096 17.5 30 17.5Z" fill="#14591D"/>
<path fill-rule="evenodd" clip-rule="evenodd" d="M35.625 21.25C36.3154 21.25 36.875 21.8096 36.875 22.5V37.5C36.875 38.1904 36.3154 38.75 35.625 38.75C34.9346 38.75 34.375 38.1904 34.375 37.5V22.5C34.375 21.8096 34.9346 21.25 35.625 21.25Z" fill="#14591D"/>
<path fill-rule="evenodd" clip-rule="evenodd" d="M41.25 26.25C41.9404 26.25 42.5 26.8096 42.5 27.5V32.5C42.5 33.1904 41.9404 33.75 41.25 33.75C40.5596 33.75 40 33.1904 40 32.5V27.5C40 26.8096 40.5596 26.25 41.25 26.25Z" fill="#14591D"/>
</svg>
