<svg  viewBox="0 0 71 70" fill="none" xmlns="http://www.w3.org/2000/svg">
<circle cx="35.8334" cy="35" r="35" fill="#945600" fill-opacity="0.2"/>
<g clip-path="url(#clip0_104_809)">
<path d="M32.25 44.9999H29.7475C29.7475 45.0624 29.75 45.3874 29.75 45.3874C29.75 46.5524 30.6975 47.4999 31.8625 47.4999H33.5C34.19 47.4999 34.75 48.0599 34.75 48.7499C34.75 49.4399 34.19 49.9999 33.5 49.9999H31.8625C29.3188 49.9999 27.25 47.9312 27.25 45.3874V45.1862C27.25 43.1037 26.3038 41.0762 24.585 39.4774C21.8988 36.9787 20.6275 33.4424 21.0938 29.7774C21.7375 24.7274 25.88 20.6461 30.945 20.0736C36.5088 19.4436 41.7575 23.0411 43.1463 28.4386C43.3188 29.1074 42.915 29.7886 42.2463 29.9599C41.5875 30.1336 40.8963 29.7311 40.7238 29.0611C39.6275 24.7949 35.6288 22.0611 31.225 22.5574C27.2913 23.0011 24.0738 26.1711 23.5738 30.0936C23.2088 32.9499 24.1988 35.7037 26.2863 37.6474C27.7863 39.0437 28.8338 40.7112 29.3588 42.4987H30.9988V33.5336C29.5438 33.0174 28.4988 31.6286 28.4988 29.9986C28.4988 29.3087 29.0588 28.7486 29.7488 28.7486C30.4388 28.7486 30.9988 29.3087 30.9988 29.9986C30.9988 30.6887 31.56 31.2486 32.2488 31.2486C32.9375 31.2486 33.4988 30.6874 33.4988 29.9986C33.4988 29.3099 34.0588 28.7486 34.7488 28.7486C35.4388 28.7486 35.9988 29.3087 35.9988 29.9986C35.9988 31.6286 34.9538 33.0174 33.4988 33.5336V43.7487C33.4988 44.4387 32.9388 44.9987 32.2488 44.9987L32.25 44.9999ZM50.4525 45.6249C50.22 46.0262 49.8013 46.2499 49.3688 46.2499C49.1563 46.2499 48.9413 46.1961 48.745 46.0824L47.55 45.3924C46.6675 46.3862 45.475 47.0987 44.125 47.3737V48.7499C44.125 49.4399 43.5663 49.9999 42.875 49.9999C42.1838 49.9999 41.625 49.4399 41.625 48.7499V47.3737C40.275 47.0987 39.0813 46.3862 38.2 45.3924L37.005 46.0824C36.8075 46.1961 36.5925 46.2499 36.3813 46.2499C35.9488 46.2499 35.5288 46.0262 35.2975 45.6249C34.9525 45.0262 35.1575 44.2624 35.755 43.9174L36.9463 43.2299C36.7375 42.6074 36.625 41.9424 36.625 41.2512C36.625 40.5599 36.7388 39.8937 36.9463 39.2724L35.755 38.5849C35.1575 38.2399 34.9525 37.4749 35.2975 36.8774C35.6425 36.2799 36.405 36.0737 37.005 36.4199L38.2 37.1099C39.0825 36.1161 40.275 35.4037 41.625 35.1286V33.7524C41.625 33.0624 42.1838 32.5024 42.875 32.5024C43.5663 32.5024 44.125 33.0624 44.125 33.7524V35.1286C45.475 35.4037 46.6688 36.1161 47.55 37.1099L48.745 36.4199C49.3413 36.0749 50.1063 36.2799 50.4525 36.8774C50.7975 37.4762 50.5925 38.2399 49.995 38.5849L48.8038 39.2724C49.0125 39.8949 49.125 40.5599 49.125 41.2512C49.125 41.9424 49.0113 42.6087 48.8038 43.2299L49.995 43.9174C50.5938 44.2624 50.7988 45.0274 50.4525 45.6249ZM46.625 41.2499C46.625 39.1824 44.9425 37.4999 42.875 37.4999C40.8075 37.4999 39.125 39.1824 39.125 41.2499C39.125 43.3174 40.8075 44.9999 42.875 44.9999C44.9425 44.9999 46.625 43.3174 46.625 41.2499Z" fill="#945600"/>
</g>
<defs>
<clipPath id="clip0_104_809">
<rect width="30" height="30" fill="white" transform="translate(21 20)"/>
</clipPath>
</defs>
</svg>
