<svg viewBox="0 0 71 70" fill="none" xmlns="http://www.w3.org/2000/svg">
<circle cx="35.8334" cy="35" r="35" fill="#945600" fill-opacity="0.2"/>
<g clip-path="url(#clip0_104_785)">
<path d="M44.2263 22.6751L36.395 20.0638C36.1386 19.9784 35.8614 19.9784 35.605 20.0638L27.7738 22.6751C26.5286 23.0887 25.4455 23.8841 24.6783 24.9484C23.9111 26.0128 23.4988 27.2918 23.5 28.6038V35.0001C23.5 44.4538 35 49.6751 35.4925 49.8926C35.6523 49.9635 35.8252 50.0002 36 50.0002C36.1748 50.0002 36.3477 49.9635 36.5075 49.8926C37 49.6751 48.5 44.4538 48.5 35.0001V28.6038C48.5012 27.2918 48.0889 26.0128 47.3217 24.9484C46.5545 23.8841 45.4714 23.0887 44.2263 22.6751ZM46 35.0001C46 41.8188 38.1013 46.2913 36 47.3613C33.8963 46.2951 26 41.8363 26 35.0001V28.6038C26.0001 27.8167 26.2478 27.0495 26.7082 26.411C27.1686 25.7725 27.8182 25.295 28.565 25.0463L36 22.5676L43.435 25.0463C44.1818 25.295 44.8314 25.7725 45.2918 26.411C45.7522 27.0495 45.9999 27.8167 46 28.6038V35.0001Z" fill="#945600"/>
<path d="M40.125 30.375L34.89 35.625L32.085 32.7C31.9724 32.5769 31.8364 32.4776 31.6848 32.4079C31.5333 32.3382 31.3693 32.2996 31.2026 32.2942C31.0359 32.2889 30.8698 32.317 30.7141 32.3768C30.5584 32.4367 30.4163 32.5271 30.2961 32.6427C30.1759 32.7583 30.08 32.8968 30.0142 33.0501C29.9483 33.2033 29.9138 33.3682 29.9126 33.535C29.9115 33.7018 29.9437 33.8671 30.0075 34.0212C30.0712 34.1754 30.1651 34.3152 30.2837 34.4325L33.1662 37.4325C33.3812 37.6647 33.641 37.8508 33.93 37.9798C34.219 38.1087 34.5311 38.1776 34.8475 38.1825H34.8887C35.1988 38.1835 35.506 38.1229 35.7925 38.0043C36.0789 37.8856 36.339 37.7112 36.5575 37.4912L41.8975 32.1512C42.0141 32.0348 42.1067 31.8966 42.1699 31.7445C42.2331 31.5923 42.2657 31.4292 42.2659 31.2644C42.2661 31.0997 42.2338 30.9365 42.1709 30.7842C42.108 30.6319 42.0157 30.4935 41.8994 30.3768C41.783 30.2602 41.6448 30.1677 41.4926 30.1044C41.3404 30.0412 41.1773 30.0086 41.0126 30.0084C40.8478 30.0082 40.6846 30.0405 40.5323 30.1034C40.38 30.1663 40.2416 30.2586 40.125 30.375Z" fill="#945600"/>
</g>
<defs>
<clipPath id="clip0_104_785">
<rect width="30" height="30" fill="white" transform="translate(21 20)"/>
</clipPath>
</defs>
</svg>
