<svg width="36" height="36" viewBox="0 0 36 36" fill="none" xmlns="http://www.w3.org/2000/svg">
<g filter="url(#filter0_b_104_701)">
<rect width="36" height="36" rx="18" fill="#040F16" fill-opacity="0.06"/>
<rect x="0.65" y="0.65" width="34.7" height="34.7" rx="17.35" stroke="url(#paint0_linear_104_701)" stroke-width="1.3"/>
<path d="M13.5 13.65C13.5 12.81 13.5 12.39 13.6635 12.069C13.8073 11.7868 14.0368 11.5573 14.319 11.4135C14.64 11.25 15.06 11.25 15.9 11.25H20.1C20.94 11.25 21.36 11.25 21.681 11.4135C21.9632 11.5573 22.1927 11.7868 22.3365 12.069C22.5 12.39 22.5 12.81 22.5 13.65V23.6287C22.5 23.9932 22.5 24.1755 22.4242 24.2753C22.3915 24.3186 22.3497 24.3544 22.3018 24.38C22.2539 24.4057 22.201 24.4206 22.1467 24.4237C22.0215 24.4313 21.87 24.33 21.567 24.1283L18 21.75L14.433 24.1275C14.13 24.33 13.9785 24.4313 13.8525 24.4237C13.7984 24.4205 13.7456 24.4055 13.6978 24.3799C13.6501 24.3542 13.6084 24.3185 13.5757 24.2753C13.5 24.1755 13.5 23.9932 13.5 23.6287V13.65Z" fill="#040F16" fill-opacity="0.32"/>
</g>
<defs>
<filter id="filter0_b_104_701" x="-16" y="-16" width="68" height="68" filterUnits="userSpaceOnUse" color-interpolation-filters="sRGB">
<feFlood flood-opacity="0" result="BackgroundImageFix"/>
<feGaussianBlur in="BackgroundImageFix" stdDeviation="8"/>
<feComposite in2="SourceAlpha" operator="in" result="effect1_backgroundBlur_104_701"/>
<feBlend mode="normal" in="SourceGraphic" in2="effect1_backgroundBlur_104_701" result="shape"/>
</filter>
<linearGradient id="paint0_linear_104_701" x1="18" y1="0" x2="18" y2="36" gradientUnits="userSpaceOnUse">
<stop stop-color="#040F16" stop-opacity="0.24"/>
<stop offset="1" stop-color="#040F16" stop-opacity="0.02"/>
</linearGradient>
</defs>
</svg>
