<svg width="180" height="74" viewBox="0 0 180 74" fill="none" xmlns="http://www.w3.org/2000/svg">
<path d="M1.26 10V1.6H5.028C5.996 1.6 6.74 1.796 7.26 2.188C7.78 2.572 8.04 3.1 8.04 3.772C8.04 4.228 7.936 4.612 7.728 4.924C7.528 5.236 7.256 5.476 6.912 5.644C6.568 5.812 6.196 5.896 5.796 5.896L6.012 5.536C6.492 5.536 6.916 5.62 7.284 5.788C7.652 5.956 7.944 6.204 8.16 6.532C8.376 6.852 8.484 7.252 8.484 7.732C8.484 8.452 8.212 9.012 7.668 9.412C7.132 9.804 6.332 10 5.268 10H1.26ZM2.46 9.028H5.22C5.884 9.028 6.392 8.916 6.744 8.692C7.096 8.468 7.272 8.116 7.272 7.636C7.272 7.148 7.096 6.792 6.744 6.568C6.392 6.344 5.884 6.232 5.22 6.232H2.352V5.26H4.92C5.528 5.26 6 5.148 6.336 4.924C6.672 4.7 6.84 4.364 6.84 3.916C6.84 3.468 6.672 3.132 6.336 2.908C6 2.684 5.528 2.572 4.92 2.572H2.46V9.028ZM12.85 10.072C12.306 10.072 11.826 9.972 11.41 9.772C11.002 9.572 10.682 9.268 10.45 8.86C10.226 8.444 10.114 7.924 10.114 7.3V3.64H11.266V7.168C11.266 7.792 11.414 8.26 11.71 8.572C12.014 8.884 12.438 9.04 12.982 9.04C13.382 9.04 13.73 8.96 14.026 8.8C14.322 8.632 14.55 8.392 14.71 8.08C14.87 7.76 14.95 7.376 14.95 6.928V3.64H16.102V10H15.01V8.284L15.19 8.74C14.982 9.164 14.67 9.492 14.254 9.724C13.838 9.956 13.37 10.072 12.85 10.072ZM20.9231 10.072C20.3071 10.072 19.7551 9.936 19.2671 9.664C18.7871 9.392 18.4071 9.012 18.1271 8.524C17.8471 8.036 17.7071 7.468 17.7071 6.82C17.7071 6.172 17.8471 5.608 18.1271 5.128C18.4071 4.64 18.7871 4.26 19.2671 3.988C19.7551 3.716 20.3071 3.58 20.9231 3.58C21.4591 3.58 21.9431 3.7 22.3751 3.94C22.8071 4.18 23.1511 4.54 23.4071 5.02C23.6711 5.5 23.8031 6.1 23.8031 6.82C23.8031 7.54 23.6751 8.14 23.4191 8.62C23.1711 9.1 22.8311 9.464 22.3991 9.712C21.9671 9.952 21.4751 10.072 20.9231 10.072ZM21.0191 9.064C21.4191 9.064 21.7791 8.972 22.0991 8.788C22.4271 8.604 22.6831 8.344 22.8671 8.008C23.0591 7.664 23.1551 7.268 23.1551 6.82C23.1551 6.364 23.0591 5.972 22.8671 5.644C22.6831 5.308 22.4271 5.048 22.0991 4.864C21.7791 4.68 21.4191 4.588 21.0191 4.588C20.6111 4.588 20.2471 4.68 19.9271 4.864C19.6071 5.048 19.3511 5.308 19.1591 5.644C18.9671 5.972 18.8711 6.364 18.8711 6.82C18.8711 7.268 18.9671 7.664 19.1591 8.008C19.3511 8.344 19.6071 8.604 19.9271 8.788C20.2471 8.972 20.6111 9.064 21.0191 9.064ZM23.1911 10V8.284L23.2631 6.808L23.1431 5.332V1.096H24.2951V10H23.1911ZM29.2588 12.4C28.6748 12.4 28.1068 12.316 27.5548 12.148C27.0108 11.988 26.5668 11.756 26.2228 11.452L26.7748 10.564C27.0708 10.82 27.4348 11.02 27.8668 11.164C28.2988 11.316 28.7508 11.392 29.2228 11.392C29.9748 11.392 30.5268 11.216 30.8788 10.864C31.2308 10.512 31.4068 9.976 31.4068 9.256V7.912L31.5268 6.652L31.4668 5.38V3.64H32.5588V9.136C32.5588 10.256 32.2788 11.08 31.7188 11.608C31.1588 12.136 30.3388 12.4 29.2588 12.4ZM29.1148 9.736C28.4988 9.736 27.9468 9.608 27.4588 9.352C26.9788 9.088 26.5948 8.724 26.3068 8.26C26.0268 7.796 25.8868 7.26 25.8868 6.652C25.8868 6.036 26.0268 5.5 26.3068 5.044C26.5948 4.58 26.9788 4.22 27.4588 3.964C27.9468 3.708 28.4988 3.58 29.1148 3.58C29.6588 3.58 30.1548 3.692 30.6028 3.916C31.0508 4.132 31.4068 4.468 31.6708 4.924C31.9428 5.38 32.0788 5.956 32.0788 6.652C32.0788 7.34 31.9428 7.912 31.6708 8.368C31.4068 8.824 31.0508 9.168 30.6028 9.4C30.1548 9.624 29.6588 9.736 29.1148 9.736ZM29.2468 8.728C29.6708 8.728 30.0468 8.64 30.3748 8.464C30.7028 8.288 30.9588 8.044 31.1428 7.732C31.3348 7.42 31.4308 7.06 31.4308 6.652C31.4308 6.244 31.3348 5.884 31.1428 5.572C30.9588 5.26 30.7028 5.02 30.3748 4.852C30.0468 4.676 29.6708 4.588 29.2468 4.588C28.8228 4.588 28.4428 4.676 28.1068 4.852C27.7788 5.02 27.5188 5.26 27.3268 5.572C27.1428 5.884 27.0508 6.244 27.0508 6.652C27.0508 7.06 27.1428 7.42 27.3268 7.732C27.5188 8.044 27.7788 8.288 28.1068 8.464C28.4428 8.64 28.8228 8.728 29.2468 8.728ZM37.592 10.072C36.912 10.072 36.312 9.932 35.792 9.652C35.28 9.372 34.88 8.988 34.592 8.5C34.312 8.012 34.172 7.452 34.172 6.82C34.172 6.188 34.308 5.628 34.58 5.14C34.86 4.652 35.24 4.272 35.72 4C36.208 3.72 36.756 3.58 37.364 3.58C37.98 3.58 38.524 3.716 38.996 3.988C39.468 4.26 39.836 4.644 40.1 5.14C40.372 5.628 40.508 6.2 40.508 6.856C40.508 6.904 40.504 6.96 40.496 7.024C40.496 7.088 40.492 7.148 40.484 7.204H35.072V6.376H39.884L39.416 6.664C39.424 6.256 39.34 5.892 39.164 5.572C38.988 5.252 38.744 5.004 38.432 4.828C38.128 4.644 37.772 4.552 37.364 4.552C36.964 4.552 36.608 4.644 36.296 4.828C35.984 5.004 35.74 5.256 35.564 5.584C35.388 5.904 35.3 6.272 35.3 6.688V6.88C35.3 7.304 35.396 7.684 35.588 8.02C35.788 8.348 36.064 8.604 36.416 8.788C36.768 8.972 37.172 9.064 37.628 9.064C38.004 9.064 38.344 9 38.648 8.872C38.96 8.744 39.232 8.552 39.464 8.296L40.1 9.04C39.812 9.376 39.452 9.632 39.02 9.808C38.596 9.984 38.12 10.072 37.592 10.072ZM44.2916 10.072C43.6516 10.072 43.1556 9.9 42.8036 9.556C42.4516 9.212 42.2756 8.72 42.2756 8.08V2.248H43.4276V8.032C43.4276 8.376 43.5116 8.64 43.6796 8.824C43.8556 9.008 44.1036 9.1 44.4236 9.1C44.7836 9.1 45.0836 9 45.3236 8.8L45.6836 9.628C45.5076 9.78 45.2956 9.892 45.0476 9.964C44.8076 10.036 44.5556 10.072 44.2916 10.072ZM41.1956 4.588V3.64H45.2516V4.588H41.1956Z" fill="#767676"/>
<rect x="0.5" y="24.5" width="179" height="49" rx="12.5" stroke="#CECECE"/>
<path d="M21.6719 46.4929C21.6188 46.0223 21.4001 45.6577 21.0156 45.3991C20.6312 45.1373 20.1473 45.0064 19.5639 45.0064C19.1463 45.0064 18.785 45.0727 18.4801 45.2053C18.1752 45.3345 17.9382 45.5135 17.7692 45.7422C17.6035 45.9676 17.5206 46.2244 17.5206 46.5128C17.5206 46.7547 17.5769 46.9635 17.6896 47.1392C17.8056 47.3149 17.9564 47.4624 18.142 47.5817C18.331 47.6977 18.5331 47.7955 18.7486 47.875C18.964 47.9512 19.1712 48.0142 19.37 48.0639L20.3643 48.3224C20.6892 48.402 21.0223 48.5097 21.3636 48.6456C21.705 48.7815 22.0215 48.9605 22.3132 49.1825C22.6049 49.4046 22.8402 49.6797 23.0192 50.0078C23.2015 50.3359 23.2926 50.7287 23.2926 51.1861C23.2926 51.7628 23.1435 52.2749 22.8452 52.7223C22.5502 53.1697 22.121 53.5227 21.5575 53.7812C20.9974 54.0398 20.3196 54.169 19.5241 54.169C18.7618 54.169 18.1023 54.0481 17.5455 53.8061C16.9886 53.5642 16.5528 53.2211 16.2379 52.777C15.9231 52.3295 15.7491 51.7992 15.7159 51.1861H17.2571C17.2869 51.554 17.4063 51.8606 17.6151 52.1058C17.8272 52.3478 18.0973 52.5284 18.4254 52.6477C18.7569 52.7637 19.1198 52.8217 19.5142 52.8217C19.9484 52.8217 20.3345 52.7538 20.6726 52.6179C21.014 52.4787 21.2824 52.2865 21.478 52.0412C21.6735 51.7926 21.7713 51.5026 21.7713 51.1712C21.7713 50.8696 21.6851 50.6226 21.5128 50.4304C21.3438 50.2382 21.1134 50.0791 20.8217 49.9531C20.5334 49.8272 20.2069 49.7161 19.8423 49.62L18.6392 49.2919C17.8239 49.0698 17.1776 48.7434 16.7003 48.3125C16.2263 47.8816 15.9893 47.3116 15.9893 46.6023C15.9893 46.0156 16.1484 45.5036 16.4666 45.0661C16.7848 44.6286 17.2157 44.2888 17.7592 44.0469C18.3028 43.8016 18.916 43.679 19.5987 43.679C20.2881 43.679 20.8963 43.8 21.4233 44.0419C21.9536 44.2839 22.3712 44.617 22.6761 45.0412C22.9811 45.4621 23.1402 45.946 23.1534 46.4929H21.6719ZM28.3002 54.1541C27.5479 54.1541 26.8999 53.9934 26.3564 53.6719C25.8161 53.3471 25.3985 52.8913 25.1035 52.3047C24.8118 51.7147 24.666 51.0237 24.666 50.2315C24.666 49.4493 24.8118 48.7599 25.1035 48.1634C25.3985 47.5668 25.8095 47.1011 26.3365 46.7663C26.8668 46.4316 27.4866 46.2642 28.1958 46.2642C28.6267 46.2642 29.0443 46.3355 29.4487 46.478C29.853 46.6205 30.216 46.8442 30.5375 47.1491C30.859 47.4541 31.1125 47.8501 31.2981 48.3374C31.4837 48.8213 31.5765 49.4096 31.5765 50.1023V50.6293H25.5062V49.5156H30.1199C30.1199 49.1245 30.0403 48.7782 29.8812 48.4766C29.7221 48.1716 29.4984 47.9313 29.21 47.7557C28.925 47.58 28.5903 47.4922 28.2058 47.4922C27.7882 47.4922 27.4236 47.5949 27.112 47.8004C26.8038 48.0026 26.5652 48.2678 26.3961 48.5959C26.2304 48.9207 26.1475 49.2737 26.1475 49.6548V50.5249C26.1475 51.0353 26.237 51.4695 26.416 51.8274C26.5983 52.1854 26.8519 52.4588 27.1767 52.6477C27.5015 52.8333 27.881 52.9261 28.3152 52.9261C28.5969 52.9261 28.8538 52.8864 29.0858 52.8068C29.3178 52.724 29.5183 52.6013 29.6873 52.4389C29.8564 52.2765 29.9856 52.076 30.0751 51.8374L31.4821 52.0909C31.3694 52.5052 31.1672 52.8681 30.8755 53.1797C30.5872 53.4879 30.2243 53.7282 29.7868 53.9006C29.3526 54.0696 28.8571 54.1541 28.3002 54.1541ZM34.7124 43.8182V54H33.2259V43.8182H34.7124ZM40.0034 54.1541C39.251 54.1541 38.603 53.9934 38.0595 53.6719C37.5192 53.3471 37.1016 52.8913 36.8066 52.3047C36.515 51.7147 36.3691 51.0237 36.3691 50.2315C36.3691 49.4493 36.515 48.7599 36.8066 48.1634C37.1016 47.5668 37.5126 47.1011 38.0396 46.7663C38.5699 46.4316 39.1897 46.2642 39.899 46.2642C40.3298 46.2642 40.7475 46.3355 41.1518 46.478C41.5562 46.6205 41.9191 46.8442 42.2406 47.1491C42.5621 47.4541 42.8156 47.8501 43.0012 48.3374C43.1868 48.8213 43.2797 49.4096 43.2797 50.1023V50.6293H37.2093V49.5156H41.823C41.823 49.1245 41.7434 48.7782 41.5843 48.4766C41.4252 48.1716 41.2015 47.9313 40.9132 47.7557C40.6281 47.58 40.2934 47.4922 39.9089 47.4922C39.4913 47.4922 39.1267 47.5949 38.8152 47.8004C38.5069 48.0026 38.2683 48.2678 38.0993 48.5959C37.9335 48.9207 37.8507 49.2737 37.8507 49.6548V50.5249C37.8507 51.0353 37.9402 51.4695 38.1191 51.8274C38.3014 52.1854 38.555 52.4588 38.8798 52.6477C39.2046 52.8333 39.5841 52.9261 40.0183 52.9261C40.3 52.9261 40.5569 52.8864 40.7889 52.8068C41.0209 52.724 41.2214 52.6013 41.3904 52.4389C41.5595 52.2765 41.6887 52.076 41.7782 51.8374L43.1852 52.0909C43.0725 52.5052 42.8703 52.8681 42.5787 53.1797C42.2903 53.4879 41.9274 53.7282 41.4899 53.9006C41.0557 54.0696 40.5602 54.1541 40.0034 54.1541ZM48.1456 54.1541C47.4065 54.1541 46.7701 53.9867 46.2365 53.652C45.7062 53.3139 45.2985 52.8482 45.0135 52.255C44.7285 51.6617 44.5859 50.9822 44.5859 50.2166C44.5859 49.4411 44.7318 48.7566 45.0234 48.1634C45.3151 47.5668 45.7261 47.1011 46.2564 46.7663C46.7867 46.4316 47.4115 46.2642 48.1307 46.2642C48.7107 46.2642 49.2277 46.3719 49.6818 46.5874C50.1359 46.7995 50.5021 47.0978 50.7805 47.4822C51.0623 47.8667 51.2296 48.3158 51.2827 48.8295H49.8359C49.7564 48.4716 49.5741 48.1634 49.2891 47.9048C49.0073 47.6463 48.6295 47.517 48.1555 47.517C47.7412 47.517 47.3783 47.6264 47.0668 47.8452C46.7585 48.0606 46.5182 48.3688 46.3459 48.7699C46.1735 49.1676 46.0874 49.6383 46.0874 50.1818C46.0874 50.7386 46.1719 51.2192 46.3409 51.6236C46.5099 52.0279 46.7486 52.3411 47.0568 52.5632C47.3684 52.7853 47.7346 52.8963 48.1555 52.8963C48.4373 52.8963 48.6925 52.8449 48.9212 52.7422C49.1532 52.6361 49.3471 52.4853 49.5028 52.2898C49.6619 52.0942 49.773 51.8589 49.8359 51.5838H51.2827C51.2296 52.0777 51.0689 52.5185 50.8004 52.9062C50.532 53.294 50.1723 53.599 49.7216 53.821C49.2741 54.0431 48.7488 54.1541 48.1456 54.1541ZM56.437 46.3636V47.5568H52.2658V46.3636H56.437ZM53.3844 44.5341H54.8709V51.7578C54.8709 52.0462 54.914 52.2633 55.0002 52.4091C55.0864 52.5516 55.1974 52.6494 55.3333 52.7024C55.4725 52.7521 55.6233 52.777 55.7857 52.777C55.905 52.777 56.0094 52.7687 56.0989 52.7521C56.1884 52.7356 56.258 52.7223 56.3077 52.7124L56.5762 53.9403C56.49 53.9735 56.3674 54.0066 56.2083 54.0398C56.0492 54.0762 55.8503 54.0961 55.6117 54.0994C55.2206 54.1061 54.856 54.0365 54.5179 53.8906C54.1799 53.7448 53.9064 53.5194 53.6976 53.2145C53.4888 52.9096 53.3844 52.5268 53.3844 52.0661V44.5341ZM61.9057 54V43.8182H65.6344C66.3569 43.8182 66.9552 43.9375 67.4292 44.1761C67.9031 44.4115 68.2578 44.7313 68.4931 45.1357C68.7284 45.5367 68.8461 45.9891 68.8461 46.4929C68.8461 46.9171 68.7682 47.2751 68.6124 47.5668C68.4566 47.8551 68.2478 48.0871 67.986 48.2628C67.7275 48.4351 67.4424 48.5611 67.1309 48.6406V48.7401C67.4689 48.7566 67.7987 48.866 68.1202 49.0682C68.445 49.267 68.7135 49.5504 68.9256 49.9183C69.1377 50.2862 69.2438 50.7337 69.2438 51.2607C69.2438 51.781 69.1212 52.2483 68.8759 52.6626C68.6339 53.0736 68.2594 53.4001 67.7523 53.642C67.2452 53.8807 66.5972 54 65.8084 54H61.9057ZM63.4419 52.6825H65.6593C66.3951 52.6825 66.9221 52.54 67.2402 52.255C67.5584 51.9699 67.7175 51.6136 67.7175 51.1861C67.7175 50.8646 67.6363 50.5696 67.4739 50.3011C67.3115 50.0327 67.0795 49.8189 66.7779 49.6598C66.4796 49.5007 66.1249 49.4212 65.714 49.4212H63.4419V52.6825ZM63.4419 48.223H65.5002C65.8449 48.223 66.1548 48.1567 66.4299 48.0241C66.7083 47.8916 66.9287 47.706 67.0911 47.4673C67.2568 47.2254 67.3397 46.9403 67.3397 46.6122C67.3397 46.1913 67.1922 45.8383 66.8972 45.5533C66.6022 45.2682 66.1498 45.1257 65.54 45.1257H63.4419V48.223ZM75.7839 50.8331V46.3636H77.2754V54H75.8137V52.6776H75.7342C75.5585 53.0852 75.2768 53.425 74.889 53.6967C74.5046 53.9652 74.0256 54.0994 73.4522 54.0994C72.9617 54.0994 72.5275 53.9917 72.1497 53.7763C71.7752 53.5575 71.4802 53.2344 71.2647 52.8068C71.0526 52.3793 70.9466 51.8506 70.9466 51.2209V46.3636H72.4331V51.0419C72.4331 51.5623 72.5772 51.9766 72.8656 52.2848C73.1539 52.593 73.5285 52.7472 73.9892 52.7472C74.2676 52.7472 74.5443 52.6776 74.8194 52.5384C75.0978 52.3991 75.3282 52.1887 75.5105 51.907C75.6961 51.6252 75.7872 51.2673 75.7839 50.8331ZM82.1314 54.1491C81.5149 54.1491 80.9647 53.9917 80.4808 53.6768C80.0002 53.3587 79.6224 52.9062 79.3473 52.3196C79.0755 51.7296 78.9396 51.022 78.9396 50.1967C78.9396 49.3714 79.0772 48.6655 79.3523 48.0788C79.6307 47.4922 80.0118 47.0431 80.4957 46.7315C80.9796 46.42 81.5282 46.2642 82.1413 46.2642C82.6153 46.2642 82.9964 46.3438 83.2848 46.5028C83.5765 46.6586 83.8018 46.8409 83.9609 47.0497C84.1233 47.2585 84.2493 47.4425 84.3388 47.6016H84.4283V43.8182H85.9148V54H84.4631V52.8118H84.3388C84.2493 52.9742 84.12 53.1598 83.951 53.3686C83.7853 53.5774 83.5566 53.7597 83.2649 53.9155C82.9732 54.0713 82.5954 54.1491 82.1314 54.1491ZM82.4595 52.8814C82.8871 52.8814 83.2483 52.7687 83.5433 52.5433C83.8416 52.3146 84.067 51.9981 84.2195 51.5938C84.3752 51.1894 84.4531 50.7187 84.4531 50.1818C84.4531 49.6515 84.3769 49.1875 84.2244 48.7898C84.072 48.392 83.8482 48.0821 83.5533 47.8601C83.2583 47.638 82.8937 47.527 82.4595 47.527C82.0121 47.527 81.6392 47.643 81.3409 47.875C81.0426 48.107 80.8172 48.4235 80.6648 48.8246C80.5156 49.2256 80.4411 49.678 80.4411 50.1818C80.4411 50.6922 80.5173 51.1513 80.6697 51.5589C80.8222 51.9666 81.0476 52.2898 81.3459 52.5284C81.6475 52.7637 82.0187 52.8814 82.4595 52.8814ZM91.2381 57.0227C90.6316 57.0227 90.1096 56.9432 89.6721 56.7841C89.2379 56.625 88.8832 56.4145 88.6081 56.1527C88.333 55.8909 88.1275 55.6042 87.9917 55.2926L89.2694 54.7656C89.3588 54.9115 89.4782 55.0656 89.6273 55.228C89.7798 55.3937 89.9853 55.5346 90.2438 55.6506C90.5056 55.7666 90.842 55.8246 91.253 55.8246C91.8165 55.8246 92.2821 55.687 92.65 55.4119C93.0179 55.1402 93.2019 54.706 93.2019 54.1094V52.608H93.1074C93.0179 52.7704 92.8887 52.951 92.7196 53.1499C92.5539 53.3487 92.3252 53.5211 92.0336 53.6669C91.7419 53.8127 91.3624 53.8857 90.8951 53.8857C90.2918 53.8857 89.7483 53.7448 89.2644 53.4631C88.7838 53.178 88.4026 52.7588 88.1209 52.2053C87.8425 51.6484 87.7033 50.964 87.7033 50.152C87.7033 49.34 87.8408 48.6439 88.1159 48.0639C88.3944 47.4839 88.7755 47.0398 89.2594 46.7315C89.7433 46.42 90.2918 46.2642 90.905 46.2642C91.379 46.2642 91.7618 46.3438 92.0534 46.5028C92.3451 46.6586 92.5721 46.8409 92.7346 47.0497C92.9003 47.2585 93.0279 47.4425 93.1174 47.6016H93.2267V46.3636H94.6834V54.169C94.6834 54.8253 94.531 55.3639 94.226 55.7848C93.9211 56.2057 93.5085 56.5173 92.9881 56.7195C92.4711 56.9216 91.8877 57.0227 91.2381 57.0227ZM91.2232 52.6527C91.6507 52.6527 92.012 52.5533 92.307 52.3544C92.6053 52.1522 92.8307 51.8639 92.9831 51.4893C93.1389 51.1115 93.2168 50.6591 93.2168 50.1321C93.2168 49.6184 93.1406 49.166 92.9881 48.7749C92.8356 48.3838 92.6119 48.0788 92.3169 47.8601C92.022 47.638 91.6574 47.527 91.2232 47.527C90.7757 47.527 90.4029 47.643 90.1046 47.875C89.8063 48.1037 89.5809 48.4152 89.4284 48.8097C89.2793 49.2041 89.2047 49.6449 89.2047 50.1321C89.2047 50.6326 89.281 51.0717 89.4334 51.4496C89.5859 51.8274 89.8113 52.1224 90.1096 52.3345C90.4112 52.5466 90.7824 52.6527 91.2232 52.6527ZM99.9682 54.1541C99.2158 54.1541 98.5679 53.9934 98.0243 53.6719C97.4841 53.3471 97.0665 52.8913 96.7715 52.3047C96.4798 51.7147 96.334 51.0237 96.334 50.2315C96.334 49.4493 96.4798 48.7599 96.7715 48.1634C97.0665 47.5668 97.4775 47.1011 98.0044 46.7663C98.5347 46.4316 99.1545 46.2642 99.8638 46.2642C100.295 46.2642 100.712 46.3355 101.117 46.478C101.521 46.6205 101.884 46.8442 102.205 47.1491C102.527 47.4541 102.78 47.8501 102.966 48.3374C103.152 48.8213 103.244 49.4096 103.244 50.1023V50.6293H97.1742V49.5156H101.788C101.788 49.1245 101.708 48.7782 101.549 48.4766C101.39 48.1716 101.166 47.9313 100.878 47.7557C100.593 47.58 100.258 47.4922 99.8738 47.4922C99.4561 47.4922 99.0916 47.5949 98.78 47.8004C98.4718 48.0026 98.2331 48.2678 98.0641 48.5959C97.8984 48.9207 97.8155 49.2737 97.8155 49.6548V50.5249C97.8155 51.0353 97.905 51.4695 98.084 51.8274C98.2663 52.1854 98.5198 52.4588 98.8446 52.6477C99.1694 52.8333 99.5489 52.9261 99.9831 52.9261C100.265 52.9261 100.522 52.8864 100.754 52.8068C100.986 52.724 101.186 52.6013 101.355 52.4389C101.524 52.2765 101.654 52.076 101.743 51.8374L103.15 52.0909C103.037 52.5052 102.835 52.8681 102.544 53.1797C102.255 53.4879 101.892 53.7282 101.455 53.9006C101.021 54.0696 100.525 54.1541 99.9682 54.1541ZM108.458 46.3636V47.5568H104.287V46.3636H108.458ZM105.406 44.5341H106.892V51.7578C106.892 52.0462 106.935 52.2633 107.022 52.4091C107.108 52.5516 107.219 52.6494 107.355 52.7024C107.494 52.7521 107.645 52.777 107.807 52.777C107.926 52.777 108.031 52.7687 108.12 52.7521C108.21 52.7356 108.279 52.7223 108.329 52.7124L108.598 53.9403C108.511 53.9735 108.389 54.0066 108.23 54.0398C108.071 54.0762 107.872 54.0961 107.633 54.0994C107.242 54.1061 106.877 54.0365 106.539 53.8906C106.201 53.7448 105.928 53.5194 105.719 53.2145C105.51 52.9096 105.406 52.5268 105.406 52.0661V44.5341Z" fill="#767676"/>
<path d="M157.25 47.5L161 51.25L164.75 47.5" stroke="#767676" stroke-width="1.5" stroke-linecap="round" stroke-linejoin="round"/>
</svg>
