<svg width="221" height="74" viewBox="0 0 221 74" fill="none" xmlns="http://www.w3.org/2000/svg">
<path d="M1.26 10V1.6H2.244L7.8 8.5H7.284V1.6H8.484V10H7.5L1.944 3.1H2.46V10H1.26ZM13.5063 10.072C12.9623 10.072 12.4823 9.972 12.0663 9.772C11.6583 9.572 11.3383 9.268 11.1063 8.86C10.8823 8.444 10.7703 7.924 10.7703 7.3V3.64H11.9223V7.168C11.9223 7.792 12.0703 8.26 12.3663 8.572C12.6703 8.884 13.0943 9.04 13.6383 9.04C14.0383 9.04 14.3863 8.96 14.6823 8.8C14.9783 8.632 15.2063 8.392 15.3663 8.08C15.5263 7.76 15.6063 7.376 15.6063 6.928V3.64H16.7583V10H15.6663V8.284L15.8463 8.74C15.6383 9.164 15.3263 9.492 14.9103 9.724C14.4943 9.956 14.0263 10.072 13.5063 10.072ZM26.9074 3.58C27.4194 3.58 27.8714 3.68 28.2634 3.88C28.6554 4.08 28.9594 4.384 29.1754 4.792C29.3994 5.2 29.5114 5.716 29.5114 6.34V10H28.3594V6.472C28.3594 5.856 28.2154 5.392 27.9274 5.08C27.6394 4.768 27.2354 4.612 26.7154 4.612C26.3314 4.612 25.9954 4.692 25.7074 4.852C25.4194 5.012 25.1954 5.248 25.0354 5.56C24.8834 5.872 24.8074 6.26 24.8074 6.724V10H23.6554V6.472C23.6554 5.856 23.5114 5.392 23.2234 5.08C22.9434 4.768 22.5394 4.612 22.0114 4.612C21.6354 4.612 21.3034 4.692 21.0154 4.852C20.7274 5.012 20.5034 5.248 20.3434 5.56C20.1834 5.872 20.1034 6.26 20.1034 6.724V10H18.9514V3.64H20.0554V5.332L19.8754 4.9C20.0754 4.484 20.3834 4.16 20.7994 3.928C21.2154 3.696 21.6994 3.58 22.2514 3.58C22.8594 3.58 23.3834 3.732 23.8234 4.036C24.2634 4.332 24.5514 4.784 24.6874 5.392L24.2194 5.2C24.4114 4.712 24.7474 4.32 25.2274 4.024C25.7074 3.728 26.2674 3.58 26.9074 3.58ZM35.0031 10.072C34.4591 10.072 33.9671 9.952 33.5271 9.712C33.0951 9.464 32.7511 9.1 32.4951 8.62C32.2471 8.14 32.1231 7.54 32.1231 6.82C32.1231 6.1 32.2511 5.5 32.5071 5.02C32.7711 4.54 33.1191 4.18 33.5511 3.94C33.9911 3.7 34.4751 3.58 35.0031 3.58C35.6271 3.58 36.1791 3.716 36.6591 3.988C37.1391 4.26 37.5191 4.64 37.7991 5.128C38.0791 5.608 38.2191 6.172 38.2191 6.82C38.2191 7.468 38.0791 8.036 37.7991 8.524C37.5191 9.012 37.1391 9.392 36.6591 9.664C36.1791 9.936 35.6271 10.072 35.0031 10.072ZM31.6311 10V1.096H32.7831V5.332L32.6631 6.808L32.7351 8.284V10H31.6311ZM34.9071 9.064C35.3151 9.064 35.6791 8.972 35.9991 8.788C36.3271 8.604 36.5831 8.344 36.7671 8.008C36.9591 7.664 37.0551 7.268 37.0551 6.82C37.0551 6.364 36.9591 5.972 36.7671 5.644C36.5831 5.308 36.3271 5.048 35.9991 4.864C35.6791 4.68 35.3151 4.588 34.9071 4.588C34.5071 4.588 34.1431 4.68 33.8151 4.864C33.4951 5.048 33.2391 5.308 33.0471 5.644C32.8631 5.972 32.7711 6.364 32.7711 6.82C32.7711 7.268 32.8631 7.664 33.0471 8.008C33.2391 8.344 33.4951 8.604 33.8151 8.788C34.1431 8.972 34.5071 9.064 34.9071 9.064ZM42.6428 10.072C41.9628 10.072 41.3628 9.932 40.8428 9.652C40.3308 9.372 39.9308 8.988 39.6428 8.5C39.3628 8.012 39.2228 7.452 39.2228 6.82C39.2228 6.188 39.3588 5.628 39.6308 5.14C39.9108 4.652 40.2908 4.272 40.7708 4C41.2588 3.72 41.8068 3.58 42.4148 3.58C43.0308 3.58 43.5748 3.716 44.0468 3.988C44.5188 4.26 44.8868 4.644 45.1508 5.14C45.4228 5.628 45.5588 6.2 45.5588 6.856C45.5588 6.904 45.5548 6.96 45.5468 7.024C45.5468 7.088 45.5428 7.148 45.5348 7.204H40.1228V6.376H44.9348L44.4668 6.664C44.4748 6.256 44.3908 5.892 44.2148 5.572C44.0388 5.252 43.7948 5.004 43.4828 4.828C43.1788 4.644 42.8228 4.552 42.4148 4.552C42.0148 4.552 41.6588 4.644 41.3468 4.828C41.0348 5.004 40.7908 5.256 40.6148 5.584C40.4388 5.904 40.3508 6.272 40.3508 6.688V6.88C40.3508 7.304 40.4468 7.684 40.6388 8.02C40.8388 8.348 41.1148 8.604 41.4668 8.788C41.8188 8.972 42.2228 9.064 42.6788 9.064C43.0548 9.064 43.3948 9 43.6988 8.872C44.0108 8.744 44.2828 8.552 44.5148 8.296L45.1508 9.04C44.8628 9.376 44.5028 9.632 44.0708 9.808C43.6468 9.984 43.1708 10.072 42.6428 10.072ZM47.1584 10V3.64H48.2624V5.368L48.1544 4.936C48.3304 4.496 48.6264 4.16 49.0424 3.928C49.4584 3.696 49.9704 3.58 50.5784 3.58V4.696C50.5304 4.688 50.4824 4.684 50.4344 4.684C50.3944 4.684 50.3544 4.684 50.3144 4.684C49.6984 4.684 49.2104 4.868 48.8504 5.236C48.4904 5.604 48.3104 6.136 48.3104 6.832V10H47.1584ZM59.2629 10.096C58.6229 10.096 58.0269 9.988 57.4749 9.772C56.9309 9.556 56.4589 9.256 56.0589 8.872C55.6589 8.48 55.3469 8.024 55.1229 7.504C54.8989 6.984 54.7869 6.416 54.7869 5.8C54.7869 5.184 54.8989 4.616 55.1229 4.096C55.3469 3.576 55.6589 3.124 56.0589 2.74C56.4589 2.348 56.9309 2.044 57.4749 1.828C58.0189 1.612 58.6149 1.504 59.2629 1.504C59.9029 1.504 60.4909 1.612 61.0269 1.828C61.5709 2.036 62.0429 2.336 62.4429 2.728C62.8509 3.112 63.1629 3.564 63.3789 4.084C63.6029 4.604 63.7149 5.176 63.7149 5.8C63.7149 6.424 63.6029 6.996 63.3789 7.516C63.1629 8.036 62.8509 8.492 62.4429 8.884C62.0429 9.268 61.5709 9.568 61.0269 9.784C60.4909 9.992 59.9029 10.096 59.2629 10.096ZM59.2629 9.028C59.7269 9.028 60.1549 8.948 60.5469 8.788C60.9469 8.628 61.2909 8.404 61.5789 8.116C61.8749 7.82 62.1029 7.476 62.2629 7.084C62.4309 6.692 62.5149 6.264 62.5149 5.8C62.5149 5.336 62.4309 4.908 62.2629 4.516C62.1029 4.124 61.8749 3.784 61.5789 3.496C61.2909 3.2 60.9469 2.972 60.5469 2.812C60.1549 2.652 59.7269 2.572 59.2629 2.572C58.7909 2.572 58.3549 2.652 57.9549 2.812C57.5629 2.972 57.2189 3.2 56.9229 3.496C56.6269 3.784 56.3949 4.124 56.2269 4.516C56.0669 4.908 55.9869 5.336 55.9869 5.8C55.9869 6.264 56.0669 6.692 56.2269 7.084C56.3949 7.476 56.6269 7.82 56.9229 8.116C57.2189 8.404 57.5629 8.628 57.9549 8.788C58.3549 8.948 58.7909 9.028 59.2629 9.028ZM65.5491 10V3.076C65.5491 2.452 65.7291 1.956 66.0891 1.588C66.4571 1.212 66.9771 1.024 67.6491 1.024C67.8971 1.024 68.1331 1.056 68.3571 1.12C68.5891 1.176 68.7851 1.268 68.9451 1.396L68.5971 2.272C68.4771 2.176 68.3411 2.104 68.1891 2.056C68.0371 2 67.8771 1.972 67.7091 1.972C67.3731 1.972 67.1171 2.068 66.9411 2.26C66.7651 2.444 66.6771 2.72 66.6771 3.088V3.94L66.7011 4.468V10H65.5491ZM64.4691 4.588V3.64H68.5251V4.588H64.4691ZM74.6702 10V2.644H71.7902V1.6H78.7382V2.644H75.8582V10H74.6702ZM79.7248 10V3.64H80.8288V5.368L80.7208 4.936C80.8968 4.496 81.1928 4.16 81.6088 3.928C82.0248 3.696 82.5368 3.58 83.1448 3.58V4.696C83.0968 4.688 83.0488 4.684 83.0008 4.684C82.9608 4.684 82.9208 4.684 82.8808 4.684C82.2648 4.684 81.7768 4.868 81.4168 5.236C81.0568 5.604 80.8768 6.136 80.8768 6.832V10H79.7248ZM88.0439 10V8.656L87.9839 8.404V6.112C87.9839 5.624 87.8399 5.248 87.5519 4.984C87.2719 4.712 86.8479 4.576 86.2799 4.576C85.9039 4.576 85.5359 4.64 85.1759 4.768C84.8159 4.888 84.5119 5.052 84.2639 5.26L83.7839 4.396C84.1119 4.132 84.5039 3.932 84.9599 3.796C85.4239 3.652 85.9079 3.58 86.4119 3.58C87.2839 3.58 87.9559 3.792 88.4279 4.216C88.8999 4.64 89.1359 5.288 89.1359 6.16V10H88.0439ZM85.9559 10.072C85.4839 10.072 85.0679 9.992 84.7079 9.832C84.3559 9.672 84.0839 9.452 83.8919 9.172C83.6999 8.884 83.6039 8.56 83.6039 8.2C83.6039 7.856 83.6839 7.544 83.8439 7.264C84.0119 6.984 84.2799 6.76 84.6479 6.592C85.0239 6.424 85.5279 6.34 86.1599 6.34H88.1759V7.168H86.2079C85.6319 7.168 85.2439 7.264 85.0439 7.456C84.8439 7.648 84.7439 7.88 84.7439 8.152C84.7439 8.464 84.8679 8.716 85.1159 8.908C85.3639 9.092 85.7079 9.184 86.1479 9.184C86.5799 9.184 86.9559 9.088 87.2759 8.896C87.6039 8.704 87.8399 8.424 87.9839 8.056L88.2119 8.848C88.0599 9.224 87.7919 9.524 87.4079 9.748C87.0239 9.964 86.5399 10.072 85.9559 10.072ZM92.8186 10L90.0346 3.64H91.2346L93.7066 9.4H93.1306L95.6506 3.64H96.7786L93.9946 10H92.8186ZM100.51 10.072C99.8299 10.072 99.2299 9.932 98.7099 9.652C98.1979 9.372 97.7979 8.988 97.5099 8.5C97.2299 8.012 97.0899 7.452 97.0899 6.82C97.0899 6.188 97.2259 5.628 97.4979 5.14C97.7779 4.652 98.1579 4.272 98.6379 4C99.1259 3.72 99.6739 3.58 100.282 3.58C100.898 3.58 101.442 3.716 101.914 3.988C102.386 4.26 102.754 4.644 103.018 5.14C103.29 5.628 103.426 6.2 103.426 6.856C103.426 6.904 103.422 6.96 103.414 7.024C103.414 7.088 103.41 7.148 103.402 7.204H97.9899V6.376H102.802L102.334 6.664C102.342 6.256 102.258 5.892 102.082 5.572C101.906 5.252 101.662 5.004 101.35 4.828C101.046 4.644 100.69 4.552 100.282 4.552C99.8819 4.552 99.5259 4.644 99.2139 4.828C98.9019 5.004 98.6579 5.256 98.4819 5.584C98.3059 5.904 98.2179 6.272 98.2179 6.688V6.88C98.2179 7.304 98.3139 7.684 98.5059 8.02C98.7059 8.348 98.9819 8.604 99.3339 8.788C99.6859 8.972 100.09 9.064 100.546 9.064C100.922 9.064 101.262 9 101.566 8.872C101.878 8.744 102.15 8.552 102.382 8.296L103.018 9.04C102.73 9.376 102.37 9.632 101.938 9.808C101.514 9.984 101.038 10.072 100.51 10.072ZM105.026 10V1.096H106.178V10H105.026ZM111.209 10.072C110.529 10.072 109.929 9.932 109.409 9.652C108.897 9.372 108.497 8.988 108.209 8.5C107.929 8.012 107.789 7.452 107.789 6.82C107.789 6.188 107.925 5.628 108.197 5.14C108.477 4.652 108.857 4.272 109.337 4C109.825 3.72 110.373 3.58 110.981 3.58C111.597 3.58 112.141 3.716 112.613 3.988C113.085 4.26 113.453 4.644 113.717 5.14C113.989 5.628 114.125 6.2 114.125 6.856C114.125 6.904 114.121 6.96 114.113 7.024C114.113 7.088 114.109 7.148 114.101 7.204H108.689V6.376H113.501L113.033 6.664C113.041 6.256 112.957 5.892 112.781 5.572C112.605 5.252 112.361 5.004 112.049 4.828C111.745 4.644 111.389 4.552 110.981 4.552C110.581 4.552 110.225 4.644 109.913 4.828C109.601 5.004 109.357 5.256 109.181 5.584C109.005 5.904 108.917 6.272 108.917 6.688V6.88C108.917 7.304 109.013 7.684 109.205 8.02C109.405 8.348 109.681 8.604 110.033 8.788C110.385 8.972 110.789 9.064 111.245 9.064C111.621 9.064 111.961 9 112.265 8.872C112.577 8.744 112.849 8.552 113.081 8.296L113.717 9.04C113.429 9.376 113.069 9.632 112.637 9.808C112.213 9.984 111.737 10.072 111.209 10.072ZM115.725 10V3.64H116.829V5.368L116.721 4.936C116.897 4.496 117.193 4.16 117.609 3.928C118.025 3.696 118.537 3.58 119.145 3.58V4.696C119.097 4.688 119.049 4.684 119.001 4.684C118.961 4.684 118.921 4.684 118.881 4.684C118.265 4.684 117.777 4.868 117.417 5.236C117.057 5.604 116.877 6.136 116.877 6.832V10H115.725ZM122.459 10.072C121.931 10.072 121.427 10 120.947 9.856C120.475 9.712 120.103 9.536 119.831 9.328L120.311 8.416C120.583 8.6 120.919 8.756 121.319 8.884C121.719 9.012 122.127 9.076 122.543 9.076C123.079 9.076 123.463 9 123.695 8.848C123.935 8.696 124.055 8.484 124.055 8.212C124.055 8.012 123.983 7.856 123.839 7.744C123.695 7.632 123.503 7.548 123.263 7.492C123.031 7.436 122.771 7.388 122.483 7.348C122.195 7.3 121.907 7.244 121.619 7.18C121.331 7.108 121.067 7.012 120.827 6.892C120.587 6.764 120.395 6.592 120.251 6.376C120.107 6.152 120.035 5.856 120.035 5.488C120.035 5.104 120.143 4.768 120.359 4.48C120.575 4.192 120.879 3.972 121.271 3.82C121.671 3.66 122.143 3.58 122.687 3.58C123.103 3.58 123.523 3.632 123.947 3.736C124.379 3.832 124.731 3.972 125.003 4.156L124.511 5.068C124.223 4.876 123.923 4.744 123.611 4.672C123.299 4.6 122.987 4.564 122.675 4.564C122.171 4.564 121.795 4.648 121.547 4.816C121.299 4.976 121.175 5.184 121.175 5.44C121.175 5.656 121.247 5.824 121.391 5.944C121.543 6.056 121.735 6.144 121.967 6.208C122.207 6.272 122.471 6.328 122.759 6.376C123.047 6.416 123.335 6.472 123.623 6.544C123.911 6.608 124.171 6.7 124.403 6.82C124.643 6.94 124.835 7.108 124.979 7.324C125.131 7.54 125.207 7.828 125.207 8.188C125.207 8.572 125.095 8.904 124.871 9.184C124.647 9.464 124.331 9.684 123.923 9.844C123.515 9.996 123.027 10.072 122.459 10.072ZM128.091 7.348C128.091 7.036 128.143 6.764 128.247 6.532C128.351 6.3 128.479 6.092 128.631 5.908C128.791 5.724 128.963 5.556 129.147 5.404C129.331 5.244 129.503 5.088 129.663 4.936C129.823 4.776 129.951 4.608 130.047 4.432C130.151 4.256 130.203 4.052 130.203 3.82C130.203 3.436 130.051 3.124 129.747 2.884C129.443 2.644 129.023 2.524 128.487 2.524C128.007 2.524 127.591 2.604 127.239 2.764C126.887 2.924 126.587 3.16 126.339 3.472L125.463 2.848C125.799 2.424 126.227 2.096 126.747 1.864C127.267 1.624 127.875 1.504 128.571 1.504C129.147 1.504 129.647 1.592 130.071 1.768C130.495 1.936 130.823 2.18 131.055 2.5C131.295 2.812 131.415 3.192 131.415 3.64C131.415 3.976 131.363 4.264 131.259 4.504C131.155 4.744 131.023 4.956 130.863 5.14C130.703 5.324 130.531 5.496 130.347 5.656C130.171 5.816 130.003 5.976 129.843 6.136C129.683 6.296 129.551 6.472 129.447 6.664C129.343 6.856 129.291 7.084 129.291 7.348H128.091ZM128.703 10.072C128.479 10.072 128.291 9.996 128.139 9.844C127.995 9.692 127.923 9.512 127.923 9.304C127.923 9.08 127.995 8.896 128.139 8.752C128.291 8.608 128.479 8.536 128.703 8.536C128.927 8.536 129.111 8.608 129.255 8.752C129.399 8.896 129.471 9.08 129.471 9.304C129.471 9.512 129.399 9.692 129.255 9.844C129.111 9.996 128.927 10.072 128.703 10.072Z" fill="#767676"/>
<rect x="0.5" y="24.5" width="220" height="49" rx="12.5" stroke="#CECECE"/>
<path d="M21.75 47.5C23.4069 47.5 24.75 46.1569 24.75 44.5C24.75 42.8431 23.4069 41.5 21.75 41.5C20.0931 41.5 18.75 42.8431 18.75 44.5C18.75 46.1569 20.0931 47.5 21.75 47.5Z" fill="#767676"/>
<path d="M21.75 55.75C24.6495 55.75 27 54.4069 27 52.75C27 51.0931 24.6495 49.75 21.75 49.75C18.8505 49.75 16.5 51.0931 16.5 52.75C16.5 54.4069 18.8505 55.75 21.75 55.75Z" fill="#767676"/>
<path d="M30.7483 52.7505C30.7483 53.9932 29.2213 55.0005 27.3576 55.0005C27.9066 54.4005 28.2846 53.6467 28.2846 52.752C28.2846 51.8557 27.9058 51.102 27.3553 50.5012C29.2198 50.5005 30.7483 51.5085 30.7483 52.7505ZM28.4983 44.5005C28.4986 44.8625 28.4114 45.2193 28.2443 45.5404C28.0772 45.8616 27.8351 46.1377 27.5385 46.3453C27.2419 46.5529 26.8996 46.6859 26.5406 46.7329C26.1817 46.7799 25.8166 46.7397 25.4766 46.6155C25.8426 45.9707 26.0346 45.2419 26.0338 44.5005C26.0338 43.7317 25.8313 43.0102 25.4773 42.3862C25.8173 42.2622 26.1823 42.222 26.5411 42.2691C26.9 42.3162 27.2422 42.4492 27.5387 42.6568C27.8352 42.8644 28.0773 43.1404 28.2443 43.4615C28.4114 43.7826 28.4985 44.1385 28.4983 44.5005Z" fill="#767676"/>
<path d="M44.6719 46.4929C44.6188 46.0223 44.4001 45.6577 44.0156 45.3991C43.6312 45.1373 43.1473 45.0064 42.5639 45.0064C42.1463 45.0064 41.785 45.0727 41.4801 45.2053C41.1752 45.3345 40.9382 45.5135 40.7692 45.7422C40.6035 45.9676 40.5206 46.2244 40.5206 46.5128C40.5206 46.7547 40.5769 46.9635 40.6896 47.1392C40.8056 47.3149 40.9564 47.4624 41.142 47.5817C41.331 47.6977 41.5331 47.7955 41.7486 47.875C41.964 47.9512 42.1712 48.0142 42.37 48.0639L43.3643 48.3224C43.6892 48.402 44.0223 48.5097 44.3636 48.6456C44.705 48.7815 45.0215 48.9605 45.3132 49.1825C45.6049 49.4046 45.8402 49.6797 46.0192 50.0078C46.2015 50.3359 46.2926 50.7287 46.2926 51.1861C46.2926 51.7628 46.1435 52.2749 45.8452 52.7223C45.5502 53.1697 45.121 53.5227 44.5575 53.7812C43.9974 54.0398 43.3196 54.169 42.5241 54.169C41.7618 54.169 41.1023 54.0481 40.5455 53.8061C39.9886 53.5642 39.5528 53.2211 39.2379 52.777C38.9231 52.3295 38.7491 51.7992 38.7159 51.1861H40.2571C40.2869 51.554 40.4063 51.8606 40.6151 52.1058C40.8272 52.3478 41.0973 52.5284 41.4254 52.6477C41.7569 52.7637 42.1198 52.8217 42.5142 52.8217C42.9484 52.8217 43.3345 52.7538 43.6726 52.6179C44.014 52.4787 44.2824 52.2865 44.478 52.0412C44.6735 51.7926 44.7713 51.5026 44.7713 51.1712C44.7713 50.8696 44.6851 50.6226 44.5128 50.4304C44.3438 50.2382 44.1134 50.0791 43.8217 49.9531C43.5334 49.8272 43.2069 49.7161 42.8423 49.62L41.6392 49.2919C40.8239 49.0698 40.1776 48.7434 39.7003 48.3125C39.2263 47.8816 38.9893 47.3116 38.9893 46.6023C38.9893 46.0156 39.1484 45.5036 39.4666 45.0661C39.7848 44.6286 40.2157 44.2888 40.7592 44.0469C41.3028 43.8016 41.916 43.679 42.5987 43.679C43.2881 43.679 43.8963 43.8 44.4233 44.0419C44.9536 44.2839 45.3712 44.617 45.6761 45.0412C45.9811 45.4621 46.1402 45.946 46.1534 46.4929H44.6719ZM51.3002 54.1541C50.5479 54.1541 49.8999 53.9934 49.3564 53.6719C48.8161 53.3471 48.3985 52.8913 48.1035 52.3047C47.8118 51.7147 47.666 51.0237 47.666 50.2315C47.666 49.4493 47.8118 48.7599 48.1035 48.1634C48.3985 47.5668 48.8095 47.1011 49.3365 46.7663C49.8668 46.4316 50.4866 46.2642 51.1958 46.2642C51.6267 46.2642 52.0443 46.3355 52.4487 46.478C52.853 46.6205 53.216 46.8442 53.5375 47.1491C53.859 47.4541 54.1125 47.8501 54.2981 48.3374C54.4837 48.8213 54.5765 49.4096 54.5765 50.1023V50.6293H48.5062V49.5156H53.1199C53.1199 49.1245 53.0403 48.7782 52.8812 48.4766C52.7221 48.1716 52.4984 47.9313 52.21 47.7557C51.925 47.58 51.5903 47.4922 51.2058 47.4922C50.7882 47.4922 50.4236 47.5949 50.112 47.8004C49.8038 48.0026 49.5652 48.2678 49.3961 48.5959C49.2304 48.9207 49.1475 49.2737 49.1475 49.6548V50.5249C49.1475 51.0353 49.237 51.4695 49.416 51.8274C49.5983 52.1854 49.8519 52.4588 50.1767 52.6477C50.5015 52.8333 50.881 52.9261 51.3152 52.9261C51.5969 52.9261 51.8538 52.8864 52.0858 52.8068C52.3178 52.724 52.5183 52.6013 52.6873 52.4389C52.8564 52.2765 52.9856 52.076 53.0751 51.8374L54.4821 52.0909C54.3694 52.5052 54.1672 52.8681 53.8755 53.1797C53.5872 53.4879 53.2243 53.7282 52.7868 53.9006C52.3526 54.0696 51.8571 54.1541 51.3002 54.1541ZM57.7124 43.8182V54H56.2259V43.8182H57.7124ZM63.0034 54.1541C62.251 54.1541 61.603 53.9934 61.0595 53.6719C60.5192 53.3471 60.1016 52.8913 59.8066 52.3047C59.515 51.7147 59.3691 51.0237 59.3691 50.2315C59.3691 49.4493 59.515 48.7599 59.8066 48.1634C60.1016 47.5668 60.5126 47.1011 61.0396 46.7663C61.5699 46.4316 62.1897 46.2642 62.899 46.2642C63.3298 46.2642 63.7475 46.3355 64.1518 46.478C64.5562 46.6205 64.9191 46.8442 65.2406 47.1491C65.5621 47.4541 65.8156 47.8501 66.0012 48.3374C66.1868 48.8213 66.2797 49.4096 66.2797 50.1023V50.6293H60.2093V49.5156H64.823C64.823 49.1245 64.7434 48.7782 64.5843 48.4766C64.4252 48.1716 64.2015 47.9313 63.9132 47.7557C63.6281 47.58 63.2934 47.4922 62.9089 47.4922C62.4913 47.4922 62.1267 47.5949 61.8152 47.8004C61.5069 48.0026 61.2683 48.2678 61.0993 48.5959C60.9335 48.9207 60.8507 49.2737 60.8507 49.6548V50.5249C60.8507 51.0353 60.9402 51.4695 61.1191 51.8274C61.3014 52.1854 61.555 52.4588 61.8798 52.6477C62.2046 52.8333 62.5841 52.9261 63.0183 52.9261C63.3 52.9261 63.5569 52.8864 63.7889 52.8068C64.0209 52.724 64.2214 52.6013 64.3904 52.4389C64.5595 52.2765 64.6887 52.076 64.7782 51.8374L66.1852 52.0909C66.0725 52.5052 65.8703 52.8681 65.5787 53.1797C65.2903 53.4879 64.9274 53.7282 64.4899 53.9006C64.0557 54.0696 63.5602 54.1541 63.0034 54.1541ZM71.1456 54.1541C70.4065 54.1541 69.7701 53.9867 69.2365 53.652C68.7062 53.3139 68.2985 52.8482 68.0135 52.255C67.7285 51.6617 67.5859 50.9822 67.5859 50.2166C67.5859 49.4411 67.7318 48.7566 68.0234 48.1634C68.3151 47.5668 68.7261 47.1011 69.2564 46.7663C69.7867 46.4316 70.4115 46.2642 71.1307 46.2642C71.7107 46.2642 72.2277 46.3719 72.6818 46.5874C73.1359 46.7995 73.5021 47.0978 73.7805 47.4822C74.0623 47.8667 74.2296 48.3158 74.2827 48.8295H72.8359C72.7564 48.4716 72.5741 48.1634 72.2891 47.9048C72.0073 47.6463 71.6295 47.517 71.1555 47.517C70.7412 47.517 70.3783 47.6264 70.0668 47.8452C69.7585 48.0606 69.5182 48.3688 69.3459 48.7699C69.1735 49.1676 69.0874 49.6383 69.0874 50.1818C69.0874 50.7386 69.1719 51.2192 69.3409 51.6236C69.5099 52.0279 69.7486 52.3411 70.0568 52.5632C70.3684 52.7853 70.7346 52.8963 71.1555 52.8963C71.4373 52.8963 71.6925 52.8449 71.9212 52.7422C72.1532 52.6361 72.3471 52.4853 72.5028 52.2898C72.6619 52.0942 72.773 51.8589 72.8359 51.5838H74.2827C74.2296 52.0777 74.0689 52.5185 73.8004 52.9062C73.532 53.294 73.1723 53.599 72.7216 53.821C72.2741 54.0431 71.7488 54.1541 71.1456 54.1541ZM79.437 46.3636V47.5568H75.2658V46.3636H79.437ZM76.3844 44.5341H77.8709V51.7578C77.8709 52.0462 77.914 52.2633 78.0002 52.4091C78.0864 52.5516 78.1974 52.6494 78.3333 52.7024C78.4725 52.7521 78.6233 52.777 78.7857 52.777C78.905 52.777 79.0094 52.7687 79.0989 52.7521C79.1884 52.7356 79.258 52.7223 79.3077 52.7124L79.5762 53.9403C79.49 53.9735 79.3674 54.0066 79.2083 54.0398C79.0492 54.0762 78.8503 54.0961 78.6117 54.0994C78.2206 54.1061 77.856 54.0365 77.5179 53.8906C77.1799 53.7448 76.9064 53.5194 76.6976 53.2145C76.4888 52.9096 76.3844 52.5268 76.3844 52.0661V44.5341ZM84.4036 45.1406V43.8182H92.2836V45.1406H89.1067V54H87.5755V45.1406H84.4036ZM93.1126 54V46.3636H94.5494V47.5767H94.6289C94.7681 47.1657 95.0134 46.8426 95.3647 46.6072C95.7193 46.3686 96.1204 46.2493 96.5678 46.2493C96.6606 46.2493 96.77 46.2526 96.896 46.2592C97.0252 46.2659 97.1263 46.2741 97.1992 46.2841V47.706C97.1396 47.6894 97.0335 47.6712 96.881 47.6513C96.7286 47.6281 96.5761 47.6165 96.4237 47.6165C96.0723 47.6165 95.7591 47.6911 95.484 47.8402C95.2122 47.986 94.9968 48.1899 94.8377 48.4517C94.6786 48.7102 94.5991 49.0052 94.5991 49.3366V54H93.1126ZM100.64 54.169C100.156 54.169 99.7182 54.0795 99.3271 53.9006C98.936 53.7183 98.6261 53.4548 98.3974 53.1101C98.172 52.7654 98.0593 52.3428 98.0593 51.8423C98.0593 51.4115 98.1422 51.0568 98.3079 50.7784C98.4736 50.5 98.6973 50.2796 98.979 50.1172C99.2608 49.9548 99.5756 49.8321 99.9237 49.7493C100.272 49.6664 100.626 49.6035 100.988 49.5604C101.445 49.5073 101.816 49.4643 102.101 49.4311C102.386 49.3946 102.593 49.3366 102.723 49.2571C102.852 49.1776 102.917 49.0483 102.917 48.8693V48.8345C102.917 48.4003 102.794 48.0639 102.549 47.8253C102.307 47.5866 101.945 47.4673 101.465 47.4673C100.964 47.4673 100.57 47.5784 100.282 47.8004C99.9966 48.0192 99.7994 48.2628 99.69 48.5312L98.293 48.2131C98.4587 47.7491 98.7006 47.3745 99.0188 47.0895C99.3403 46.8011 99.7099 46.5923 100.127 46.4631C100.545 46.3305 100.984 46.2642 101.445 46.2642C101.75 46.2642 102.073 46.3007 102.414 46.3736C102.759 46.4432 103.081 46.5724 103.379 46.7614C103.681 46.9503 103.927 47.2204 104.12 47.5717C104.312 47.9197 104.408 48.3722 104.408 48.929V54H102.956V52.956H102.897C102.801 53.1482 102.656 53.3371 102.464 53.5227C102.272 53.7083 102.025 53.8625 101.723 53.9851C101.422 54.1077 101.06 54.169 100.64 54.169ZM100.963 52.9759C101.374 52.9759 101.725 52.8946 102.017 52.7322C102.312 52.5698 102.535 52.3577 102.688 52.0959C102.844 51.8307 102.922 51.5473 102.922 51.2457V50.2614C102.868 50.3144 102.766 50.3641 102.613 50.4105C102.464 50.4536 102.293 50.4917 102.101 50.5249C101.909 50.5547 101.722 50.5829 101.539 50.6094C101.357 50.6326 101.205 50.6525 101.082 50.669C100.794 50.7055 100.53 50.7668 100.292 50.853C100.056 50.9392 99.8673 51.0634 99.7248 51.2259C99.5856 51.3849 99.516 51.5971 99.516 51.8622C99.516 52.2301 99.6519 52.5085 99.9237 52.6974C100.195 52.883 100.542 52.9759 100.963 52.9759ZM112.647 46.3636L109.878 54H108.287L105.513 46.3636H107.109L109.043 52.2401H109.122L111.051 46.3636H112.647ZM117.076 54.1541C116.323 54.1541 115.675 53.9934 115.132 53.6719C114.592 53.3471 114.174 52.8913 113.879 52.3047C113.587 51.7147 113.441 51.0237 113.441 50.2315C113.441 49.4493 113.587 48.7599 113.879 48.1634C114.174 47.5668 114.585 47.1011 115.112 46.7663C115.642 46.4316 116.262 46.2642 116.971 46.2642C117.402 46.2642 117.82 46.3355 118.224 46.478C118.628 46.6205 118.991 46.8442 119.313 47.1491C119.634 47.4541 119.888 47.8501 120.074 48.3374C120.259 48.8213 120.352 49.4096 120.352 50.1023V50.6293H114.282V49.5156H118.895C118.895 49.1245 118.816 48.7782 118.657 48.4766C118.498 48.1716 118.274 47.9313 117.985 47.7557C117.7 47.58 117.366 47.4922 116.981 47.4922C116.564 47.4922 116.199 47.5949 115.887 47.8004C115.579 48.0026 115.341 48.2678 115.172 48.5959C115.006 48.9207 114.923 49.2737 114.923 49.6548V50.5249C114.923 51.0353 115.012 51.4695 115.191 51.8274C115.374 52.1854 115.627 52.4588 115.952 52.6477C116.277 52.8333 116.656 52.9261 117.091 52.9261C117.372 52.9261 117.629 52.8864 117.861 52.8068C118.093 52.724 118.294 52.6013 118.463 52.4389C118.632 52.2765 118.761 52.076 118.85 51.8374L120.257 52.0909C120.145 52.5052 119.943 52.8681 119.651 53.1797C119.363 53.4879 119 53.7282 118.562 53.9006C118.128 54.0696 117.632 54.1541 117.076 54.1541ZM123.488 43.8182V54H122.001V43.8182H123.488ZM128.779 54.1541C128.026 54.1541 127.378 53.9934 126.835 53.6719C126.295 53.3471 125.877 52.8913 125.582 52.3047C125.29 51.7147 125.145 51.0237 125.145 50.2315C125.145 49.4493 125.29 48.7599 125.582 48.1634C125.877 47.5668 126.288 47.1011 126.815 46.7663C127.345 46.4316 127.965 46.2642 128.674 46.2642C129.105 46.2642 129.523 46.3355 129.927 46.478C130.332 46.6205 130.694 46.8442 131.016 47.1491C131.337 47.4541 131.591 47.8501 131.777 48.3374C131.962 48.8213 132.055 49.4096 132.055 50.1023V50.6293H125.985V49.5156H130.598C130.598 49.1245 130.519 48.7782 130.36 48.4766C130.201 48.1716 129.977 47.9313 129.689 47.7557C129.404 47.58 129.069 47.4922 128.684 47.4922C128.267 47.4922 127.902 47.5949 127.591 47.8004C127.282 48.0026 127.044 48.2678 126.875 48.5959C126.709 48.9207 126.626 49.2737 126.626 49.6548V50.5249C126.626 51.0353 126.716 51.4695 126.895 51.8274C127.077 52.1854 127.33 52.4588 127.655 52.6477C127.98 52.8333 128.359 52.9261 128.794 52.9261C129.075 52.9261 129.332 52.8864 129.564 52.8068C129.796 52.724 129.997 52.6013 130.166 52.4389C130.335 52.2765 130.464 52.076 130.554 51.8374L131.961 52.0909C131.848 52.5052 131.646 52.8681 131.354 53.1797C131.066 53.4879 130.703 53.7282 130.265 53.9006C129.831 54.0696 129.336 54.1541 128.779 54.1541ZM133.704 54V46.3636H135.141V47.5767H135.221C135.36 47.1657 135.605 46.8426 135.956 46.6072C136.311 46.3686 136.712 46.2493 137.16 46.2493C137.252 46.2493 137.362 46.2526 137.488 46.2592C137.617 46.2659 137.718 46.2741 137.791 46.2841V47.706C137.731 47.6894 137.625 47.6712 137.473 47.6513C137.32 47.6281 137.168 47.6165 137.015 47.6165C136.664 47.6165 136.351 47.6911 136.076 47.8402C135.804 47.986 135.589 48.1899 135.43 48.4517C135.27 48.7102 135.191 49.0052 135.191 49.3366V54H133.704ZM144.8 48.228L143.452 48.4666C143.396 48.2943 143.307 48.1302 143.184 47.9744C143.065 47.8187 142.902 47.6911 142.697 47.5916C142.491 47.4922 142.234 47.4425 141.926 47.4425C141.505 47.4425 141.154 47.5369 140.872 47.7259C140.59 47.9115 140.45 48.1518 140.45 48.4467C140.45 48.7019 140.544 48.9074 140.733 49.0632C140.922 49.219 141.227 49.3466 141.648 49.446L142.861 49.7244C143.563 49.8868 144.087 50.1371 144.432 50.4751C144.777 50.8132 144.949 51.2524 144.949 51.7926C144.949 52.25 144.816 52.6577 144.551 53.0156C144.289 53.3703 143.923 53.6487 143.452 53.8509C142.985 54.053 142.443 54.1541 141.827 54.1541C140.972 54.1541 140.274 53.9718 139.734 53.6072C139.193 53.2393 138.862 52.7173 138.739 52.0412L140.176 51.8224C140.266 52.197 140.45 52.4804 140.728 52.6726C141.006 52.8615 141.369 52.956 141.817 52.956C142.304 52.956 142.693 52.8549 142.985 52.6527C143.277 52.4472 143.423 52.197 143.423 51.902C143.423 51.6634 143.333 51.4628 143.154 51.3004C142.978 51.138 142.708 51.0154 142.344 50.9325L141.051 50.6491C140.339 50.4867 139.812 50.2282 139.47 49.8736C139.132 49.5189 138.963 49.0698 138.963 48.5263C138.963 48.0755 139.089 47.6811 139.341 47.343C139.593 47.005 139.941 46.7415 140.385 46.5526C140.829 46.3603 141.338 46.2642 141.911 46.2642C142.737 46.2642 143.386 46.4432 143.86 46.8011C144.334 47.1558 144.647 47.6314 144.8 48.228Z" fill="#767676"/>
<path d="M198.25 47.5L202 51.25L205.75 47.5" stroke="#767676" stroke-width="1.5" stroke-linecap="round" stroke-linejoin="round"/>
</svg>
