<svg width="221" height="74" viewBox="0 0 221 74" fill="none" xmlns="http://www.w3.org/2000/svg">
<path d="M3.708 10.096C3.068 10.096 2.456 10 1.872 9.808C1.288 9.608 0.828 9.352 0.492 9.04L0.936 8.104C1.256 8.384 1.664 8.616 2.16 8.8C2.656 8.984 3.172 9.076 3.708 9.076C4.196 9.076 4.592 9.02 4.896 8.908C5.2 8.796 5.424 8.644 5.568 8.452C5.712 8.252 5.784 8.028 5.784 7.78C5.784 7.492 5.688 7.26 5.496 7.084C5.312 6.908 5.068 6.768 4.764 6.664C4.468 6.552 4.14 6.456 3.78 6.376C3.42 6.296 3.056 6.204 2.688 6.1C2.328 5.988 1.996 5.848 1.692 5.68C1.396 5.512 1.156 5.288 0.972 5.008C0.788 4.72 0.696 4.352 0.696 3.904C0.696 3.472 0.808 3.076 1.032 2.716C1.264 2.348 1.616 2.056 2.088 1.84C2.568 1.616 3.176 1.504 3.912 1.504C4.4 1.504 4.884 1.568 5.364 1.696C5.844 1.824 6.26 2.008 6.612 2.248L6.216 3.208C5.856 2.968 5.476 2.796 5.076 2.692C4.676 2.58 4.288 2.524 3.912 2.524C3.44 2.524 3.052 2.584 2.748 2.704C2.444 2.824 2.22 2.984 2.076 3.184C1.94 3.384 1.872 3.608 1.872 3.856C1.872 4.152 1.964 4.388 2.148 4.564C2.34 4.74 2.584 4.88 2.88 4.984C3.184 5.088 3.516 5.184 3.876 5.272C4.236 5.352 4.596 5.444 4.956 5.548C5.324 5.652 5.656 5.788 5.952 5.956C6.256 6.124 6.5 6.348 6.684 6.628C6.868 6.908 6.96 7.268 6.96 7.708C6.96 8.132 6.844 8.528 6.612 8.896C6.38 9.256 6.02 9.548 5.532 9.772C5.052 9.988 4.444 10.096 3.708 10.096ZM11.3771 10.072C10.6971 10.072 10.0971 9.932 9.57713 9.652C9.06513 9.372 8.66513 8.988 8.37713 8.5C8.09713 8.012 7.95713 7.452 7.95713 6.82C7.95713 6.188 8.09313 5.628 8.36513 5.14C8.64513 4.652 9.02513 4.272 9.50513 4C9.99313 3.72 10.5411 3.58 11.1491 3.58C11.7651 3.58 12.3091 3.716 12.7811 3.988C13.2531 4.26 13.6211 4.644 13.8851 5.14C14.1571 5.628 14.2931 6.2 14.2931 6.856C14.2931 6.904 14.2891 6.96 14.2811 7.024C14.2811 7.088 14.2771 7.148 14.2691 7.204H8.85713V6.376H13.6691L13.2011 6.664C13.2091 6.256 13.1251 5.892 12.9491 5.572C12.7731 5.252 12.5291 5.004 12.2171 4.828C11.9131 4.644 11.5571 4.552 11.1491 4.552C10.7491 4.552 10.3931 4.644 10.0811 4.828C9.76913 5.004 9.52513 5.256 9.34913 5.584C9.17313 5.904 9.08513 6.272 9.08513 6.688V6.88C9.08513 7.304 9.18113 7.684 9.37313 8.02C9.57313 8.348 9.84913 8.604 10.2011 8.788C10.5531 8.972 10.9571 9.064 11.4131 9.064C11.7891 9.064 12.1291 9 12.4331 8.872C12.7451 8.744 13.0171 8.552 13.2491 8.296L13.8851 9.04C13.5971 9.376 13.2371 9.632 12.8051 9.808C12.3811 9.984 11.9051 10.072 11.3771 10.072ZM15.8928 10V1.096H17.0448V10H15.8928ZM22.0763 10.072C21.3963 10.072 20.7963 9.932 20.2763 9.652C19.7643 9.372 19.3643 8.988 19.0763 8.5C18.7963 8.012 18.6563 7.452 18.6563 6.82C18.6563 6.188 18.7923 5.628 19.0643 5.14C19.3443 4.652 19.7243 4.272 20.2043 4C20.6923 3.72 21.2403 3.58 21.8483 3.58C22.4643 3.58 23.0083 3.716 23.4803 3.988C23.9523 4.26 24.3203 4.644 24.5843 5.14C24.8563 5.628 24.9923 6.2 24.9923 6.856C24.9923 6.904 24.9883 6.96 24.9803 7.024C24.9803 7.088 24.9763 7.148 24.9683 7.204H19.5563V6.376H24.3683L23.9003 6.664C23.9083 6.256 23.8243 5.892 23.6483 5.572C23.4723 5.252 23.2283 5.004 22.9163 4.828C22.6123 4.644 22.2563 4.552 21.8483 4.552C21.4483 4.552 21.0923 4.644 20.7803 4.828C20.4683 5.004 20.2243 5.256 20.0483 5.584C19.8723 5.904 19.7843 6.272 19.7843 6.688V6.88C19.7843 7.304 19.8803 7.684 20.0723 8.02C20.2723 8.348 20.5483 8.604 20.9003 8.788C21.2523 8.972 21.6563 9.064 22.1123 9.064C22.4883 9.064 22.8283 9 23.1323 8.872C23.4443 8.744 23.7163 8.552 23.9483 8.296L24.5843 9.04C24.2963 9.376 23.9363 9.632 23.5043 9.808C23.0803 9.984 22.6043 10.072 22.0763 10.072ZM29.364 10.072C28.716 10.072 28.136 9.932 27.624 9.652C27.12 9.372 26.724 8.988 26.436 8.5C26.148 8.012 26.004 7.452 26.004 6.82C26.004 6.188 26.148 5.628 26.436 5.14C26.724 4.652 27.12 4.272 27.624 4C28.136 3.72 28.716 3.58 29.364 3.58C29.94 3.58 30.452 3.696 30.9 3.928C31.356 4.152 31.708 4.488 31.956 4.936L31.08 5.5C30.872 5.188 30.616 4.96 30.312 4.816C30.016 4.664 29.696 4.588 29.352 4.588C28.936 4.588 28.564 4.68 28.236 4.864C27.908 5.048 27.648 5.308 27.456 5.644C27.264 5.972 27.168 6.364 27.168 6.82C27.168 7.276 27.264 7.672 27.456 8.008C27.648 8.344 27.908 8.604 28.236 8.788C28.564 8.972 28.936 9.064 29.352 9.064C29.696 9.064 30.016 8.992 30.312 8.848C30.616 8.696 30.872 8.464 31.08 8.152L31.956 8.704C31.708 9.144 31.356 9.484 30.9 9.724C30.452 9.956 29.94 10.072 29.364 10.072ZM35.7135 10.072C35.0735 10.072 34.5775 9.9 34.2255 9.556C33.8735 9.212 33.6975 8.72 33.6975 8.08V2.248H34.8495V8.032C34.8495 8.376 34.9335 8.64 35.1015 8.824C35.2775 9.008 35.5255 9.1 35.8455 9.1C36.2055 9.1 36.5055 9 36.7455 8.8L37.1055 9.628C36.9295 9.78 36.7175 9.892 36.4695 9.964C36.2295 10.036 35.9775 10.072 35.7135 10.072ZM32.6175 4.588V3.64H36.6735V4.588H32.6175ZM41.8889 10V1.6H45.4289C46.3249 1.6 47.1129 1.776 47.7929 2.128C48.4809 2.48 49.0129 2.972 49.3889 3.604C49.7729 4.236 49.9649 4.968 49.9649 5.8C49.9649 6.632 49.7729 7.364 49.3889 7.996C49.0129 8.628 48.4809 9.12 47.7929 9.472C47.1129 9.824 46.3249 10 45.4289 10H41.8889ZM43.0889 8.956H45.3569C46.0529 8.956 46.6529 8.824 47.1569 8.56C47.6689 8.296 48.0649 7.928 48.3449 7.456C48.6249 6.976 48.7649 6.424 48.7649 5.8C48.7649 5.168 48.6249 4.616 48.3449 4.144C48.0649 3.672 47.6689 3.304 47.1569 3.04C46.6529 2.776 46.0529 2.644 45.3569 2.644H43.0889V8.956ZM55.583 10V8.656L55.523 8.404V6.112C55.523 5.624 55.379 5.248 55.091 4.984C54.811 4.712 54.387 4.576 53.819 4.576C53.443 4.576 53.075 4.64 52.715 4.768C52.355 4.888 52.051 5.052 51.803 5.26L51.323 4.396C51.651 4.132 52.043 3.932 52.499 3.796C52.963 3.652 53.447 3.58 53.951 3.58C54.823 3.58 55.495 3.792 55.967 4.216C56.439 4.64 56.675 5.288 56.675 6.16V10H55.583ZM53.495 10.072C53.023 10.072 52.607 9.992 52.247 9.832C51.895 9.672 51.623 9.452 51.431 9.172C51.239 8.884 51.143 8.56 51.143 8.2C51.143 7.856 51.223 7.544 51.383 7.264C51.551 6.984 51.819 6.76 52.187 6.592C52.563 6.424 53.067 6.34 53.699 6.34H55.715V7.168H53.747C53.171 7.168 52.783 7.264 52.583 7.456C52.383 7.648 52.283 7.88 52.283 8.152C52.283 8.464 52.407 8.716 52.655 8.908C52.903 9.092 53.247 9.184 53.687 9.184C54.119 9.184 54.495 9.088 54.815 8.896C55.143 8.704 55.379 8.424 55.523 8.056L55.751 8.848C55.599 9.224 55.331 9.524 54.947 9.748C54.563 9.964 54.079 10.072 53.495 10.072ZM60.9908 10.072C60.3508 10.072 59.8548 9.9 59.5028 9.556C59.1508 9.212 58.9748 8.72 58.9748 8.08V2.248H60.1268V8.032C60.1268 8.376 60.2108 8.64 60.3788 8.824C60.5548 9.008 60.8028 9.1 61.1228 9.1C61.4828 9.1 61.7828 9 62.0228 8.8L62.3828 9.628C62.2068 9.78 61.9948 9.892 61.7468 9.964C61.5068 10.036 61.2548 10.072 60.9908 10.072ZM57.8948 4.588V3.64H61.9508V4.588H57.8948ZM66.3967 10.072C65.7167 10.072 65.1167 9.932 64.5967 9.652C64.0847 9.372 63.6847 8.988 63.3967 8.5C63.1167 8.012 62.9767 7.452 62.9767 6.82C62.9767 6.188 63.1127 5.628 63.3847 5.14C63.6647 4.652 64.0447 4.272 64.5247 4C65.0127 3.72 65.5607 3.58 66.1687 3.58C66.7847 3.58 67.3287 3.716 67.8007 3.988C68.2727 4.26 68.6407 4.644 68.9047 5.14C69.1767 5.628 69.3127 6.2 69.3127 6.856C69.3127 6.904 69.3087 6.96 69.3007 7.024C69.3007 7.088 69.2967 7.148 69.2887 7.204H63.8767V6.376H68.6887L68.2207 6.664C68.2287 6.256 68.1447 5.892 67.9687 5.572C67.7927 5.252 67.5487 5.004 67.2367 4.828C66.9327 4.644 66.5767 4.552 66.1687 4.552C65.7687 4.552 65.4127 4.644 65.1007 4.828C64.7887 5.004 64.5447 5.256 64.3687 5.584C64.1927 5.904 64.1047 6.272 64.1047 6.688V6.88C64.1047 7.304 64.2007 7.684 64.3927 8.02C64.5927 8.348 64.8687 8.604 65.2207 8.788C65.5727 8.972 65.9767 9.064 66.4327 9.064C66.8087 9.064 67.1487 9 67.4527 8.872C67.7647 8.744 68.0367 8.552 68.2687 8.296L68.9047 9.04C68.6167 9.376 68.2567 9.632 67.8247 9.808C67.4007 9.984 66.9247 10.072 66.3967 10.072ZM72.7363 10.072C72.2083 10.072 71.7043 10 71.2243 9.856C70.7523 9.712 70.3803 9.536 70.1083 9.328L70.5883 8.416C70.8603 8.6 71.1963 8.756 71.5963 8.884C71.9963 9.012 72.4043 9.076 72.8203 9.076C73.3563 9.076 73.7403 9 73.9723 8.848C74.2123 8.696 74.3323 8.484 74.3323 8.212C74.3323 8.012 74.2603 7.856 74.1163 7.744C73.9723 7.632 73.7803 7.548 73.5403 7.492C73.3083 7.436 73.0483 7.388 72.7603 7.348C72.4723 7.3 72.1843 7.244 71.8963 7.18C71.6083 7.108 71.3443 7.012 71.1043 6.892C70.8643 6.764 70.6723 6.592 70.5283 6.376C70.3843 6.152 70.3123 5.856 70.3123 5.488C70.3123 5.104 70.4203 4.768 70.6363 4.48C70.8523 4.192 71.1563 3.972 71.5483 3.82C71.9483 3.66 72.4203 3.58 72.9643 3.58C73.3803 3.58 73.8003 3.632 74.2243 3.736C74.6563 3.832 75.0083 3.972 75.2803 4.156L74.7883 5.068C74.5003 4.876 74.2003 4.744 73.8883 4.672C73.5763 4.6 73.2643 4.564 72.9523 4.564C72.4483 4.564 72.0723 4.648 71.8243 4.816C71.5763 4.976 71.4523 5.184 71.4523 5.44C71.4523 5.656 71.5243 5.824 71.6683 5.944C71.8203 6.056 72.0123 6.144 72.2443 6.208C72.4843 6.272 72.7483 6.328 73.0363 6.376C73.3243 6.416 73.6123 6.472 73.9003 6.544C74.1883 6.608 74.4483 6.7 74.6803 6.82C74.9203 6.94 75.1123 7.108 75.2563 7.324C75.4083 7.54 75.4843 7.828 75.4843 8.188C75.4843 8.572 75.3723 8.904 75.1483 9.184C74.9243 9.464 74.6083 9.684 74.2003 9.844C73.7923 9.996 73.3043 10.072 72.7363 10.072Z" fill="#767676"/>
<rect x="0.5" y="24.5" width="220" height="49" rx="12.5" stroke="#CECECE"/>
<path d="M21.6719 46.4929C21.6188 46.0223 21.4001 45.6577 21.0156 45.3991C20.6312 45.1373 20.1473 45.0064 19.5639 45.0064C19.1463 45.0064 18.785 45.0727 18.4801 45.2053C18.1752 45.3345 17.9382 45.5135 17.7692 45.7422C17.6035 45.9676 17.5206 46.2244 17.5206 46.5128C17.5206 46.7547 17.5769 46.9635 17.6896 47.1392C17.8056 47.3149 17.9564 47.4624 18.142 47.5817C18.331 47.6977 18.5331 47.7955 18.7486 47.875C18.964 47.9512 19.1712 48.0142 19.37 48.0639L20.3643 48.3224C20.6892 48.402 21.0223 48.5097 21.3636 48.6456C21.705 48.7815 22.0215 48.9605 22.3132 49.1825C22.6049 49.4046 22.8402 49.6797 23.0192 50.0078C23.2015 50.3359 23.2926 50.7287 23.2926 51.1861C23.2926 51.7628 23.1435 52.2749 22.8452 52.7223C22.5502 53.1697 22.121 53.5227 21.5575 53.7812C20.9974 54.0398 20.3196 54.169 19.5241 54.169C18.7618 54.169 18.1023 54.0481 17.5455 53.8061C16.9886 53.5642 16.5528 53.2211 16.2379 52.777C15.9231 52.3295 15.7491 51.7992 15.7159 51.1861H17.2571C17.2869 51.554 17.4063 51.8606 17.6151 52.1058C17.8272 52.3478 18.0973 52.5284 18.4254 52.6477C18.7569 52.7637 19.1198 52.8217 19.5142 52.8217C19.9484 52.8217 20.3345 52.7538 20.6726 52.6179C21.014 52.4787 21.2824 52.2865 21.478 52.0412C21.6735 51.7926 21.7713 51.5026 21.7713 51.1712C21.7713 50.8696 21.6851 50.6226 21.5128 50.4304C21.3438 50.2382 21.1134 50.0791 20.8217 49.9531C20.5334 49.8272 20.2069 49.7161 19.8423 49.62L18.6392 49.2919C17.8239 49.0698 17.1776 48.7434 16.7003 48.3125C16.2263 47.8816 15.9893 47.3116 15.9893 46.6023C15.9893 46.0156 16.1484 45.5036 16.4666 45.0661C16.7848 44.6286 17.2157 44.2888 17.7592 44.0469C18.3028 43.8016 18.916 43.679 19.5987 43.679C20.2881 43.679 20.8963 43.8 21.4233 44.0419C21.9536 44.2839 22.3712 44.617 22.6761 45.0412C22.9811 45.4621 23.1402 45.946 23.1534 46.4929H21.6719ZM28.3002 54.1541C27.5479 54.1541 26.8999 53.9934 26.3564 53.6719C25.8161 53.3471 25.3985 52.8913 25.1035 52.3047C24.8118 51.7147 24.666 51.0237 24.666 50.2315C24.666 49.4493 24.8118 48.7599 25.1035 48.1634C25.3985 47.5668 25.8095 47.1011 26.3365 46.7663C26.8668 46.4316 27.4866 46.2642 28.1958 46.2642C28.6267 46.2642 29.0443 46.3355 29.4487 46.478C29.853 46.6205 30.216 46.8442 30.5375 47.1491C30.859 47.4541 31.1125 47.8501 31.2981 48.3374C31.4837 48.8213 31.5765 49.4096 31.5765 50.1023V50.6293H25.5062V49.5156H30.1199C30.1199 49.1245 30.0403 48.7782 29.8812 48.4766C29.7221 48.1716 29.4984 47.9313 29.21 47.7557C28.925 47.58 28.5903 47.4922 28.2058 47.4922C27.7882 47.4922 27.4236 47.5949 27.112 47.8004C26.8038 48.0026 26.5652 48.2678 26.3961 48.5959C26.2304 48.9207 26.1475 49.2737 26.1475 49.6548V50.5249C26.1475 51.0353 26.237 51.4695 26.416 51.8274C26.5983 52.1854 26.8519 52.4588 27.1767 52.6477C27.5015 52.8333 27.881 52.9261 28.3152 52.9261C28.5969 52.9261 28.8538 52.8864 29.0858 52.8068C29.3178 52.724 29.5183 52.6013 29.6873 52.4389C29.8564 52.2765 29.9856 52.076 30.0751 51.8374L31.4821 52.0909C31.3694 52.5052 31.1672 52.8681 30.8755 53.1797C30.5872 53.4879 30.2243 53.7282 29.7868 53.9006C29.3526 54.0696 28.8571 54.1541 28.3002 54.1541ZM34.7124 43.8182V54H33.2259V43.8182H34.7124ZM40.0034 54.1541C39.251 54.1541 38.603 53.9934 38.0595 53.6719C37.5192 53.3471 37.1016 52.8913 36.8066 52.3047C36.515 51.7147 36.3691 51.0237 36.3691 50.2315C36.3691 49.4493 36.515 48.7599 36.8066 48.1634C37.1016 47.5668 37.5126 47.1011 38.0396 46.7663C38.5699 46.4316 39.1897 46.2642 39.899 46.2642C40.3298 46.2642 40.7475 46.3355 41.1518 46.478C41.5562 46.6205 41.9191 46.8442 42.2406 47.1491C42.5621 47.4541 42.8156 47.8501 43.0012 48.3374C43.1868 48.8213 43.2797 49.4096 43.2797 50.1023V50.6293H37.2093V49.5156H41.823C41.823 49.1245 41.7434 48.7782 41.5843 48.4766C41.4252 48.1716 41.2015 47.9313 40.9132 47.7557C40.6281 47.58 40.2934 47.4922 39.9089 47.4922C39.4913 47.4922 39.1267 47.5949 38.8152 47.8004C38.5069 48.0026 38.2683 48.2678 38.0993 48.5959C37.9335 48.9207 37.8507 49.2737 37.8507 49.6548V50.5249C37.8507 51.0353 37.9402 51.4695 38.1191 51.8274C38.3014 52.1854 38.555 52.4588 38.8798 52.6477C39.2046 52.8333 39.5841 52.9261 40.0183 52.9261C40.3 52.9261 40.5569 52.8864 40.7889 52.8068C41.0209 52.724 41.2214 52.6013 41.3904 52.4389C41.5595 52.2765 41.6887 52.076 41.7782 51.8374L43.1852 52.0909C43.0725 52.5052 42.8703 52.8681 42.5787 53.1797C42.2903 53.4879 41.9274 53.7282 41.4899 53.9006C41.0557 54.0696 40.5602 54.1541 40.0034 54.1541ZM48.1456 54.1541C47.4065 54.1541 46.7701 53.9867 46.2365 53.652C45.7062 53.3139 45.2985 52.8482 45.0135 52.255C44.7285 51.6617 44.5859 50.9822 44.5859 50.2166C44.5859 49.4411 44.7318 48.7566 45.0234 48.1634C45.3151 47.5668 45.7261 47.1011 46.2564 46.7663C46.7867 46.4316 47.4115 46.2642 48.1307 46.2642C48.7107 46.2642 49.2277 46.3719 49.6818 46.5874C50.1359 46.7995 50.5021 47.0978 50.7805 47.4822C51.0623 47.8667 51.2296 48.3158 51.2827 48.8295H49.8359C49.7564 48.4716 49.5741 48.1634 49.2891 47.9048C49.0073 47.6463 48.6295 47.517 48.1555 47.517C47.7412 47.517 47.3783 47.6264 47.0668 47.8452C46.7585 48.0606 46.5182 48.3688 46.3459 48.7699C46.1735 49.1676 46.0874 49.6383 46.0874 50.1818C46.0874 50.7386 46.1719 51.2192 46.3409 51.6236C46.5099 52.0279 46.7486 52.3411 47.0568 52.5632C47.3684 52.7853 47.7346 52.8963 48.1555 52.8963C48.4373 52.8963 48.6925 52.8449 48.9212 52.7422C49.1532 52.6361 49.3471 52.4853 49.5028 52.2898C49.6619 52.0942 49.773 51.8589 49.8359 51.5838H51.2827C51.2296 52.0777 51.0689 52.5185 50.8004 52.9062C50.532 53.294 50.1723 53.599 49.7216 53.821C49.2741 54.0431 48.7488 54.1541 48.1456 54.1541ZM56.437 46.3636V47.5568H52.2658V46.3636H56.437ZM53.3844 44.5341H54.8709V51.7578C54.8709 52.0462 54.914 52.2633 55.0002 52.4091C55.0864 52.5516 55.1974 52.6494 55.3333 52.7024C55.4725 52.7521 55.6233 52.777 55.7857 52.777C55.905 52.777 56.0094 52.7687 56.0989 52.7521C56.1884 52.7356 56.258 52.7223 56.3077 52.7124L56.5762 53.9403C56.49 53.9735 56.3674 54.0066 56.2083 54.0398C56.0492 54.0762 55.8503 54.0961 55.6117 54.0994C55.2206 54.1061 54.856 54.0365 54.5179 53.8906C54.1799 53.7448 53.9064 53.5194 53.6976 53.2145C53.4888 52.9096 53.3844 52.5268 53.3844 52.0661V44.5341ZM65.8631 43.8182H67.3944V51.0369C67.3944 51.6899 67.2651 52.2483 67.0066 52.7124C66.7514 53.1764 66.3917 53.531 65.9277 53.7763C65.4637 54.0182 64.9202 54.1392 64.2971 54.1392C63.7237 54.1392 63.2083 54.0348 62.7509 53.826C62.2968 53.6172 61.9372 53.3139 61.6721 52.9162C61.4102 52.5152 61.2793 52.0279 61.2793 51.4545H62.8056C62.8056 51.7363 62.8702 51.9799 62.9995 52.1854C63.132 52.3909 63.3127 52.5516 63.5414 52.6676C63.7734 52.7803 64.0385 52.8366 64.3368 52.8366C64.6616 52.8366 64.9367 52.7687 65.1621 52.6328C65.3908 52.4936 65.5648 52.2898 65.6841 52.0213C65.8034 51.7528 65.8631 51.4247 65.8631 51.0369V43.8182ZM72.7276 54.1541C72.0117 54.1541 71.387 53.9901 70.8533 53.6619C70.3197 53.3338 69.9054 52.8748 69.6104 52.2848C69.3155 51.6948 69.168 51.0054 69.168 50.2166C69.168 49.4245 69.3155 48.7318 69.6104 48.1385C69.9054 47.5452 70.3197 47.0845 70.8533 46.7564C71.387 46.4283 72.0117 46.2642 72.7276 46.2642C73.4435 46.2642 74.0683 46.4283 74.6019 46.7564C75.1355 47.0845 75.5498 47.5452 75.8448 48.1385C76.1398 48.7318 76.2873 49.4245 76.2873 50.2166C76.2873 51.0054 76.1398 51.6948 75.8448 52.2848C75.5498 52.8748 75.1355 53.3338 74.6019 53.6619C74.0683 53.9901 73.4435 54.1541 72.7276 54.1541ZM72.7326 52.9062C73.1966 52.9062 73.5811 52.7836 73.886 52.5384C74.1909 52.2931 74.4163 51.9666 74.5621 51.5589C74.7113 51.1513 74.7859 50.7022 74.7859 50.2116C74.7859 49.7244 74.7113 49.277 74.5621 48.8693C74.4163 48.4583 74.1909 48.1286 73.886 47.88C73.5811 47.6314 73.1966 47.5071 72.7326 47.5071C72.2653 47.5071 71.8775 47.6314 71.5692 47.88C71.2643 48.1286 71.0373 48.4583 70.8881 48.8693C70.7423 49.277 70.6694 49.7244 70.6694 50.2116C70.6694 50.7022 70.7423 51.1513 70.8881 51.5589C71.0373 51.9666 71.2643 52.2931 71.5692 52.5384C71.8775 52.7836 72.2653 52.9062 72.7326 52.9062ZM82.7839 50.8331V46.3636H84.2754V54H82.8137V52.6776H82.7342C82.5585 53.0852 82.2768 53.425 81.889 53.6967C81.5046 53.9652 81.0256 54.0994 80.4522 54.0994C79.9617 54.0994 79.5275 53.9917 79.1497 53.7763C78.7752 53.5575 78.4802 53.2344 78.2647 52.8068C78.0526 52.3793 77.9466 51.8506 77.9466 51.2209V46.3636H79.4331V51.0419C79.4331 51.5623 79.5772 51.9766 79.8656 52.2848C80.1539 52.593 80.5285 52.7472 80.9892 52.7472C81.2676 52.7472 81.5443 52.6776 81.8194 52.5384C82.0978 52.3991 82.3282 52.1887 82.5105 51.907C82.6961 51.6252 82.7872 51.2673 82.7839 50.8331ZM86.2727 54V46.3636H87.7095V47.5767H87.7891C87.9283 47.1657 88.1735 46.8426 88.5249 46.6072C88.8795 46.3686 89.2805 46.2493 89.728 46.2493C89.8208 46.2493 89.9302 46.2526 90.0561 46.2592C90.1854 46.2659 90.2865 46.2741 90.3594 46.2841V47.706C90.2997 47.6894 90.1937 47.6712 90.0412 47.6513C89.8887 47.6281 89.7363 47.6165 89.5838 47.6165C89.2325 47.6165 88.9193 47.6911 88.6442 47.8402C88.3724 47.986 88.157 48.1899 87.9979 48.4517C87.8388 48.7102 87.7592 49.0052 87.7592 49.3366V54H86.2727ZM93.1323 49.4659V54H91.6458V46.3636H93.0726V47.6065H93.1671C93.3427 47.2022 93.6178 46.8774 93.9924 46.6321C94.3702 46.3868 94.8458 46.2642 95.4192 46.2642C95.9396 46.2642 96.3953 46.3736 96.7864 46.5923C97.1775 46.8078 97.4808 47.1293 97.6962 47.5568C97.9116 47.9844 98.0194 48.513 98.0194 49.1428V54H96.5328V49.3217C96.5328 48.7682 96.3887 48.3357 96.1003 48.0241C95.812 47.7093 95.4159 47.5518 94.9121 47.5518C94.5674 47.5518 94.2608 47.6264 93.9924 47.7756C93.7272 47.9247 93.5167 48.1435 93.361 48.4318C93.2085 48.7169 93.1323 49.0616 93.1323 49.4659ZM103.304 54.1541C102.552 54.1541 101.904 53.9934 101.36 53.6719C100.82 53.3471 100.402 52.8913 100.107 52.3047C99.8158 51.7147 99.6699 51.0237 99.6699 50.2315C99.6699 49.4493 99.8158 48.7599 100.107 48.1634C100.402 47.5668 100.813 47.1011 101.34 46.7663C101.871 46.4316 102.49 46.2642 103.2 46.2642C103.631 46.2642 104.048 46.3355 104.453 46.478C104.857 46.6205 105.22 46.8442 105.541 47.1491C105.863 47.4541 106.116 47.8501 106.302 48.3374C106.488 48.8213 106.58 49.4096 106.58 50.1023V50.6293H100.51V49.5156H105.124C105.124 49.1245 105.044 48.7782 104.885 48.4766C104.726 48.1716 104.502 47.9313 104.214 47.7557C103.929 47.58 103.594 47.4922 103.21 47.4922C102.792 47.4922 102.427 47.5949 102.116 47.8004C101.808 48.0026 101.569 48.2678 101.4 48.5959C101.234 48.9207 101.151 49.2737 101.151 49.6548V50.5249C101.151 51.0353 101.241 51.4695 101.42 51.8274C101.602 52.1854 101.856 52.4588 102.181 52.6477C102.505 52.8333 102.885 52.9261 103.319 52.9261C103.601 52.9261 103.858 52.8864 104.09 52.8068C104.322 52.724 104.522 52.6013 104.691 52.4389C104.86 52.2765 104.99 52.076 105.079 51.8374L106.486 52.0909C106.373 52.5052 106.171 52.8681 105.879 53.1797C105.591 53.4879 105.228 53.7282 104.791 53.9006C104.356 54.0696 103.861 54.1541 103.304 54.1541ZM108.951 56.8636C108.729 56.8636 108.526 56.8454 108.344 56.8089C108.162 56.7758 108.026 56.7393 107.936 56.6996L108.294 55.4815C108.566 55.5545 108.808 55.5859 109.02 55.576C109.232 55.5661 109.42 55.4865 109.582 55.3374C109.748 55.1882 109.894 54.9446 110.02 54.6065L110.203 54.0994L107.409 46.3636H109L110.934 52.2898H111.014L112.948 46.3636H114.544L111.397 55.0192C111.251 55.4169 111.065 55.7533 110.84 56.0284C110.614 56.3068 110.346 56.5156 110.034 56.6548C109.723 56.794 109.362 56.8636 108.951 56.8636ZM123.061 54H119.765V43.8182H123.166C124.163 43.8182 125.02 44.022 125.736 44.4297C126.452 44.834 127 45.4157 127.382 46.1747C127.766 46.9304 127.958 47.8369 127.958 48.8942C127.958 49.9548 127.764 50.8662 127.377 51.6286C126.992 52.3909 126.435 52.9775 125.706 53.3885C124.977 53.7962 124.095 54 123.061 54ZM121.301 52.6577H122.977C123.752 52.6577 124.397 52.5118 124.911 52.2202C125.424 51.9252 125.809 51.4993 126.064 50.9425C126.319 50.3823 126.447 49.6996 126.447 48.8942C126.447 48.0954 126.319 47.4176 126.064 46.8608C125.812 46.304 125.436 45.8814 124.936 45.593C124.435 45.3047 123.814 45.1605 123.071 45.1605H121.301V52.6577ZM131.972 54.169C131.488 54.169 131.05 54.0795 130.659 53.9006C130.268 53.7183 129.958 53.4548 129.729 53.1101C129.504 52.7654 129.391 52.3428 129.391 51.8423C129.391 51.4115 129.474 51.0568 129.64 50.7784C129.806 50.5 130.029 50.2796 130.311 50.1172C130.593 49.9548 130.908 49.8321 131.256 49.7493C131.604 49.6664 131.958 49.6035 132.32 49.5604C132.777 49.5073 133.148 49.4643 133.433 49.4311C133.718 49.3946 133.925 49.3366 134.055 49.2571C134.184 49.1776 134.249 49.0483 134.249 48.8693V48.8345C134.249 48.4003 134.126 48.0639 133.881 47.8253C133.639 47.5866 133.277 47.4673 132.797 47.4673C132.296 47.4673 131.902 47.5784 131.614 47.8004C131.329 48.0192 131.131 48.2628 131.022 48.5312L129.625 48.2131C129.791 47.7491 130.033 47.3745 130.351 47.0895C130.672 46.8011 131.042 46.5923 131.46 46.4631C131.877 46.3305 132.316 46.2642 132.777 46.2642C133.082 46.2642 133.405 46.3007 133.746 46.3736C134.091 46.4432 134.413 46.5724 134.711 46.7614C135.013 46.9503 135.259 47.2204 135.452 47.5717C135.644 47.9197 135.74 48.3722 135.74 48.929V54H134.288V52.956H134.229C134.133 53.1482 133.988 53.3371 133.796 53.5227C133.604 53.7083 133.357 53.8625 133.055 53.9851C132.754 54.1077 132.393 54.169 131.972 54.169ZM132.295 52.9759C132.706 52.9759 133.057 52.8946 133.349 52.7322C133.644 52.5698 133.867 52.3577 134.02 52.0959C134.176 51.8307 134.254 51.5473 134.254 51.2457V50.2614C134.201 50.3144 134.098 50.3641 133.945 50.4105C133.796 50.4536 133.625 50.4917 133.433 50.5249C133.241 50.5547 133.054 50.5829 132.871 50.6094C132.689 50.6326 132.537 50.6525 132.414 50.669C132.126 50.7055 131.862 50.7668 131.624 50.853C131.388 50.9392 131.199 51.0634 131.057 51.2259C130.918 51.3849 130.848 51.5971 130.848 51.8622C130.848 52.2301 130.984 52.5085 131.256 52.6974C131.527 52.883 131.874 52.9759 132.295 52.9759ZM141.285 46.3636V47.5568H137.113V46.3636H141.285ZM138.232 44.5341H139.719V51.7578C139.719 52.0462 139.762 52.2633 139.848 52.4091C139.934 52.5516 140.045 52.6494 140.181 52.7024C140.32 52.7521 140.471 52.777 140.633 52.777C140.753 52.777 140.857 52.7687 140.947 52.7521C141.036 52.7356 141.106 52.7223 141.155 52.7124L141.424 53.9403C141.338 53.9735 141.215 54.0066 141.056 54.0398C140.897 54.0762 140.698 54.0961 140.459 54.0994C140.068 54.1061 139.704 54.0365 139.366 53.8906C139.028 53.7448 138.754 53.5194 138.545 53.2145C138.336 52.9096 138.232 52.5268 138.232 52.0661V44.5341ZM146.138 54.1541C145.386 54.1541 144.738 53.9934 144.194 53.6719C143.654 53.3471 143.236 52.8913 142.941 52.3047C142.65 51.7147 142.504 51.0237 142.504 50.2315C142.504 49.4493 142.65 48.7599 142.941 48.1634C143.236 47.5668 143.647 47.1011 144.174 46.7663C144.705 46.4316 145.324 46.2642 146.034 46.2642C146.465 46.2642 146.882 46.3355 147.287 46.478C147.691 46.6205 148.054 46.8442 148.375 47.1491C148.697 47.4541 148.95 47.8501 149.136 48.3374C149.322 48.8213 149.414 49.4096 149.414 50.1023V50.6293H143.344V49.5156H147.958C147.958 49.1245 147.878 48.7782 147.719 48.4766C147.56 48.1716 147.336 47.9313 147.048 47.7557C146.763 47.58 146.428 47.4922 146.044 47.4922C145.626 47.4922 145.261 47.5949 144.95 47.8004C144.642 48.0026 144.403 48.2678 144.234 48.5959C144.068 48.9207 143.985 49.2737 143.985 49.6548V50.5249C143.985 51.0353 144.075 51.4695 144.254 51.8274C144.436 52.1854 144.69 52.4588 145.015 52.6477C145.339 52.8333 145.719 52.9261 146.153 52.9261C146.435 52.9261 146.692 52.8864 146.924 52.8068C147.156 52.724 147.356 52.6013 147.525 52.4389C147.694 52.2765 147.824 52.076 147.913 51.8374L149.32 52.0909C149.207 52.5052 149.005 52.8681 148.713 53.1797C148.425 53.4879 148.062 53.7282 147.625 53.9006C147.19 54.0696 146.695 54.1541 146.138 54.1541Z" fill="#767676"/>
<rect x="176" y="29" width="40" height="40" rx="10" fill="#CECECE"/>
<path d="M191.749 39.5C191.749 39.3011 191.67 39.1103 191.529 38.9697C191.389 38.829 191.198 38.75 190.999 38.75C190.8 38.75 190.609 38.829 190.469 38.9697C190.328 39.1103 190.249 39.3011 190.249 39.5V41.08C188.809 41.195 187.865 41.477 187.171 42.172C186.476 42.866 186.194 43.811 186.078 45.25H205.92C205.804 43.81 205.522 42.866 204.827 42.172C204.133 41.477 203.188 41.195 201.749 41.079V39.5C201.749 39.3011 201.67 39.1103 201.529 38.9697C201.389 38.829 201.198 38.75 200.999 38.75C200.8 38.75 200.609 38.829 200.469 38.9697C200.328 39.1103 200.249 39.3011 200.249 39.5V41.013C199.584 41 198.838 41 197.999 41H193.999C193.16 41 192.414 41 191.749 41.013V39.5Z" fill="#767676"/>
<path fill-rule="evenodd" clip-rule="evenodd" d="M186 49C186 48.161 186 47.415 186.013 46.75H205.987C206 47.415 206 48.161 206 49V51C206 54.771 206 56.657 204.828 57.828C203.656 58.999 201.771 59 198 59H194C190.229 59 188.343 59 187.172 57.828C186.001 56.656 186 54.771 186 51V49ZM201 51C201.265 51 201.52 50.8946 201.707 50.7071C201.895 50.5196 202 50.2652 202 50C202 49.7348 201.895 49.4804 201.707 49.2929C201.52 49.1054 201.265 49 201 49C200.735 49 200.48 49.1054 200.293 49.2929C200.105 49.4804 200 49.7348 200 50C200 50.2652 200.105 50.5196 200.293 50.7071C200.48 50.8946 200.735 51 201 51ZM201 55C201.265 55 201.52 54.8946 201.707 54.7071C201.895 54.5196 202 54.2652 202 54C202 53.7348 201.895 53.4804 201.707 53.2929C201.52 53.1054 201.265 53 201 53C200.735 53 200.48 53.1054 200.293 53.2929C200.105 53.4804 200 53.7348 200 54C200 54.2652 200.105 54.5196 200.293 54.7071C200.48 54.8946 200.735 55 201 55ZM197 50C197 50.2652 196.895 50.5196 196.707 50.7071C196.52 50.8946 196.265 51 196 51C195.735 51 195.48 50.8946 195.293 50.7071C195.105 50.5196 195 50.2652 195 50C195 49.7348 195.105 49.4804 195.293 49.2929C195.48 49.1054 195.735 49 196 49C196.265 49 196.52 49.1054 196.707 49.2929C196.895 49.4804 197 49.7348 197 50ZM197 54C197 54.2652 196.895 54.5196 196.707 54.7071C196.52 54.8946 196.265 55 196 55C195.735 55 195.48 54.8946 195.293 54.7071C195.105 54.5196 195 54.2652 195 54C195 53.7348 195.105 53.4804 195.293 53.2929C195.48 53.1054 195.735 53 196 53C196.265 53 196.52 53.1054 196.707 53.2929C196.895 53.4804 197 53.7348 197 54ZM191 51C191.265 51 191.52 50.8946 191.707 50.7071C191.895 50.5196 192 50.2652 192 50C192 49.7348 191.895 49.4804 191.707 49.2929C191.52 49.1054 191.265 49 191 49C190.735 49 190.48 49.1054 190.293 49.2929C190.105 49.4804 190 49.7348 190 50C190 50.2652 190.105 50.5196 190.293 50.7071C190.48 50.8946 190.735 51 191 51ZM191 55C191.265 55 191.52 54.8946 191.707 54.7071C191.895 54.5196 192 54.2652 192 54C192 53.7348 191.895 53.4804 191.707 53.2929C191.52 53.1054 191.265 53 191 53C190.735 53 190.48 53.1054 190.293 53.2929C190.105 53.4804 190 53.7348 190 54C190 54.2652 190.105 54.5196 190.293 54.7071C190.48 54.8946 190.735 55 191 55Z" fill="#767676"/>
</svg>
