<svg width="36" height="36" viewBox="0 0 36 36" fill="none" xmlns="http://www.w3.org/2000/svg">
<g filter="url(#filter0_b_104_699)">
<rect width="36" height="36" rx="18" fill="#040F16" fill-opacity="0.06"/>
<rect x="0.65" y="0.65" width="34.7" height="34.7" rx="17.35" stroke="url(#paint0_linear_104_699)" stroke-width="1.3"/>
<path d="M22.5 21.06C21.93 21.06 21.42 21.285 21.03 21.6375L15.6825 18.525C15.72 18.3525 15.75 18.18 15.75 18C15.75 17.82 15.72 17.6475 15.6825 17.475L20.97 14.3925C21.375 14.7675 21.9075 15 22.5 15C23.745 15 24.75 13.995 24.75 12.75C24.75 11.505 23.745 10.5 22.5 10.5C21.255 10.5 20.25 11.505 20.25 12.75C20.25 12.93 20.28 13.1025 20.3175 13.275L15.03 16.3575C14.625 15.9825 14.0925 15.75 13.5 15.75C12.255 15.75 11.25 16.755 11.25 18C11.25 19.245 12.255 20.25 13.5 20.25C14.0925 20.25 14.625 20.0175 15.03 19.6425L20.37 22.7625C20.3325 22.92 20.31 23.085 20.31 23.25C20.31 24.4575 21.2925 25.44 22.5 25.44C23.7075 25.44 24.69 24.4575 24.69 23.25C24.69 22.0425 23.7075 21.06 22.5 21.06Z" fill="#040F16" fill-opacity="0.32"/>
</g>
<defs>
<filter id="filter0_b_104_699" x="-16" y="-16" width="68" height="68" filterUnits="userSpaceOnUse" color-interpolation-filters="sRGB">
<feFlood flood-opacity="0" result="BackgroundImageFix"/>
<feGaussianBlur in="BackgroundImageFix" stdDeviation="8"/>
<feComposite in2="SourceAlpha" operator="in" result="effect1_backgroundBlur_104_699"/>
<feBlend mode="normal" in="SourceGraphic" in2="effect1_backgroundBlur_104_699" result="shape"/>
</filter>
<linearGradient id="paint0_linear_104_699" x1="18" y1="0" x2="18" y2="36" gradientUnits="userSpaceOnUse">
<stop stop-color="#040F16" stop-opacity="0.24"/>
<stop offset="1" stop-color="#040F16" stop-opacity="0.02"/>
</linearGradient>
</defs>
</svg>
