<svg width="26" height="27" viewBox="0 0 26 27" fill="none" xmlns="http://www.w3.org/2000/svg">
<path d="M23.7965 12.1633L19.2262 16.107L20.6186 22.0047C20.6954 22.3249 20.6756 22.6606 20.5617 22.9695C20.4478 23.2785 20.2449 23.5467 19.9787 23.7404C19.7124 23.934 19.3947 24.0444 19.0657 24.0576C18.7368 24.0708 18.4112 23.9863 18.1303 23.8145L13.0014 20.658L7.86945 23.8145C7.58855 23.9853 7.26343 24.0691 6.93501 24.0554C6.60659 24.0417 6.28957 23.9311 6.02386 23.7376C5.75814 23.5441 5.55563 23.2763 5.4418 22.968C5.32798 22.6596 5.30794 22.3244 5.38421 22.0047L6.78171 16.107L2.2114 12.1633C1.96288 11.9485 1.78314 11.6652 1.69463 11.3489C1.60613 11.0326 1.61278 10.6972 1.71376 10.3846C1.81474 10.072 2.00557 9.79612 2.26242 9.59135C2.51926 9.38658 2.83075 9.26202 3.15796 9.23322L9.15015 8.74978L11.4617 3.15572C11.5868 2.85085 11.7998 2.59006 12.0735 2.40653C12.3472 2.223 12.6693 2.125 12.9989 2.125C13.3284 2.125 13.6505 2.223 13.9242 2.40653C14.1979 2.59006 14.4109 2.85085 14.536 3.15572L16.8466 8.74978L22.8387 9.23322C23.1666 9.26095 23.479 9.38481 23.7368 9.5893C23.9946 9.79379 24.1863 10.0698 24.2879 10.3828C24.3895 10.6957 24.3965 11.0317 24.308 11.3486C24.2195 11.6655 24.0394 11.9493 23.7904 12.1643L23.7965 12.1633Z" fill="#945600"/>
</svg>
