<svg width="71" height="70" viewBox="0 0 71 70" fill="none" xmlns="http://www.w3.org/2000/svg">
<circle cx="35.5" cy="35" r="35" fill="#945600" fill-opacity="0.2"/>
<path d="M22.375 35.5C22.375 37.2236 22.7145 38.9303 23.3741 40.5227C24.0337 42.1151 25.0005 43.562 26.2192 44.7808C27.438 45.9995 28.8849 46.9663 30.4773 47.6259C32.0697 48.2855 33.7764 48.625 35.5 48.625C37.2236 48.625 38.9303 48.2855 40.5227 47.6259C42.1151 46.9663 43.562 45.9995 44.7808 44.7808C45.9995 43.562 46.9663 42.1151 47.6259 40.5227C48.2855 38.9303 48.625 37.2236 48.625 35.5C48.625 32.019 47.2422 28.6806 44.7808 26.2192C42.3194 23.7578 38.981 22.375 35.5 22.375C32.019 22.375 28.6806 23.7578 26.2192 26.2192C23.7578 28.6806 22.375 32.019 22.375 35.5Z" stroke="#945600" stroke-width="2.3" stroke-linecap="round" stroke-linejoin="round"/>
<path d="M35.5 28.2084V35.5L39.875 39.875" stroke="#945600" stroke-width="2.3" stroke-linecap="round" stroke-linejoin="round"/>
</svg>
