<svg  viewBox="0 0 45 45" fill="none" xmlns="http://www.w3.org/2000/svg">
<rect width="45" height="45" rx="22.5" fill="#040F16"/>
<g clip-path="url(#clip0_124_2346)">
<path fill-rule="evenodd" clip-rule="evenodd" d="M33 26.2488H32.3966V27.4179C32.3966 27.8243 32.0636 28.1573 31.6572 28.1573H30.9017C30.4953 28.1573 30.1623 27.8243 30.1623 27.4179V26.2488H25.0723V27.4179C25.0723 27.8243 24.7393 28.1573 24.3328 28.1573H23.5773C23.1709 28.1573 22.8379 27.8243 22.8379 27.4179V26.2488H22.2542V17.4635C22.2542 16.6095 22.752 15.9882 23.7546 15.6033C25.8171 14.7994 29.439 14.7994 31.4997 15.6033C32.5023 15.99 33 16.6095 33 17.4653V26.2488ZM20.5212 23.2141V26.5907V27.3928V28.1573H19.3664V27.3928H12.554V28.1573H11.3975V27.3928V26.5907V23.2141H11V22.455H11.9722L12.5146 20.7685C12.674 20.2725 12.9408 19.8214 13.4618 19.8214H14.6541V19.1536C14.6541 18.8546 14.5915 18.8796 14.8743 18.8796H17.0801C17.3164 18.8796 17.2645 18.8564 17.2645 19.1088V19.8214H18.6592C19.1802 19.8214 19.481 20.2636 19.6063 20.7685L20.0252 22.455H20.9186V23.2141H20.5212ZM14.2298 25.8692H17.6423V26.6749H14.2298V25.8692ZM11.7842 23.9947C12.6543 24.0216 13.186 24.3868 13.3221 25.1459H11.7842V23.9947ZM20.0252 23.9947C19.1551 24.0216 18.6234 24.3868 18.4873 25.1459H20.0252V23.9947ZM12.3875 22.455H19.5329L19.2267 21.0406C19.1426 20.6539 18.9009 20.3173 18.5034 20.3173H13.562C13.1646 20.3173 12.9622 20.6611 12.8387 21.0406L12.3875 22.455ZM25.2782 24.0645H29.9761C30.0173 24.0645 30.0495 24.1182 30.0495 24.1827V24.5372C30.0495 24.6034 30.0155 24.6554 29.9761 24.6554H25.2782C25.237 24.6554 25.2048 24.6016 25.2048 24.5372V24.1827C25.203 24.1182 25.237 24.0645 25.2782 24.0645ZM25.2782 24.9597H29.9761C30.0173 24.9597 30.0495 25.0134 30.0495 25.0779V25.4324C30.0495 25.4968 30.0155 25.5505 29.9761 25.5505H25.2782C25.237 25.5505 25.2048 25.4968 25.2048 25.4324V25.0779C25.203 25.0134 25.237 24.9597 25.2782 24.9597ZM23.2228 17.5136H27.0542C27.1724 17.5136 27.2708 17.6103 27.2708 17.7302V20.8956C27.2708 21.0138 27.1742 21.1122 27.0542 21.1122H23.2228C23.1047 21.1122 23.0062 21.0155 23.0062 20.8956V17.7284C23.0062 17.6103 23.1047 17.5136 23.2228 17.5136ZM28.1821 17.5136H32.0135C32.1317 17.5136 32.2301 17.6103 32.2301 17.7302V20.8956C32.2301 21.0138 32.1335 21.1122 32.0135 21.1122H28.1821C28.064 21.1122 27.9655 21.0155 27.9655 20.8956V17.7284C27.9673 17.6103 28.064 17.5136 28.1821 17.5136ZM32.3895 24.906C32.3895 24.6858 32.3143 24.5014 32.1621 24.351C32.0099 24.1988 31.8237 24.1236 31.6053 24.1236C31.3923 24.1236 31.2096 24.2006 31.0539 24.351C30.8981 24.5032 30.8229 24.6858 30.8229 24.906C30.8229 25.1191 30.8999 25.2999 31.0539 25.4503C31.2096 25.6025 31.3923 25.6777 31.6053 25.6777C31.8219 25.6777 32.0099 25.6025 32.1621 25.4503C32.3143 25.2999 32.3895 25.1208 32.3895 24.906ZM24.4295 24.906C24.4295 24.6858 24.3525 24.5014 24.2021 24.351C24.05 24.1988 23.8656 24.1236 23.6453 24.1236C23.4287 24.1236 23.2407 24.2006 23.0885 24.351C22.9364 24.5032 22.8647 24.6858 22.8647 24.906C22.8647 25.1191 22.9364 25.2999 23.0885 25.4503C23.2407 25.6025 23.4269 25.6777 23.6453 25.6777C23.8656 25.6777 24.05 25.6025 24.2021 25.4503C24.3525 25.2999 24.4295 25.1208 24.4295 24.906Z" fill="#FDF7FA"/>
</g>
<defs>
<clipPath id="clip0_124_2346">
<rect width="22" height="13.1574" fill="white" transform="translate(11 15)"/>
</clipPath>
</defs>
</svg>
