<svg  viewBox="0 0 71 70" fill="none" xmlns="http://www.w3.org/2000/svg">
<circle cx="35.832" cy="35" r="35" fill="#945600" fill-opacity="0.2"/>
<g clip-path="url(#clip0_368_1257)">
<path fill-rule="evenodd" clip-rule="evenodd" d="M20.832 31.0066L38.9961 13L50.5977 24.4001L48.7263 25.2717L40.6697 17.3652L40.5745 17.2664C40.2193 16.9272 39.7441 16.7428 39.2531 16.7538C38.7622 16.7648 38.2957 16.9702 37.9561 17.325L37.3005 18.0061L37.2786 17.9841L34.2024 21.2434L22.4214 32.563L20.832 31.0066ZM25.7429 41.1433L25.6331 41.8464C25.3438 43.7214 24.875 46.7683 24.6846 47.845C24.6716 47.9096 24.6507 47.9723 24.6223 48.0317C24.6008 48.0887 24.5684 48.1409 24.5271 48.1855C24.3094 48.4625 24.1124 48.755 23.9375 49.0608C23.8097 49.2758 23.7159 49.5093 23.6592 49.7529C23.6315 49.8734 23.6315 49.9986 23.6592 50.1191C23.6904 50.2297 23.7512 50.3297 23.835 50.4084C25.6221 52.2029 27.519 54.0156 29.2549 55.8467C29.515 56.0876 29.8253 56.2677 30.1635 56.3741C30.5017 56.4805 30.8593 56.5105 31.2104 56.4619C31.8682 56.3771 32.5176 56.2363 33.1514 56.0408C33.8399 55.889 34.5176 55.6921 35.1802 55.4512C35.8403 55.1973 36.4484 54.825 36.9746 54.3525L38.4688 52.7925C38.489 52.7632 38.5123 52.7362 38.5383 52.7119C38.5823 52.668 38.7104 52.5398 38.9045 52.3677C39.8933 51.4009 41.1018 50.2107 40.417 49.2219L39.9153 48.7202L39.5491 49.0498L39.0693 49.449C38.813 49.6724 38.575 49.8848 38.3589 50.0972C38.2132 50.2429 38.0156 50.3247 37.8096 50.3247C37.6035 50.3247 37.4059 50.2429 37.2603 50.0972C37.1146 49.9515 37.0327 49.7539 37.0327 49.5479C37.0327 49.3418 37.1146 49.1442 37.2603 48.9985C37.491 48.7678 37.7693 48.5188 38.0586 48.2661L38.0952 48.2368C39.0657 47.3762 40.1753 46.4058 39.6333 45.6001L39.0437 45.0105C38.9045 45.1533 38.7581 45.2888 38.6116 45.4243C38.4651 45.5598 38.2454 45.7612 38.0549 45.9224L38.0073 45.959C37.7583 46.1787 37.5239 46.3838 37.3079 46.5999C37.2357 46.672 37.1501 46.7292 37.0558 46.7683C36.9616 46.8073 36.8606 46.8274 36.7585 46.8274C36.6565 46.8274 36.5555 46.8073 36.4613 46.7683C36.367 46.7292 36.2814 46.672 36.2092 46.5999C36.1371 46.5277 36.0799 46.4421 36.0408 46.3478C36.0018 46.2536 35.9817 46.1526 35.9817 46.0505C35.9817 45.9485 36.0018 45.8475 36.0408 45.7533C36.0799 45.659 36.1371 45.5734 36.2092 45.5012C36.4326 45.2778 36.7073 45.0325 36.9966 44.7688L37.0405 44.7285C38.011 43.8716 39.1206 42.8975 38.5823 42.0918C38.3772 41.8904 38.1685 41.689 37.9707 41.4802L36.3301 43.1208C36.1844 43.2665 35.9868 43.3484 35.7808 43.3484C35.5747 43.3484 35.3771 43.2665 35.2314 43.1208C35.0858 42.9752 35.0039 42.7776 35.0039 42.5715C35.0039 42.3655 35.0858 42.1679 35.2314 42.0222L38.5273 38.7263C38.8367 38.4331 39.0736 38.0721 39.2195 37.6716C39.3418 37.3424 39.3521 36.982 39.2488 36.6462C39.2149 36.5449 39.1694 36.4478 39.1133 36.3569C39.0592 36.2694 38.9953 36.1883 38.9229 36.1152C38.8493 36.0407 38.7669 35.9755 38.6775 35.9211C38.5873 35.8671 38.4915 35.8229 38.3918 35.7893C38.0565 35.6887 37.6974 35.7015 37.3701 35.8259C36.9616 35.9877 36.594 36.2378 36.2935 36.5583L28.3723 44.5161C28.2266 44.6618 28.029 44.7436 27.823 44.7436C27.617 44.7436 27.4194 44.6618 27.2737 44.5161C27.128 44.3704 27.0461 44.1728 27.0461 43.9668C27.0461 43.7608 27.128 43.5632 27.2737 43.4175L27.6179 43.0769L25.7283 41.147L25.7429 41.1433ZM29.46 41.2458L34.1694 36.5364L34.0815 36.5107C33.4551 36.3051 32.9029 35.9198 32.4938 35.4027C32.0847 34.8857 31.8366 34.2597 31.7805 33.6028C31.7244 32.9459 31.8626 32.2869 32.1782 31.708C32.4937 31.129 32.9724 30.6556 33.5549 30.3467C34.1374 30.0377 34.7979 29.9069 35.4541 29.9705C36.1104 30.034 36.7335 30.2892 37.2459 30.7041C37.7583 31.1191 38.1373 31.6756 38.3359 32.3043C38.5344 32.933 38.5437 33.6063 38.3625 34.2402C38.5379 34.2653 38.7107 34.3058 38.8789 34.3611C39.0902 34.4306 39.293 34.524 39.4832 34.6394C39.6755 34.7579 39.8536 34.898 40.0142 35.0569C40.0839 35.1266 40.1499 35.2 40.2119 35.2766L44.6797 30.7283C44.2786 30.3123 44.0576 29.755 44.0644 29.1772C44.0713 28.5994 44.3055 28.0475 44.7163 27.6411L40.6294 23.4663C40.2137 23.869 39.6559 24.0914 39.0772 24.0852C38.4985 24.079 37.9456 23.8448 37.5386 23.4333L26.3252 34.936C26.7311 35.3473 26.9587 35.9018 26.9587 36.4796C26.9587 37.0574 26.7311 37.612 26.3252 38.0232L29.4783 41.2458H29.46ZM40.7319 38.1038C40.5178 38.7774 40.1404 39.3875 39.6333 39.8799L39.095 40.4146L39.7322 41.0518L39.7908 41.1177L39.842 41.1873C40.1422 41.5489 40.3219 41.9953 40.3561 42.4641C40.3902 42.9329 40.2771 43.4006 40.0325 43.802H40.0508C40.0933 43.8308 40.1337 43.8626 40.1716 43.8972L40.7942 44.5234C40.8165 44.5428 40.8362 44.5649 40.8528 44.5894L40.9004 44.6516C41.2516 45.0901 41.4359 45.639 41.4204 46.2007C41.3913 46.6641 41.2369 47.1109 40.9736 47.4934L41.5925 48.1086L41.6511 48.1782L41.6951 48.2405C43.2112 50.3132 41.446 52.0381 40.0215 53.4297C39.9263 53.5432 39.7688 53.6824 39.6553 53.7959C39.1572 54.3159 38.5566 55.019 38.0439 55.4805C36.6084 56.7805 35.1948 57.1284 33.5579 57.5276C32.8274 57.7539 32.0769 57.9096 31.3167 57.9927C30.7505 58.0552 30.1776 57.9924 29.6384 57.8089C29.0992 57.6254 28.607 57.3255 28.1965 56.9307L22.7839 51.5181C22.5112 51.2633 22.3103 50.9413 22.2017 50.5842C22.1015 50.2161 22.0914 49.8292 22.1724 49.4563C22.2467 49.1063 22.37 48.7685 22.5386 48.4529C22.7343 48.0786 22.9623 47.722 23.2197 47.3872C23.3589 46.5925 23.6628 44.5674 23.9521 42.707C24.1169 41.5901 24.2781 40.5391 24.3989 39.7773L21.3557 36.6682L39.3623 18.4932L49.7004 29.0583L40.7319 38.1038Z" fill="#945600"/>
</g>
<defs>
<clipPath id="clip0_368_1257">
<rect width="29.7656" height="45" fill="white" transform="translate(20.832 13)"/>
</clipPath>
</defs>
</svg>
