<svg viewBox="0 0 71 70" fill="none" xmlns="http://www.w3.org/2000/svg">
<circle cx="35.5" cy="35" r="35" fill="#945600" fill-opacity="0.2"/>
<g clip-path="url(#clip0_0_1)">
<path d="M51.0703 40.3538C50.8107 39.4146 50.1997 38.6329 49.3539 38.1531L48.2616 37.5363C48.5037 36.5271 48.6262 35.5077 48.6262 34.5C48.6262 33.4923 48.5037 32.4729 48.2616 31.4638L49.3524 30.8454C51.1009 29.8538 51.7193 27.6254 50.7276 25.8783C50.2478 25.0296 49.4676 24.42 48.5284 24.159C47.5907 23.9037 46.6064 24.0204 45.7591 24.5002L44.6639 25.1215C43.1122 23.6033 41.2237 22.5023 39.1455 21.9015V20.6458C39.1455 18.6348 37.5093 17 35.4997 17C33.4901 17 31.8539 18.6348 31.8539 20.6458V21.9015C29.7757 22.5023 27.8872 23.6033 26.3355 25.1215L25.2418 24.5017C24.3945 24.0204 23.413 23.9037 22.4724 24.159C21.5332 24.42 20.753 25.0296 20.2732 25.8783C19.283 27.6254 19.8999 29.8552 21.6484 30.8454L22.7393 31.4638C22.4972 32.4729 22.3747 33.4923 22.3747 34.5C22.3747 35.5077 22.4972 36.5271 22.7393 37.5363L21.6484 38.1531C20.8012 38.6329 20.1901 39.4146 19.9305 40.3538C19.6709 41.2929 19.792 42.2744 20.2718 43.1217C20.7516 43.9704 21.5318 44.58 22.4709 44.841C23.4101 45.0977 24.3916 44.981 25.2403 44.4998L26.3355 43.8785C27.8872 45.3967 29.7757 46.4977 31.8539 47.0985V48.3542C31.8539 50.3652 33.4901 52 35.4997 52C37.5093 52 39.1455 50.3652 39.1455 48.3542V47.0985C41.2237 46.4977 43.1122 45.3967 44.6639 43.8785L45.7576 44.4983C46.6064 44.981 47.5878 45.0992 48.527 44.841C49.4662 44.58 50.2464 43.9704 50.7262 43.1217C51.2059 42.2744 51.327 41.2915 51.0674 40.3538H51.0703ZM49.4603 42.4042C49.173 42.9131 48.7034 43.2792 48.1405 43.4352C47.5776 43.5883 46.987 43.5183 46.478 43.2281L44.8957 42.3327C44.6055 42.1723 44.2366 42.2248 44.0047 42.4698C42.4443 44.1338 40.4537 45.2946 38.2457 45.8283C37.9191 45.9085 37.6887 46.2017 37.6887 46.5371V48.3542C37.6887 49.5602 36.7072 50.5417 35.5012 50.5417C34.2951 50.5417 33.3137 49.5602 33.3137 48.3542V46.5371C33.3137 46.2017 33.0832 45.9071 32.7566 45.8283C30.5487 45.2946 28.558 44.1338 26.9976 42.4698C26.8562 42.3181 26.6622 42.2394 26.4653 42.2394C26.3428 42.2394 26.2189 42.27 26.1066 42.3327L24.5228 43.2296C24.0139 43.5169 23.4247 43.5883 22.8618 43.4352C22.2989 43.2792 21.8293 42.9131 21.542 42.4042C20.9484 41.3542 21.3189 40.0169 22.3674 39.4233L23.9468 38.5294C24.2399 38.3631 24.3799 38.0175 24.288 37.6952C23.9862 36.6335 23.833 35.5602 23.833 34.5015C23.833 33.4427 23.9862 32.3679 24.288 31.3077C24.3799 30.984 24.2384 30.6398 23.9468 30.475L22.3674 29.581C21.3174 28.986 20.947 27.6488 21.542 26.5988C21.8293 26.0898 22.2989 25.7238 22.8618 25.5677C23.4247 25.4146 24.0153 25.4846 24.5243 25.7748L26.1066 26.6702C26.3997 26.8335 26.7687 26.7796 26.9976 26.5331C28.5566 24.8692 30.5487 23.7083 32.7566 23.1746C33.0832 23.0944 33.3137 22.8012 33.3137 22.4658V20.6488C33.3137 19.4427 34.2951 18.4612 35.5012 18.4612C36.7072 18.4612 37.6887 19.4427 37.6887 20.6488V22.4658C37.6887 22.8012 37.9191 23.0958 38.2457 23.1746C40.4537 23.7083 42.4443 24.8692 44.0047 26.5331C44.2351 26.7781 44.6041 26.8306 44.8957 26.6702L46.4795 25.7733C46.9884 25.486 47.5776 25.4146 48.1405 25.5677C48.7034 25.7238 49.173 26.0898 49.4603 26.5988C50.0553 27.6488 49.6834 28.986 48.6349 29.581L47.0555 30.475C46.7624 30.6398 46.6224 30.9854 46.7143 31.3077C47.0162 32.3694 47.1693 33.4427 47.1693 34.5015C47.1693 35.5602 47.0162 36.635 46.7143 37.6952C46.6224 38.019 46.7639 38.3631 47.0555 38.5294L48.6349 39.4233C49.1424 39.7106 49.5084 40.1802 49.6645 40.7417C49.8205 41.3031 49.7476 41.8952 49.4589 42.4042H49.4603ZM30.4072 34.6035L30.397 27.936C30.397 27.535 30.0703 27.2083 29.6678 27.2083C29.2653 27.2083 28.9387 27.5365 28.9401 27.939L28.9503 34.6035C27.6962 34.9302 26.7643 36.0619 26.7643 37.4167C26.7643 38.7715 27.6947 39.9002 28.9474 40.2283L28.9416 41.0567C28.9387 41.4592 29.2624 41.7888 29.6649 41.7917H29.6707C30.0703 41.7917 30.397 41.4679 30.3999 41.0683L30.4057 40.2313C31.6628 39.906 32.5976 38.7729 32.5976 37.4167C32.5976 36.0604 31.6643 34.9288 30.4087 34.6035H30.4072ZM29.6795 38.875C28.8759 38.875 28.2212 38.2217 28.2212 37.4167C28.2212 36.6117 28.8759 35.9583 29.6795 35.9583C30.483 35.9583 31.1378 36.6117 31.1378 37.4167C31.1378 38.2217 30.483 38.875 29.6795 38.875ZM42.0739 34.6035L42.0637 27.936C42.0637 27.535 41.737 27.2083 41.3345 27.2083C40.932 27.2083 40.6053 27.5365 40.6068 27.939L40.617 34.6035C39.3628 34.9302 38.4309 36.0619 38.4309 37.4167C38.4309 38.7715 39.3614 39.9002 40.6141 40.2283L40.6082 41.0567C40.6053 41.4592 40.9291 41.7888 41.3316 41.7917H41.3374C41.737 41.7917 42.0637 41.4679 42.0666 41.0683L42.0724 40.2313C43.3295 39.906 44.2643 38.7729 44.2643 37.4167C44.2643 36.0604 43.3295 34.9288 42.0739 34.6035ZM41.3462 38.875C40.5426 38.875 39.8878 38.2217 39.8878 37.4167C39.8878 36.6117 40.5426 35.9583 41.3462 35.9583C42.1497 35.9583 42.8045 36.6117 42.8045 37.4167C42.8045 38.2217 42.1497 38.875 41.3462 38.875ZM36.2376 28.7688L36.2318 27.9317C36.2289 27.5321 35.9022 27.2083 35.5026 27.2083H35.4968C35.0943 27.2113 34.7705 27.5408 34.7734 27.9433L34.7793 28.7717C33.5266 29.0998 32.5962 30.23 32.5962 31.5833C32.5962 32.9367 33.528 34.0698 34.7822 34.3965L34.772 41.061C34.772 41.4635 35.0972 41.7917 35.4997 41.7917C35.9022 41.7917 36.2289 41.465 36.2289 41.064L36.2391 34.3965C37.4947 34.0713 38.428 32.9381 38.428 31.5833C38.428 30.2285 37.4932 29.094 36.2362 28.7688H36.2376ZM35.5128 33.0417C34.7093 33.0417 34.0545 32.3883 34.0545 31.5833C34.0545 30.7783 34.7093 30.125 35.5128 30.125C36.3164 30.125 36.9712 30.7783 36.9712 31.5833C36.9712 32.3883 36.3164 33.0417 35.5128 33.0417Z" fill="#945600"/>
</g>
<defs>
<clipPath id="clip0_0_1">
<rect width="35" height="35" fill="white" transform="translate(18 17)"/>
</clipPath>
</defs>
</svg>
