<svg width="70" height="70" viewBox="0 0 70 70" fill="none" xmlns="http://www.w3.org/2000/svg">
<circle cx="35" cy="35" r="35" fill="#945600" fill-opacity="0.2"/>
<path d="M42.954 31.2846L47.727 36.0576C48.5015 36.8218 49.1172 37.7316 49.5386 38.7348C49.9601 39.7379 50.1789 40.8145 50.1825 41.9025C50.1862 42.9906 49.9746 44.0686 49.5599 45.0745C49.1452 46.0805 48.5356 46.9944 47.7662 47.7638C46.9968 48.5332 46.0829 49.1428 45.0769 49.5575C44.071 49.9722 42.993 50.1838 41.9049 50.1801C40.8169 50.1765 39.7403 49.9576 38.7372 49.5362C37.7341 49.1148 36.8242 48.4991 36.06 47.7246L34.47 46.1346C34.255 45.9271 34.0835 45.6789 33.9654 45.4045C33.8474 45.13 33.7852 44.8348 33.7824 44.5361C33.7797 44.2373 33.8365 43.941 33.9495 43.6644C34.0625 43.3879 34.2294 43.1366 34.4406 42.9252C34.6518 42.7139 34.9029 42.5467 35.1794 42.4334C35.4558 42.3202 35.7521 42.2631 36.0508 42.2655C36.3496 42.268 36.6449 42.3299 36.9194 42.4477C37.194 42.5655 37.4423 42.7368 37.65 42.9516L39.243 44.5431C39.9474 45.2412 40.8997 45.6318 41.8914 45.6295C42.8831 45.6272 43.8335 45.2321 44.5347 44.5308C45.2358 43.8294 45.6306 42.8789 45.6326 41.8872C45.6347 40.8954 45.2438 39.9433 44.5455 39.2391L39.7725 34.4661C39.2566 33.95 38.6013 33.5956 37.887 33.4464C37.1727 33.2972 36.4303 33.3596 35.751 33.6261C35.509 33.7221 35.282 33.8201 35.07 33.9201L34.374 34.2456C33.444 34.6656 32.7285 34.8456 31.818 33.9366C30.51 32.6286 30.849 31.4211 32.4435 30.3216C34.0319 29.2286 35.9529 28.7265 37.8729 28.9024C39.7929 29.0783 41.5907 29.9212 42.954 31.2846ZM33.939 22.2696L35.529 23.8596C35.9391 24.2837 36.1661 24.852 36.1613 25.4419C36.1564 26.0319 35.9201 26.5963 35.5031 27.0137C35.0861 27.4311 34.5219 27.668 33.9319 27.6734C33.342 27.6788 32.7735 27.4522 32.349 27.0426L30.7575 25.4526C30.4117 25.0943 29.998 24.8085 29.5405 24.6119C29.083 24.4152 28.591 24.3116 28.0931 24.3071C27.5952 24.3027 27.1013 24.3974 26.6404 24.5858C26.1795 24.7743 25.7607 25.0526 25.4085 25.4046C25.0563 25.7566 24.7778 26.1752 24.5891 26.636C24.4004 27.0968 24.3054 27.5906 24.3096 28.0885C24.3137 28.5864 24.4171 29.0785 24.6135 29.5361C24.8099 29.9937 25.0954 30.4076 25.4535 30.7536L30.2265 35.5266C30.7424 36.0427 31.3977 36.3971 32.112 36.5463C32.8263 36.6955 33.5686 36.633 34.248 36.3666C34.49 36.2706 34.717 36.1726 34.929 36.0726L35.625 35.7471C36.555 35.3271 37.272 35.1471 38.181 36.0561C39.489 37.3641 39.15 38.5716 37.5555 39.6711C35.9671 40.764 34.0461 41.2662 32.1261 41.0903C30.2061 40.9143 28.4083 40.0715 27.045 38.7081L22.272 33.9351C21.4975 33.1709 20.8818 32.261 20.4604 31.2579C20.0389 30.2548 19.8201 29.1782 19.8165 28.0901C19.8128 27.0021 20.0244 25.9241 20.4391 24.9181C20.8538 23.9122 21.4634 22.9982 22.2328 22.2289C23.0021 21.4595 23.9161 20.8499 24.922 20.4352C25.928 20.0205 27.006 19.8089 28.094 19.8125C29.1821 19.8162 30.2587 20.035 31.2618 20.4565C32.2649 20.8779 33.1748 21.4951 33.939 22.2696Z" fill="#945600"/>
</svg>
