<svg width="71" height="70" viewBox="0 0 71 70" fill="none" xmlns="http://www.w3.org/2000/svg">
<circle cx="35.832" cy="35" r="35" fill="#945600" fill-opacity="0.2"/>
<g clip-path="url(#clip0_368_1226)">
<path d="M28.1957 35.9874C28.1843 35.9533 28.1729 35.9077 28.1672 35.8678C28.1046 35.3295 28.0447 34.7342 27.9906 34.2215C27.9166 33.4695 27.834 32.6008 27.7742 31.9913C27.7343 31.5783 27.6033 31.1852 27.4124 30.8918C27.2842 30.7038 27.1418 30.5643 26.9823 30.4959C26.8542 30.4446 26.6975 30.4389 26.5351 30.5016C26.313 30.587 26.0652 30.7665 25.7889 31.0798C25.5439 31.3589 25.3531 31.7321 25.1936 32.128C24.9686 32.7062 24.8347 33.3214 24.7806 33.743C24.7749 33.7715 24.7749 33.7942 24.7635 33.817L23.2311 42.5158C23.2083 42.6297 23.1627 42.7322 23.0944 42.812C22.5788 43.4756 22.2541 44.0453 22.1601 44.5067C22.0918 44.8457 22.1601 45.1191 22.3852 45.3327L28.0248 50.9724C28.3837 51.317 28.7995 51.5335 29.298 51.6246C29.842 51.7272 30.4772 51.6702 31.2064 51.4708C31.2178 51.4708 31.2349 51.4651 31.2462 51.4651C31.5225 51.3911 31.8843 51.3028 32.2318 51.2145C33.7442 50.847 35.063 50.5223 36.2849 49.4115L37.8572 47.7709C37.8714 47.7424 37.897 47.7196 37.9198 47.6968C37.9426 47.674 38.0964 47.5202 38.3043 47.3237C39.381 46.2727 40.7112 44.9738 39.9022 43.8374L39.2728 43.2079C38.968 43.5041 38.6433 43.7918 38.3328 44.0681C38.048 44.3187 37.7831 44.5494 37.541 44.7944C37.2818 45.0536 36.8631 45.0536 36.6011 44.7944C36.3419 44.5324 36.3419 44.1165 36.6011 43.8545C36.846 43.6095 37.1451 43.3446 37.4556 43.0683C38.5208 42.1284 39.7427 41.0546 39.0876 40.1118L38.4639 39.488C38.4297 39.4538 38.4012 39.4139 38.3756 39.3741C38.0167 39.7415 37.6236 40.0918 37.2362 40.4336C36.9514 40.6843 36.6865 40.915 36.4444 41.16C36.1852 41.4192 35.7665 41.4192 35.5045 41.16C35.2424 40.9008 35.2453 40.4821 35.5045 40.22C35.7494 39.9751 36.0485 39.7102 36.359 39.4339C37.4242 38.4939 38.6461 37.4201 37.991 36.4773L37.3673 35.8536C37.3217 35.808 37.2875 35.7653 37.259 35.7111L35.4304 37.5398C35.1712 37.799 34.7525 37.799 34.4905 37.5398C34.2284 37.2806 34.2313 36.8619 34.4905 36.5998L39.3953 31.6865C40.2156 30.8662 40.4036 30.0117 40.1871 29.3651C40.1073 29.1287 39.9763 28.9179 39.814 28.7556C39.6516 28.5932 39.4408 28.4622 39.2044 28.3825C38.5664 28.1717 37.7148 28.3654 36.8717 29.2085L28.2698 37.8103C28.0106 38.0695 27.5919 38.0695 27.3298 37.8103C27.0678 37.5512 27.0706 37.1325 27.3298 36.8704L28.2043 35.996L28.1957 35.9874ZM44.5393 24.9246C44.1918 25.2949 43.6164 25.3063 43.2519 24.9645C42.8816 24.617 42.8702 24.0416 43.212 23.677L45.7242 21.0025C46.0717 20.6322 46.6499 20.6208 47.0116 20.9626C47.3819 21.3101 47.3933 21.8855 47.0515 22.25L44.5393 24.9246ZM33.354 24.7366C33.7243 25.0841 33.7357 25.6623 33.3939 26.0241C33.0464 26.3943 32.4682 26.4057 32.1064 26.0639L29.429 23.5517C29.0616 23.2014 29.0502 22.626 29.3891 22.2643C29.7366 21.894 30.3148 21.8826 30.6766 22.2244L33.354 24.7366ZM38.9737 22.5463C38.9879 23.0476 38.592 23.4691 38.0936 23.4862C37.5951 23.5033 37.1707 23.1045 37.1536 22.6061L37.0426 18.9403C37.0255 18.4419 37.4242 18.0175 37.9227 18.0004C38.424 17.9861 38.8455 18.382 38.8598 18.8805L38.9737 22.5463ZM42.7306 36.033C42.3603 35.6855 42.3489 35.1073 42.6907 34.7456C43.0382 34.3753 43.6136 34.3639 43.9782 34.7057L46.6527 37.2179C47.023 37.5654 47.0344 38.1408 46.6926 38.5053C46.3451 38.8756 45.7698 38.887 45.4052 38.5452L42.7306 36.033ZM46.0005 30.6326C45.502 30.6497 45.0776 30.2509 45.0605 29.7525C45.0463 29.254 45.4422 28.8296 45.9407 28.8125L49.6036 28.6901C50.102 28.673 50.5264 29.0717 50.5435 29.5702C50.5606 30.0687 50.1619 30.493 49.6634 30.5101L46.0005 30.6326ZM38.1733 34.7968C38.2218 34.8253 38.2702 34.8595 38.3157 34.9051L38.968 35.5573C39.0022 35.5915 39.0364 35.6371 39.0648 35.677C39.7969 36.6796 39.6829 37.5739 39.1845 38.3886C39.2728 38.4227 39.3611 38.4712 39.4294 38.5424L40.0817 39.1946C40.1159 39.2288 40.1501 39.2744 40.1785 39.3143C40.9647 40.3966 40.7681 41.3422 40.1785 42.2024C40.207 42.2167 40.227 42.2423 40.2583 42.2708L40.9105 42.9231C40.9447 42.9572 40.9789 43.0028 41.0074 43.0427C42.5198 45.1106 40.7169 46.8651 39.2699 48.2807L38.8968 48.6539L37.2818 50.3486L37.2305 50.397C35.7523 51.7386 34.2882 52.0975 32.5935 52.5105C32.3087 52.5788 32.0238 52.6529 31.6251 52.7554C31.6137 52.7554 31.608 52.7611 31.5966 52.7611C30.6794 53.0118 29.8477 53.0716 29.1015 52.9377C28.3438 52.801 27.6859 52.462 27.1361 51.9237L21.4908 46.2812C20.9211 45.7315 20.7246 45.0536 20.887 44.2475C21.0094 43.6038 21.3854 42.8889 21.9722 42.1198L23.4818 33.592V33.5578C23.5501 33.0708 23.7039 32.3501 23.9688 31.6552C24.1711 31.1339 24.4445 30.6241 24.8005 30.2111C25.2306 29.724 25.655 29.4249 26.0737 29.2654C26.5893 29.0689 27.082 29.0945 27.5178 29.2825C27.9251 29.4534 28.2698 29.7639 28.5318 30.1598C28.8508 30.6355 29.0587 31.2422 29.1157 31.8745C29.1613 32.3957 29.2524 33.2559 29.3379 34.099L29.4062 34.8025L35.9289 28.2742C37.1821 27.021 38.5379 26.7732 39.6231 27.1292C40.0589 27.2716 40.4434 27.508 40.7624 27.827C41.0814 28.146 41.3179 28.5306 41.4603 28.9664C41.8192 30.0487 41.5742 31.4244 40.3437 32.6549L38.1819 34.8168L38.1733 34.7968Z" fill="#945600"/>
</g>
<defs>
<clipPath id="clip0_368_1226">
<rect width="29.7107" height="35" fill="white" transform="translate(20.832 18)"/>
</clipPath>
</defs>
</svg>
