<svg width="71" height="70" viewBox="0 0 71 70" fill="none" xmlns="http://www.w3.org/2000/svg">
<circle cx="35.168" cy="35" r="35" fill="#945600" fill-opacity="0.2"/>
<path d="M26.8256 43.0068C27.0569 43.0068 27.2983 42.9869 27.5297 42.9569C29.0987 42.7371 30.4464 41.7981 31.5528 40.1797C34.3288 45.2047 35.2943 49.1608 35.3144 49.2308C35.415 49.6604 35.7971 49.9801 36.2497 50H36.3C36.7325 50 37.1147 49.7303 37.2555 49.3207C37.9997 47.3426 38.9854 45.4645 40.1822 43.7262C41.359 45.9541 42.8576 46.7033 43.974 46.9131C44.2556 46.963 44.5372 46.993 44.8289 46.993C46.4482 46.993 48.1781 46.1639 49.6064 44.6853C52.2415 41.938 53.217 34.4253 51.4368 30.5891C51.2055 30.0896 50.6021 29.8698 50.0991 30.1095C50.0388 30.1395 49.9784 30.1795 49.9181 30.2194C48.0976 31.5781 46.4482 31.9977 44.7082 32.4372C43.1996 32.8168 41.6607 33.2165 40.0917 34.2355C38.3216 35.4043 37.2655 37.0927 37.2655 38.771C37.2655 39.6802 37.5774 40.9189 38.8245 42.1577C37.9294 43.3965 37.1348 44.7052 36.4609 46.0738C35.5154 43.4165 34.3186 40.859 32.9004 38.4114C35.2438 37.2226 36.6721 35.6441 37.1146 33.716C37.7985 30.7789 35.9982 28.1115 34.8717 26.7928C32.9809 24.575 30.2955 23.9356 27.4491 23.2563C24.9346 22.6569 22.3297 22.0375 20.1974 20.2393C19.9661 20.0395 19.6543 19.9595 19.3526 20.0195C19.0509 20.0794 18.7994 20.2692 18.6586 20.529C15.8726 25.7539 17.3008 35.7041 20.3986 39.3306C22.4003 41.7081 24.7034 43.0068 26.8256 43.0068ZM41.2081 35.9038C42.4855 35.0646 43.803 34.7249 45.2111 34.3653C46.6695 33.9956 48.2887 33.576 50.0086 32.557C50.944 36.0835 49.898 41.4883 48.148 43.3064C47.2126 44.2755 45.7341 45.2145 44.3562 44.9548C42.9482 44.6851 42.0732 43.1966 41.5904 41.9978C41.5803 41.9877 41.5703 41.9678 41.5602 41.9578C42.7169 40.629 44.1049 39.4103 45.7644 38.591C46.2672 38.3513 46.4684 37.7519 46.2271 37.2524C45.9857 36.7529 45.3822 36.553 44.8794 36.7928C44.8794 36.7928 44.8693 36.7928 44.8693 36.8028C42.9684 37.7419 41.3994 39.1106 40.0918 40.5991C39.6291 40.0896 39.2771 39.4801 39.2771 38.7809C39.2771 37.772 40.0012 36.693 41.2081 35.9038ZM19.9462 22.5769C22.1991 24.0854 24.7135 24.6849 26.9765 25.2243C29.6016 25.8437 31.8646 26.3832 33.343 28.1015C34.8517 29.8698 35.5155 31.7579 35.1635 33.2864C34.8517 34.6451 33.7353 35.7939 31.8646 36.7131C29.6518 33.2065 26.9564 30.0296 23.8586 27.2723C23.4562 26.8928 22.8126 26.9127 22.4404 27.3223C22.0583 27.7219 22.0784 28.3612 22.4907 28.7309C22.5008 28.7409 22.5108 28.7508 22.531 28.7609C25.9405 31.7879 28.5153 35.1246 30.4262 38.2116C29.5311 39.87 28.4751 40.809 27.2581 40.9789C25.669 41.2087 23.6875 40.1098 21.9375 38.0718C19.4634 35.1845 18.2162 27.3222 19.9462 22.5769Z" fill="#945600"/>
</svg>
