<svg width="71" height="70" viewBox="0 0 71 70" fill="none" xmlns="http://www.w3.org/2000/svg">
<circle cx="35.168" cy="35" r="35" fill="#945600" fill-opacity="0.2"/>
<path fill-rule="evenodd" clip-rule="evenodd" d="M21.5861 28.4831C21.5862 27.7069 22.1247 26.754 22.7909 26.3532L34.4376 19.3469C35.1029 18.9466 36.1805 18.9466 36.847 19.3483L48.4978 26.3679C49.1633 26.7687 49.7025 27.722 49.7023 28.5016L49.6974 42.4943C49.6972 43.2718 49.1579 44.2284 48.4936 44.6307L36.8217 51.698C36.1571 52.1006 35.081 52.1004 34.4153 51.6963L22.7844 44.6325C22.1199 44.2291 21.5817 43.2732 21.582 42.4966L21.5861 28.4831ZM24.0358 27.3451L35.6081 33.8067L46.6412 27.4297L35.5895 20.9402L24.0358 27.3451ZM23.2894 29.4364C23.2894 29.7226 23.1022 42.068 23.1022 42.068C23.0962 42.4558 23.3601 42.9323 23.694 43.134L34.5243 49.6699L34.6239 36.0621C34.6239 36.0621 23.2894 29.15 23.2894 29.4364ZM36.6676 49.6403L47.3748 42.8446C47.7847 42.5845 48.1171 41.9807 48.1171 41.4948V29.3669L36.6676 35.961V49.6403Z" fill="#945600"/>
<path fill-rule="evenodd" clip-rule="evenodd" d="M26.8367 36.2497C25.9961 36.7352 24.8816 36.3789 24.3476 35.4541C23.8138 34.5293 24.0625 33.386 24.9031 32.9007C25.7438 32.4152 26.8583 32.7715 27.3922 33.6963C27.9262 34.6211 27.6774 35.7643 26.8367 36.2497ZM32.4617 39.9411C31.6211 40.4266 30.5066 40.0703 29.9726 39.1455C29.4388 38.2207 29.6875 37.0774 30.5281 36.5921C31.3689 36.1066 32.4833 36.4629 33.0171 37.3877C33.5512 38.3125 33.3024 39.4557 32.4617 39.9411ZM26.8367 42.7536C25.9961 43.2391 24.8816 42.8828 24.3476 41.958C23.8138 41.0332 24.0625 39.8899 24.9031 39.4046C25.7438 38.9191 26.8583 39.2754 27.3922 40.2002C27.9262 41.125 27.6774 42.2682 26.8367 42.7536ZM32.4617 46.445C31.6211 46.9305 30.5066 46.5742 29.9726 45.6494C29.4388 44.7246 29.6875 43.5813 30.5281 43.096C31.3689 42.6105 32.4833 42.9668 33.0171 43.8916C33.5512 44.8164 33.3024 45.9596 32.4617 46.445ZM46.2145 32.7249C45.3737 32.2394 44.2594 32.5957 43.7254 33.5205C43.1915 34.4453 43.4401 35.5886 44.2809 36.0739C45.1216 36.5594 46.2361 36.2031 46.7699 35.2783C47.3039 34.3535 47.0552 33.2102 46.2145 32.7249ZM43.3601 37.8226C42.5195 37.3371 41.4051 37.6934 40.8711 38.6181C40.3372 39.5429 40.5859 40.6862 41.4265 41.1715C42.2673 41.6571 43.3817 41.3007 43.9156 40.376C44.4496 39.4512 44.2009 38.3079 43.3601 37.8226ZM40.3718 42.7444C39.5313 42.2589 38.4168 42.6152 37.8828 43.54C37.3489 44.4648 37.5977 45.6081 38.4382 46.0934C39.279 46.5789 40.3935 46.2226 40.9273 45.2978C41.4613 44.373 41.2126 43.2298 40.3718 42.7444ZM35.7558 25.125C34.6394 25.125 33.7343 25.9907 33.7343 27.0586C33.7343 28.1265 34.6394 28.9922 35.7558 28.9922C36.8722 28.9922 37.7773 28.1265 37.7773 27.0586C37.7773 25.9907 36.8722 25.125 35.7558 25.125Z" fill="#945600"/>
</svg>
