<svg viewBox="0 0 71 70" fill="none" xmlns="http://www.w3.org/2000/svg">
<circle cx="35.5" cy="35" r="35" fill="#945600" fill-opacity="0.2"/>
<g clip-path="url(#clip0_368_1247)">
<path fill-rule="evenodd" clip-rule="evenodd" d="M25.0309 47.3547V36.4542H29.9329C32.0121 36.8273 34.0885 37.9524 36.1678 39.2626H39.976C41.6992 39.3651 42.6021 41.114 40.9273 42.2619C39.5915 43.2417 37.8312 43.1847 36.0254 43.0224C34.7807 42.9597 34.7266 44.6345 36.0254 44.6402C36.4754 44.6744 36.9653 44.569 37.3954 44.569C39.6484 44.5662 41.5055 44.1361 42.642 42.3559L43.2145 41.0229L48.8798 38.2144C51.7139 37.2802 53.7276 40.2453 51.6398 42.3074C47.5382 45.2925 43.3284 47.7477 39.0247 49.733C35.9001 51.6328 32.7726 51.5701 29.648 49.733L25.0309 47.3547ZM43.243 18.6779C46.6467 20.0878 48.877 23.4089 48.877 27.1117C48.877 29.6325 47.8544 31.914 46.2052 33.566C44.5532 35.218 42.2717 36.2406 39.751 36.2406C37.2331 36.2406 34.9516 35.218 33.2996 33.566C31.6475 31.914 30.625 29.6325 30.625 27.1117C30.625 23.4374 32.9093 20.0109 36.3045 18.6181C38.4094 17.7579 41.1495 17.812 43.243 18.6779ZM38.3496 26.8696C38.4635 26.7443 38.6031 26.6389 38.7512 26.5563V22.5858C38.7512 22.1813 39.0788 21.8538 39.4832 21.8538C39.8877 21.8538 40.2181 22.1813 40.2181 22.5858V26.5563C40.4858 26.7016 40.7052 26.9209 40.8504 27.1886H43.8611C44.2655 27.1886 44.5931 27.5162 44.5931 27.9206C44.5931 28.3251 44.2655 28.6527 43.8611 28.6527H40.8504C40.5884 29.1397 40.0757 29.4701 39.4861 29.4701C39.0218 29.4701 38.606 29.265 38.3211 28.9403C37.7942 28.3393 37.817 27.4421 38.3496 26.8696ZM45.1685 21.8367C41.3888 18.057 35.0114 19.1251 32.8011 23.8874C32.3454 24.8673 32.0919 25.9582 32.0919 27.1117C32.0919 29.228 32.9492 31.1421 34.3335 32.5292C35.7206 33.9163 37.6347 34.7737 39.751 34.7737C41.8673 34.7737 43.7842 33.9135 45.1685 32.5264C46.5556 31.1421 47.4129 29.2252 47.4129 27.1089C47.4129 25.9097 47.1366 24.7733 46.6439 23.7621C46.2708 22.9988 45.7723 22.4405 45.1685 21.8367ZM17.5 35.406H23.5555V48.4484H17.5V35.406Z" fill="#945600"/>
</g>
<defs>
<clipPath id="clip0_368_1247">
<rect width="35" height="33.1344" fill="white" transform="translate(17.5 18)"/>
</clipPath>
</defs>
</svg>
