<svg width="70" height="70" viewBox="0 0 70 70" fill="none" xmlns="http://www.w3.org/2000/svg">
<circle cx="35" cy="35" r="35" fill="#945600" fill-opacity="0.2"/>
<g clip-path="url(#clip0_368_1282)">
<path d="M51.9627 18.5368C51.7141 18.1194 51.2641 17.8438 50.75 17.8438H26C25.2238 17.8438 24.5938 18.4737 24.5938 19.25C24.5938 19.5009 24.659 19.736 24.7737 19.9396L24.7704 19.9329L33.4329 35.5242V40.4641C33.4329 41.0109 33.7456 41.4856 34.2024 41.7174L34.2103 41.7207L41.2809 45.2566C41.4643 45.3511 41.6803 45.4062 41.9097 45.4062C42.1831 45.4062 42.4385 45.3275 42.6534 45.1914L42.6478 45.1947C43.0516 44.9439 43.316 44.5029 43.316 44V35.5242L51.9774 19.9329C52.0899 19.736 52.1562 19.4997 52.1562 19.2477C52.1562 18.9856 52.0842 18.7392 51.9582 18.53L51.9627 18.5368ZM40.6824 34.4769C40.571 34.6737 40.5046 34.9089 40.5046 35.1597V41.723L36.2465 39.5934V35.1597C36.2465 34.9089 36.1812 34.6726 36.0665 34.469L36.0699 34.4757L28.3906 20.6551H48.3605L40.6824 34.4769ZM32.9907 42.5937C32.2145 42.5937 31.5845 43.2237 31.5845 44V48.4741L28.2905 46.8282V43.1169C28.2905 43.1169 28.2905 43.1157 28.2905 43.1146C28.2905 42.8649 28.2253 42.6297 28.1105 42.4261L28.1139 42.4329L21.6395 30.7812H27.6245C28.4008 30.7812 29.0308 30.1512 29.0308 29.375C29.0308 28.5987 28.4008 27.9687 27.6245 27.9687H19.25C18.4737 27.9687 17.8438 28.5987 17.8438 29.3761C17.8438 29.627 17.909 29.8621 18.0238 30.0657L18.0204 30.059L25.478 43.4825V47.6967C25.478 48.2435 25.7908 48.7171 26.2464 48.95L26.2542 48.9534L32.3608 52.0077C32.5441 52.1022 32.7612 52.1574 32.9907 52.1574C33.2641 52.1574 33.5195 52.0786 33.7355 51.9425L33.7299 51.9459C34.1326 51.695 34.397 51.254 34.397 50.7511V44C34.397 43.2237 33.767 42.5937 32.9907 42.5937Z" fill="#945600"/>
</g>
<defs>
<clipPath id="clip0_368_1282">
<rect width="36" height="36" fill="white" transform="translate(17 17)"/>
</clipPath>
</defs>
</svg>
