<svg width="18" height="18" viewBox="0 0 18 18" fill="none" xmlns="http://www.w3.org/2000/svg">
<path d="M14.4511 3.9975C13.4536 3.5325 12.3736 3.195 11.2486 3C11.2288 3.00028 11.21 3.00837 11.1961 3.0225C11.0611 3.27 10.9036 3.5925 10.7986 3.84C9.60536 3.66011 8.39188 3.66011 7.19862 3.84C7.09362 3.585 6.93612 3.27 6.79362 3.0225C6.78612 3.0075 6.76362 3 6.74112 3C5.61612 3.195 4.54362 3.5325 3.53862 3.9975C3.53112 3.9975 3.52362 4.005 3.51612 4.0125C1.47612 7.065 0.913623 10.035 1.19112 12.975C1.19112 12.99 1.19862 13.005 1.21362 13.0125C2.56362 14.0025 3.86112 14.6025 5.14362 15C5.16612 15.0075 5.18862 15 5.19612 14.985C5.49612 14.5725 5.76612 14.1375 5.99862 13.68C6.01362 13.65 5.99862 13.62 5.96862 13.6125C5.54112 13.4475 5.13612 13.2525 4.73862 13.0275C4.70862 13.0125 4.70862 12.9675 4.73112 12.945C4.81362 12.885 4.89612 12.8175 4.97862 12.7575C4.99362 12.7425 5.01612 12.7425 5.03112 12.75C7.61112 13.9275 10.3936 13.9275 12.9436 12.75C12.9586 12.7425 12.9811 12.7425 12.9961 12.7575C13.0786 12.825 13.1611 12.885 13.2436 12.9525C13.2736 12.975 13.2736 13.02 13.2361 13.035C12.8461 13.2675 12.4336 13.455 12.0061 13.62C11.9761 13.6275 11.9686 13.665 11.9761 13.6875C12.2161 14.145 12.4861 14.58 12.7786 14.9925C12.8011 15 12.8236 15.0075 12.8461 15C14.1361 14.6025 15.4336 14.0025 16.7836 13.0125C16.7986 13.005 16.8061 12.99 16.8061 12.975C17.1361 9.5775 16.2586 6.63 14.4811 4.0125C14.4736 4.005 14.4661 3.9975 14.4511 3.9975ZM6.38862 11.1825C5.61612 11.1825 4.97112 10.47 4.97112 9.5925C4.97112 8.715 5.60112 8.0025 6.38862 8.0025C7.18362 8.0025 7.81362 8.7225 7.80612 9.5925C7.80612 10.47 7.17612 11.1825 6.38862 11.1825ZM11.6161 11.1825C10.8436 11.1825 10.1986 10.47 10.1986 9.5925C10.1986 8.715 10.8286 8.0025 11.6161 8.0025C12.4111 8.0025 13.0411 8.7225 13.0336 9.5925C13.0336 10.47 12.4111 11.1825 11.6161 11.1825Z" fill="currentColor" />
</svg>
