<svg width="18" height="19" viewBox="0 0 18 19" fill="none" xmlns="http://www.w3.org/2000/svg">
<path d="M9.77034 1.67969C10.6144 1.68108 11.0421 1.68555 11.4117 1.69655L11.5573 1.70131C11.7254 1.70729 11.8913 1.71479 12.0914 1.72416C12.8894 1.76103 13.4339 1.88729 13.912 2.07291C14.4063 2.26353 14.8238 2.52104 15.2407 2.93791C15.6569 3.35478 15.9145 3.77354 16.1057 4.26666C16.2907 4.74416 16.417 5.28916 16.4545 6.08729C16.4634 6.28728 16.4706 6.45318 16.4765 6.62137L16.4813 6.76693C16.4922 7.13649 16.4972 7.56428 16.4988 8.40833L16.4994 8.9676C16.4995 9.03593 16.4995 9.10643 16.4995 9.17918L16.4994 9.39075L16.499 9.95003C16.4975 10.7941 16.4931 11.2218 16.4821 11.5914L16.4773 11.737C16.4714 11.9051 16.4639 12.071 16.4545 12.2711C16.4176 13.0691 16.2907 13.6136 16.1057 14.0917C15.9151 14.586 15.6569 15.0035 15.2407 15.4204C14.8238 15.8366 14.4044 16.0942 13.912 16.2854C13.4339 16.4704 12.8894 16.5967 12.0914 16.6342C11.8913 16.6431 11.7254 16.6503 11.5573 16.6562L11.4117 16.661C11.0421 16.6719 10.6144 16.6769 9.77034 16.6785L9.21106 16.6791C9.14274 16.6792 9.07224 16.6792 8.99949 16.6792L8.78792 16.6791L8.22864 16.6787C7.38459 16.6772 6.9568 16.6728 6.58724 16.6618L6.44168 16.657C6.27349 16.6511 6.10759 16.6436 5.9076 16.6342C5.10947 16.5973 4.56572 16.4704 4.08698 16.2854C3.59322 16.0948 3.1751 15.8366 2.75822 15.4204C2.34135 15.0035 2.08448 14.5841 1.89323 14.0917C1.7076 13.6136 1.58198 13.0691 1.54448 12.2711C1.53557 12.071 1.5283 11.9051 1.52241 11.737L1.51769 11.5914C1.50672 11.2218 1.50172 10.7941 1.5001 9.95003L1.5 8.40833C1.50139 7.56428 1.50586 7.13649 1.51686 6.76693L1.52162 6.62137C1.5276 6.45318 1.5351 6.28728 1.54448 6.08729C1.58135 5.28854 1.7076 4.74479 1.89323 4.26666C2.08385 3.77291 2.34135 3.35478 2.75822 2.93791C3.1751 2.52104 3.59385 2.26416 4.08698 2.07291C4.5651 1.88729 5.10885 1.76166 5.9076 1.72416C6.10759 1.71525 6.27349 1.70799 6.44168 1.7021L6.58724 1.69738C6.9568 1.68641 7.38459 1.68141 8.22864 1.67979L9.77034 1.67969ZM8.99949 5.42916C6.9273 5.42916 5.24948 7.10881 5.24948 9.17918C5.24948 11.2514 6.92912 12.9292 8.99949 12.9292C11.0717 12.9292 12.7495 11.2495 12.7495 9.17918C12.7495 7.10699 11.0698 5.42916 8.99949 5.42916ZM8.99949 6.92916C10.2422 6.92916 11.2495 7.93613 11.2495 9.17918C11.2495 10.4219 10.2425 11.4292 8.99949 11.4292C7.75682 11.4292 6.74948 10.4222 6.74948 9.17918C6.74948 7.9365 7.75644 6.92916 8.99949 6.92916ZM12.937 4.30416C12.42 4.30416 11.9995 4.72409 11.9995 5.24103C11.9995 5.75796 12.4194 6.17853 12.937 6.17853C13.4539 6.17853 13.8745 5.75861 13.8745 5.24103C13.8745 4.72409 13.4532 4.30351 12.937 4.30416Z" fill="currentColor"/>
</svg>
