<svg width="18" height="19" viewBox="0 0 18 19" fill="none" xmlns="http://www.w3.org/2000/svg">
<path d="M9.18293 3.17969C9.5835 3.18189 10.5857 3.19158 11.6506 3.23424L12.0281 3.2507C13.1003 3.30146 14.1715 3.38817 14.7028 3.53631C15.4115 3.7354 15.9685 4.31631 16.1567 5.05268C16.4565 6.222 16.494 8.50424 16.4986 9.05654L16.4993 9.17099V9.17901C16.4993 9.17901 16.4993 9.18179 16.4993 9.18711L16.4986 9.30156C16.494 9.85386 16.4565 12.1361 16.1567 13.3054C15.9658 14.0445 15.4088 14.6254 14.7028 14.8218C14.1715 14.9699 13.1003 15.0566 12.0281 15.1074L11.6506 15.1238C10.5857 15.1665 9.5835 15.1762 9.18293 15.1784L9.00712 15.179H8.99932C8.99932 15.179 8.9967 15.179 8.99152 15.179L8.81588 15.1784C7.96808 15.1738 4.42329 15.1354 3.29588 14.8218C2.5872 14.6227 2.03019 14.0418 1.8419 13.3054C1.54215 12.1361 1.50468 9.85386 1.5 9.30156V9.05654C1.50468 8.50424 1.54215 6.222 1.8419 5.05268C2.0328 4.31358 2.58981 3.73268 3.29588 3.53631C4.42329 3.22261 7.96808 3.18435 8.81588 3.17969H9.18293ZM7.49933 6.55404V11.804L11.9993 9.17901L7.49933 6.55404Z" fill="currentColor" />
</svg>
